
<svg width="349px" height="266px" viewBox="0 0 349 266" version="1.1" xmlns="http://www.w3.org/2000/svg" xmlns:xlink="http://www.w3.org/1999/xlink">
    <!-- Generator: Sketch 46.1 (44463) - http://www.bohemiancoding.com/sketch -->
    <desc>Created with Sketch.</desc>
    <defs>
        <polygon id="path-1" points="0 73.782206 0 0.328426187 46.9361785 0.328426187 46.9361785 73.782206 1.17307451e-15 73.782206"></polygon>
        <polygon id="path-3" points="0.433883232 0.453818182 37.7958665 0.453818182 37.7958665 77.5102623 0.433883232 77.5102623 0.433883232 0.453818182"></polygon>
        <polygon id="path-5" points="50.4078333 0.460752855 50.4078333 80.3987481 0.414634201 80.3987481 0.414634201 0.460752855 50.4078333 0.460752855"></polygon>
    </defs>
    <g id="Page-1" stroke="none" stroke-width="1" fill="none" fill-rule="evenodd">
        <g id="Homepage" transform="translate(-546.000000, -96.000000)">
            <g id="Page-1" transform="translate(546.000000, 96.000000)">
                <path d="M81.0345017,200.259523 C78.8519662,203.143672 77.6980146,206.596376 77.6980146,210.242403 C77.6980146,213.889143 78.8519662,217.341133 81.0345017,220.225282 L81.4996438,220.840919 L81.9640737,220.224568 C86.3989516,214.347125 86.3989516,206.136967 81.9640737,200.259523 L81.4996438,199.6446 L81.0345017,200.259523 Z M65.1121075,217.82551 C66.1264452,225.12113 71.9225585,230.924383 79.2066994,231.940933 L79.9710142,232.047938 L79.8648792,231.282494 C78.8512539,223.986874 73.0544282,218.182194 65.7702873,217.167071 L65.0059725,217.060779 L65.1121075,217.82551 Z M97.230425,217.167071 C89.9455718,218.182194 84.1494585,223.986874 83.1358331,231.282494 L83.0289858,232.047938 L83.7933006,231.940933 C91.0781538,230.924383 96.8735548,225.12113 97.8878925,217.82551 L97.9940275,217.060779 L97.230425,217.167071 Z M77.7471644,235.758168 C79.0521269,237.162077 80.1398331,238.738622 80.9782287,240.443573 L81.5010685,241.505065 L82.0246206,240.443573 C82.8658655,238.735768 83.9528593,237.159224 85.2556848,235.758168 L86.4253073,234.499786 L84.7321327,234.783707 C83.6608098,234.964189 82.5780899,235.056213 81.5131778,235.056927 C80.4354441,235.056927 79.3484503,234.965616 78.2707165,234.783707 L76.5782543,234.499786 L77.7471644,235.758168 Z M65.1121075,233.296333 C66.1264452,240.591953 71.9225585,246.396633 79.2074117,247.411756 L79.9710142,247.518048 L79.8648792,246.753317 C78.8512539,239.457697 73.0544282,233.653731 65.7702873,232.637894 L65.0059725,232.530889 L65.1121075,233.296333 Z M97.230425,232.637894 C89.9455718,233.653731 84.1494585,239.457697 83.1358331,246.753317 L83.0289858,247.518048 L83.7933006,247.411756 C91.0781538,246.396633 96.8735548,240.591953 97.8878925,233.296333 L97.9940275,232.530889 L97.230425,232.637894 Z M81.5003562,266 C80.6854669,266 80.0237256,265.336567 80.0237256,264.521187 L80.0237256,250.479241 L79.4994612,250.425738 C78.3348249,250.307319 77.1580793,250.074048 76.0005662,249.733057 L75.2526347,249.511913 L75.2526347,259.364246 C75.2526347,260.179626 74.590181,260.843059 73.7760041,260.843059 C72.9618272,260.843059 72.2986612,260.179626 72.2986612,259.364246 L72.2986612,249.050364 C72.2986612,248.949065 72.3129075,248.840633 72.3406878,248.718647 L72.4389874,248.290626 L72.0557615,248.077329 C65.8536282,244.622485 62,238.079469 62,231 C62,230.18462 62.6624537,229.521187 63.4773429,229.521187 C64.5408303,229.521187 65.6278241,229.612498 66.7098318,229.794407 L68.4015817,230.079041 L67.2326715,228.820659 C63.8584318,225.19104 62,220.470681 62,215.528463 C62,214.713797 62.6624537,214.04965 63.4773429,214.04965 C67.7191832,214.04965 71.7565889,215.39863 75.1529104,217.949636 L76.7769904,219.17021 L76.0468667,217.273363 C75.1828277,215.027679 74.7447535,212.662862 74.7440412,210.242403 C74.7440412,205.026965 76.7727165,200.122557 80.4561013,196.433728 C80.7346167,196.154088 81.1057332,196 81.5003562,196 C81.8949791,196 82.2660956,196.154088 82.5446111,196.433728 C87.9867034,201.88315 89.7112199,210.067627 86.9381746,217.28335 L86.208051,219.182337 L87.8314186,217.959623 C91.2305894,215.402197 95.2736936,214.04965 99.5233694,214.04965 C100.337546,214.04965 101,214.713797 101,215.528463 C101,220.470681 99.1415682,225.190327 95.7680408,228.820659 L94.5984183,230.078328 L96.2908805,229.793694 C97.3700389,229.612498 98.4577451,229.521187 99.5233694,229.521187 C100.337546,229.521187 101,230.18462 101,231 C101,238.079469 97.1470841,244.622485 90.9449508,248.077329 L90.5617249,248.290626 L90.6600245,248.718647 C90.6878048,248.840633 90.7013388,248.949065 90.7013388,249.050364 L90.7013388,259.364246 C90.7013388,260.179626 90.0388851,260.843059 89.2247082,260.843059 C88.409819,260.843059 87.7473653,260.179626 87.7473653,259.364246 L87.7473653,249.511913 L87.0001461,249.733057 C85.842633,250.074048 84.6651751,250.307319 83.5005388,250.425738 L82.9769867,250.479241 L82.9769867,264.521187 C82.9769867,265.336567 82.3145331,266 81.5003562,266 L81.5003562,266 Z" id="Fill-1" fill="#376363"></path>
                <path d="M235.149857,222.007264 C231.275668,222.007264 228.351225,224.2091 227.273987,225.15519 C225.283532,226.903959 223.731421,228.940266 222.66063,231.20703 C221.601298,233.453816 221.064112,235.836166 221.064112,238.286297 C221.064828,240.737856 221.602014,243.119492 222.66063,245.364852 C223.731421,247.633043 225.282816,249.669349 227.271838,251.415978 C229.277334,253.178303 231.620184,254.554629 234.235207,255.508568 C236.856677,256.46322 239.637871,256.947681 242.5,256.947681 C245.365711,256.947681 248.146188,256.46322 250.764793,255.508568 C253.381249,254.555342 255.724098,253.178303 257.728162,251.416691 C259.718617,249.666495 261.269295,247.630189 262.338654,245.364852 C263.397986,243.118779 263.935172,240.737143 263.935172,238.286297 C263.935172,235.835452 263.397986,233.453816 262.33937,231.208457 C261.270011,228.943119 259.718617,226.906813 257.726729,225.155904 C256.887286,224.41744 253.836067,222.007264 249.827223,222.007264 C247.637651,222.007264 245.453093,222.720756 243.333713,224.128475 C243.080878,224.295432 242.787216,224.384619 242.483526,224.384619 C242.179837,224.384619 241.886175,224.295432 241.634055,224.128475 C239.514676,222.720756 237.332983,222.007264 235.149857,222.007264 M242.5,260 C239.277597,260 236.143294,259.453465 233.182322,258.375379 C230.207741,257.290871 227.536134,255.719048 225.244138,253.705573 C222.939967,251.680683 221.137885,249.311176 219.887315,246.664121 C218.635313,244.008503 218.000716,241.190923 218,238.286297 C218,235.383098 218.635313,232.564091 219.888031,229.909188 C221.137169,227.261419 222.940683,224.891912 225.246287,222.866308 C226.58424,221.690473 230.22708,218.954945 235.149857,218.954945 C235.613986,218.954945 236.1039,218.984198 236.646816,219.046272 L238.516941,219.257465 L231.348725,213.903421 C231.022116,213.658693 230.80939,213.301947 230.751374,212.898111 C230.693358,212.494275 230.796498,212.092579 231.042171,211.765799 C231.3344,211.378373 231.782772,211.155763 232.269821,211.155763 C232.602877,211.155763 232.920891,211.260647 233.188052,211.461138 L241.091855,217.365998 L241.204306,216.500532 C241.538078,213.914837 242.209919,211.396924 243.200491,209.016714 C244.695302,205.424996 246.859089,202.205006 249.630255,199.446646 C249.919619,199.159109 250.304961,199 250.713939,199 C251.123633,199 251.508259,199.159109 251.796907,199.447359 C252.394975,200.042412 252.394258,201.010621 251.796907,201.605673 C249.310808,204.080063 247.371207,206.966852 246.031106,210.186128 C245.044115,212.558489 244.412384,215.060705 244.152386,217.622855 L244.080044,218.343482 L252.326931,216.289339 C252.450126,216.258658 252.576902,216.242962 252.701529,216.242962 C253.404885,216.242962 254.014413,216.718861 254.185596,217.399532 C254.309507,217.895409 254.176285,218.418399 253.829621,218.79869 L253.294583,219.383753 L254.050941,219.625627 C256.81208,220.509644 258.809697,222.035803 259.755145,222.867021 C262.061466,224.895479 263.864264,227.264273 265.112685,229.909188 C266.365404,232.564805 267,235.383812 267,238.286297 C267,241.189496 266.364687,244.008503 265.111969,246.663407 C263.86498,249.307609 262.062898,251.676402 259.755862,253.70486 C257.462433,255.720475 254.792259,257.292298 251.817678,258.376092 C248.861004,259.453465 245.725984,260 242.5,260" id="Fill-3" fill="#376363"></path>
                <path d="M74.7629237,121.051871 L62.2370763,121.051871 L62.2370763,136.75613 C62.2370763,138.234128 60.4002878,139 58.6188979,139 C56.7813899,139 55,138.234128 55,136.75613 L55,101.18871 C55,99.6562594 56.7813899,99 58.6188979,99 C60.4002878,99 62.2370763,99.6562594 62.2370763,101.18871 L62.2370763,115.470131 L74.7629237,115.470131 L74.7629237,101.18871 C74.7629237,99.6562594 76.5443136,99 78.3811021,99 C80.162492,99 82,99.6562594 82,101.18871 L82,136.75613 C82,138.234128 80.162492,139 78.3811021,139 C76.5443136,139 74.7629237,138.234128 74.7629237,136.75613 L74.7629237,121.051871 Z" id="Fill-5" fill="#376363"></path>
                <path d="M95.1586154,116.18155 L103.528481,116.18155 C104.960346,116.18155 105.786587,117.549935 105.786587,119.026519 C105.786587,120.286 105.070654,121.76329 103.528481,121.76329 L95.1586154,121.76329 L95.1586154,132.761293 L110.742606,132.761293 C112.174471,132.761293 113,134.239291 113,135.935806 C113,137.41239 112.284067,139 110.742606,139 L91.1391443,139 C89.5414615,139 88,138.234128 88,136.75613 L88,101.243162 C88,99.7658717 89.5414615,99 91.1391443,99 L110.742606,99 C112.284067,99 113,100.586196 113,102.064194 C113,103.760709 112.174471,105.237293 110.742606,105.237293 L95.1586154,105.237293 L95.1586154,116.18155 Z" id="Fill-7" fill="#376363"></path>
                <path d="M135.314462,124.48065 L130.473027,107.40181 L125.630873,124.48065 L135.314462,124.48065 Z M115,135.996195 C115,135.884756 115.056103,135.662598 115.111488,135.439722 L125.853129,100.448051 C126.353744,98.7793501 128.413026,98 130.473027,98 C132.586974,98 134.646976,98.7793501 135.14759,100.448051 L145.889232,135.439722 C145.944616,135.662598 146,135.829397 146,135.996195 C146,137.720974 143.384719,139 141.436924,139 C140.21272,139 139.266155,138.610325 138.987796,137.554176 L136.873129,130.155383 L124.12759,130.155383 L122.012924,137.554176 C121.734565,138.610325 120.788719,139 119.564514,139 C117.616,139 115,137.776334 115,135.996195 L115,135.996195 Z" id="Fill-9" fill="#376363"></path>
                <path d="M152.174672,139 C150.559627,139 149,138.234128 149,136.75613 L149,101.18871 C149,99.6562594 150.78202,99 152.620177,99 C154.402197,99 156.239635,99.6562594 156.239635,101.18871 L156.239635,132.762 L169.827894,132.762 C171.276684,132.762 172,134.29445 172,135.881354 C172,137.413097 171.276684,139 169.827894,139 L152.174672,139 Z" id="Fill-11" fill="#376363"></path>
                <path d="M193.727038,99 C195.279846,99 196,100.641356 196,102.173099 C196,103.870322 195.168778,105.402065 193.727038,105.402065 L185.631939,105.402065 L185.631939,136.75613 C185.631939,138.233421 183.801817,139 182.027588,139 C180.198183,139 178.423954,138.233421 178.423954,136.75613 L178.423954,105.402065 L170.273679,105.402065 C168.831939,105.402065 168,103.924774 168,102.173099 C168,100.641356 168.72087,99 170.273679,99 L193.727038,99 Z" id="Fill-13" fill="#376363"></path>
                <path d="M218.762924,121.051871 L206.237076,121.051871 L206.237076,136.75613 C206.237076,138.234128 204.400288,139 202.618898,139 C200.78139,139 199,138.234128 199,136.75613 L199,101.18871 C199,99.6562594 200.78139,99 202.618898,99 C204.400288,99 206.237076,99.6562594 206.237076,101.18871 L206.237076,115.470131 L218.762924,115.470131 L218.762924,101.18871 C218.762924,99.6562594 220.544314,99 222.381102,99 C224.162492,99 226,99.6562594 226,101.18871 L226,136.75613 C226,138.234128 224.162492,139 222.381102,139 C220.544314,139 218.762924,138.234128 218.762924,136.75613 L218.762924,121.051871 Z" id="Fill-15" fill="#376363"></path>
                <path d="M262.482928,131.189968 L252.729219,120.773034 C250.886743,122.158665 249.09889,124.15297 249.09889,127.200641 C249.09889,130.857703 251.699786,133.739242 256.413471,133.739242 C259.177535,133.739242 261.18248,132.685876 262.482928,131.189968 M242,127.810032 C242,122.712201 245.196847,118.556741 248.773253,116.56172 C246.714386,114.179295 244.980455,111.686592 244.980455,108.028814 C244.980455,101.657062 250.073701,98 256.359548,98 C262.91641,98 266.980222,101.878333 266.980222,104.482746 C266.980222,106.144786 265.300214,107.807543 263.67483,107.807543 C261.236403,107.807543 260.80292,103.762361 256.413471,103.762361 C253.650107,103.762361 251.59124,105.425118 251.59124,108.361795 C251.59124,111.686592 254.896632,114.789402 257.172591,117.226966 L265.896866,126.646389 C267.088768,123.820705 266.926299,121.105299 267.088768,119.277126 C267.251236,117.837073 267.793264,117.060833 270.231692,117.060833 C272.670119,117.060833 273.211447,118.279615 273.211447,120.384914 C273.211447,123.155459 272.345182,127.421912 270.177069,131.134829 L274.566517,135.789402 C274.891454,136.176806 275,136.620064 275,137.008184 C275,138.504092 273.374615,139.944861 271.74853,139.944861 C271.152579,139.944861 270.665174,139.778013 270.0146,139.113483 L266.655285,135.567415 C263.945844,138.171827 260.315515,140 255.601129,140 C247.256414,140 242,134.292778 242,127.810032" id="Fill-17" fill="#376363"></path>
                <path d="M70.8347952,169.29558 L60.1652048,169.29558 L60.1652048,183.036947 C60.1652048,184.330109 58.6002841,185 57.0829576,185 C55.5180369,185 54,184.330109 54,183.036947 L54,151.915715 C54,150.574499 55.5180369,150 57.0829576,150 C58.6002841,150 60.1652048,150.574499 60.1652048,151.915715 L60.1652048,164.411258 L70.8347952,164.411258 L70.8347952,151.915715 C70.8347952,150.574499 72.3521218,150 73.9170424,150 C75.4350794,150 77,150.574499 77,151.915715 L77,183.036947 C77,184.330109 75.4350794,185 73.9170424,185 C72.3521218,185 70.8347952,184.330109 70.8347952,183.036947 L70.8347952,169.29558 Z" id="Fill-19" fill="#376363"></path>
                <path d="M98.0380271,172.604878 L93.9769256,158.025813 L89.915824,172.604878 L98.0380271,172.604878 Z M81,182.435467 C81,182.340854 81.0468481,182.150203 81.0936962,181.960264 L90.1025172,152.089329 C90.5227517,150.664431 92.2498386,150 93.9769256,150 C95.7508606,150 97.4779475,150.664431 97.898182,152.089329 L106.907003,181.960264 C106.953152,182.150203 107,182.293191 107,182.435467 C107,183.908028 104.80653,185 103.17244,185 C102.145977,185 101.352356,184.667073 101.118815,183.765041 L99.3448795,177.44939 L88.6558197,177.44939 L86.8818847,183.765041 C86.6483434,184.667073 85.8547225,185 84.8275602,185 C83.1941695,185 81,183.95498 81,182.435467 L81,182.435467 Z" id="Fill-21" fill="#376363"></path>
                <path d="M116.268591,155.458104 L116.268591,167.044919 L121.669011,167.044919 C124.802946,167.044919 126.731409,165.274083 126.731409,161.539478 L126.731409,160.964979 C126.731409,157.230374 124.802946,155.458104 121.669011,155.458104 L116.268591,155.458104 Z M110,151.915715 C110,150.909445 110.916562,150 112.362549,150 L122.054704,150 C128.178118,150 133,152.920552 133,160.772762 L133,161.06037 C133,168.91258 128.033664,171.92924 121.669011,171.92924 L116.268591,171.92924 L116.268591,183.036947 C116.268591,184.330109 114.677427,185 113.134656,185 C111.543493,185 110,184.330109 110,183.036947 L110,151.915715 Z" id="Fill-23" fill="#376363"></path>
                <path d="M143.268591,155.458104 L143.268591,167.044919 L148.669011,167.044919 C151.802946,167.044919 153.731409,165.274083 153.731409,161.539478 L153.731409,160.964979 C153.731409,157.230374 151.802946,155.458104 148.669011,155.458104 L143.268591,155.458104 Z M137,151.915715 C137,150.909445 137.916562,150 139.362549,150 L149.054704,150 C155.178118,150 160,152.920552 160,160.772762 L160,161.06037 C160,168.91258 155.033664,171.92924 148.669011,171.92924 L143.268591,171.92924 L143.268591,183.036947 C143.268591,184.330109 141.677427,185 140.134656,185 C138.543493,185 137,184.330109 137,183.036947 L137,151.915715 Z" id="Fill-25" fill="#376363"></path>
                <path d="M163,151.915676 C163,150.575205 164.476668,150 165.999654,150 C167.477013,150 169,150.575205 169,151.915676 L169,183.036988 C169,184.329406 167.477013,185 165.999654,185 C164.476668,185 163,184.329406 163,183.036988 L163,151.915676 Z" id="Fill-27" fill="#376363"></path>
                <path d="M191.360781,183.036988 L181.164685,163.789857 L181.164685,183.036988 C181.164685,184.330123 179.599716,185 178.082342,185 C176.517373,185 175,184.330123 175,183.036988 L175,151.96373 C175,150.623258 176.517373,150 178.082342,150 C180.311517,150 181.21228,150.479098 182.682769,153.304201 L191.834605,171.162807 L191.834605,151.915676 C191.834605,150.575205 193.352689,150 194.917658,150 C196.435031,150 198,150.575205 198,151.915676 L198,183.036988 C198,184.330123 196.435031,185 194.917658,185 C193.44788,185 192.167063,184.520902 191.360781,183.036988" id="Fill-29" fill="#376363"></path>
                <path d="M210.299921,165.034221 L217.665435,165.034221 C218.924838,165.034221 219.652171,166.23125 219.652171,167.524385 C219.652171,168.625307 219.022106,169.918443 217.665435,169.918443 L210.299921,169.918443 L210.299921,179.542008 L224.013264,179.542008 C225.273393,179.542008 226,180.834426 226,182.319057 C226,183.611475 225.369935,185 224.013264,185 L206.761977,185 C205.356672,185 204,184.329406 204,183.036988 L204,151.963012 C204,150.670594 205.356672,150 206.761977,150 L224.013264,150 C225.369935,150 226,151.389242 226,152.680943 C226,154.166291 225.273393,155.457992 224.013264,155.457992 L210.299921,155.457992 L210.299921,165.034221 Z" id="Fill-31" fill="#376363"></path>
                <path d="M242.902201,175.416223 C242.902201,168.368789 227.844613,170.530734 227.844613,159.39517 C227.844613,152.395592 233.848957,150 239.24338,150 C242.010508,150 248.156089,150.65731 248.156089,153.758068 C248.156089,154.83904 247.405634,156.999578 245.716407,156.999578 C244.262576,156.999578 243.18327,155.214144 239.24338,155.214144 C235.86563,155.214144 233.943115,156.576619 233.943115,158.832164 C233.943115,164.657873 249,162.637384 249,174.805361 C249,181.524139 244.308953,185 237.835926,185 C231.691047,185 227,181.899946 227,179.174994 C227,177.859671 228.219841,175.886333 229.673672,175.886333 C231.597592,175.886333 232.863809,179.503649 237.648312,179.503649 C240.463221,179.503649 242.902201,178.234774 242.902201,175.416223" id="Fill-33" fill="#376363"></path>
                <path d="M267.902201,175.416223 C267.902201,168.368789 252.844613,170.530734 252.844613,159.39517 C252.844613,152.395592 258.848957,150 264.24338,150 C267.010508,150 273.156089,150.65731 273.156089,153.758068 C273.156089,154.83904 272.405634,156.999578 270.716407,156.999578 C269.262576,156.999578 268.18327,155.214144 264.24338,155.214144 C260.86563,155.214144 258.943115,156.576619 258.943115,158.832164 C258.943115,164.657873 274,162.637384 274,174.805361 C274,181.524139 269.308953,185 262.835926,185 C256.691047,185 252,181.899946 252,179.174994 C252,177.859671 253.219841,175.886333 254.673672,175.886333 C256.597592,175.886333 257.863809,179.503649 262.648312,179.503649 C265.463221,179.503649 267.902201,178.234774 267.902201,175.416223" id="Fill-35" fill="#376363"></path>
                <g id="Group-39" transform="translate(0.000000, 16.000000)">
                    <mask id="mask-2" fill="white">
                        <use xlink:href="#path-1"></use>
                    </mask>
                    <g id="Clip-38"></g>
                    <path d="M21.2489136,12.4443096 C21.0908227,11.5861942 20.8900045,10.6647519 20.6464591,9.67998269 C20.4029136,8.69521346 20.0881561,7.78586731 19.7050348,6.95123269 C19.3204894,6.11730962 18.8925045,5.44277115 18.4189439,4.92690577 C17.9460955,4.41104038 17.4048833,4.209675 16.7967318,4.32352115 C15.7833833,4.51350192 14.9829591,5.44704038 14.4025803,7.12129038 C13.8214894,8.79554038 13.4469136,10.9209058 13.2809894,13.4952519 C13.114353,16.0695981 13.1478227,18.9442135 13.3778379,22.117675 C13.607853,25.2925596 14.03655,28.453925 14.6560955,31.6053288 C15.2485803,34.6194058 15.9792167,37.6071558 16.8415955,40.5671558 C17.7032621,43.5285788 18.5385803,46.1577135 19.3454136,48.4538481 C19.9450197,45.5998673 20.4840955,42.6782904 20.9612167,39.6919635 C21.4376258,36.7063481 21.7872773,33.6823096 22.0066106,30.6226942 C22.2266561,27.5637904 22.2921712,24.5070212 22.1995955,21.4530981 C22.1063076,18.3998865 21.7929742,15.3964827 21.2489136,12.4443096 M22.2024439,55.2077712 C25.5957015,62.7657327 28.9960803,66.221675 32.4904591,65.5862712 C33.8427773,65.3400788 35.0569439,64.6520212 36.1379439,63.5220981 C37.2189439,62.392175 38.1845803,61.0722712 39.034853,59.561675 C39.8851258,58.0525019 40.6043682,56.4871173 41.1918682,54.8655212 C41.7793682,53.2453481 42.2671712,51.8308096 42.6047167,50.6475212 C42.8560955,49.7694827 43.452853,49.2336942 44.4113682,49.0764442 C45.0245045,48.9768288 45.5756864,49.1006365 46.0649136,49.4464442 C46.5520045,49.7908288 46.8354288,50.2056558 46.91305,50.6880788 C46.9572015,50.9641558 46.9379742,51.2139058 46.8567924,51.440175 C46.6830348,52.0684635 46.4181258,52.9151942 46.0634894,53.9810788 C45.708853,55.0462519 45.2530955,56.1996558 44.6976409,57.4405788 C44.1421864,58.6815019 43.5083985,59.9629827 42.7991258,61.2850212 C42.089853,62.6070596 41.2702015,63.8266365 40.3401712,64.9423288 C39.4094288,66.0587327 38.3896712,67.0250019 37.2794742,67.840425 C36.167853,68.6558481 34.9422924,69.1859442 33.5963833,69.4300019 C31.091853,69.884675 28.7973985,69.4883481 26.6959288,68.2353288 C24.5951712,66.9815981 22.5278833,64.6548673 20.4848076,61.2487327 C19.3568076,65.0988673 18.0465045,67.9955404 16.5360955,69.9415981 C15.0242621,71.8890788 13.2154742,73.0830404 11.0926409,73.5320212 C9.97532273,73.7689635 8.86085303,73.8372712 7.7485197,73.7383673 C6.63618636,73.6394635 5.60645909,73.3007712 4.65862576,72.7237135 C3.71150455,72.1459442 2.86194394,71.3234058 2.11350455,70.2560981 C1.36506515,69.1887904 0.799640909,67.8048481 0.418656061,66.101425 C-0.107601515,63.7497904 -0.13964697,61.4863865 0.332489394,59.3076558 C0.804625758,57.1303481 1.61145909,55.1743288 2.75726212,53.4431558 C3.90164091,51.7126942 5.28671667,50.2640019 6.90750455,49.1027712 C8.5275803,47.9415404 10.2281258,47.1794827 12.0005955,46.8194442 C12.5781258,46.7020404 13.1150652,46.7803096 13.6114136,47.0549635 C14.10705,47.3281942 14.4104136,47.7394635 14.5200803,48.2866365 C14.6169288,48.7662135 14.5293379,49.2287135 14.2601561,49.6741365 C13.9902621,50.1202712 13.5758076,50.4361942 13.0146561,50.6204827 C11.892353,50.9911942 10.7323076,51.5675404 9.53879242,52.3502327 C8.34456515,53.1336365 7.30700455,54.1276558 6.42824697,55.3315788 C5.54877727,56.536925 4.92139848,57.9664058 4.54468636,59.6185981 C4.16868636,61.2715019 4.20998939,63.1378673 4.66361061,65.2184058 C5.03533788,66.9239635 5.71185303,68.1705788 6.68532273,68.9589635 C7.65950455,69.7473481 8.87509545,69.986425 10.3342318,69.6783288 C10.9331258,69.551675 11.5384288,69.2727519 12.1522773,68.8415596 C12.7654136,68.4096558 13.3678682,67.6881558 13.9617773,66.6742135 C14.5549742,65.6609827 15.1517318,64.2741942 15.757747,62.512425 C16.36305,60.7527904 16.9776106,58.4737327 17.6092621,55.6795212 C16.3623379,52.7956558 15.0741106,49.4393288 13.7417318,45.612675 C12.4100652,41.7867327 11.2471712,37.444925 10.2644439,32.5865404 C9.83503485,30.4647327 9.46544394,28.2326365 9.15709545,25.8923865 C8.84874697,23.551425 8.65077727,21.2403481 8.56532273,18.9605788 C8.4805803,16.6815212 8.54111061,14.4899827 8.74762576,12.3838288 C8.95485303,10.2790981 9.34438333,8.38711731 9.91835303,6.70859808 C10.4916106,5.03150192 11.2834894,3.64115577 12.2947015,2.54040577 C13.3044894,1.43965577 14.5656561,0.747328846 16.0725045,0.464136538 C17.4169894,0.212963462 18.6147773,0.310444231 19.6651561,0.756578846 C20.7148227,1.203425 21.6341712,1.92421346 22.4210652,2.91680962 C23.207247,3.91011731 23.8809136,5.15530962 24.4406409,6.64954038 C25.0003682,8.14519423 25.4447318,9.82229038 25.7758682,11.6779827 C26.4872773,15.6640212 26.7977621,19.721925 26.7229894,23.8488481 C26.6482167,27.9771942 26.3669288,31.9660788 25.8848227,35.8155019 C25.4027167,39.6656365 24.8180652,43.2525019 24.1287318,46.5796558 C23.4401106,49.904675 22.8013379,52.781425 22.2024439,55.2077712" id="Fill-37" fill="#376363" mask="url(#mask-2)"></path>
                </g>
                <path d="M48.9353105,72.4921298 C50.0400529,71.8486444 51.024498,71.102115 51.8872221,70.2511002 C52.750658,69.400806 53.4631884,68.502953 54.0248133,67.5589824 C54.5864381,66.6150117 54.9900392,65.6508646 55.2370403,64.6658204 C55.4826177,63.6822174 55.5374277,62.7173497 55.3986231,61.773379 C55.2441585,60.7242025 54.8384219,59.9726289 54.1799897,59.5186583 C53.5215575,59.0639671 52.805468,58.8967906 52.0345685,59.0164083 C50.9924662,59.1763789 50.1439784,59.5777465 49.4933762,60.2176289 C48.8420623,60.8567907 48.3516193,61.6335849 48.0213354,62.5451291 C47.6910516,63.4566733 47.5024197,64.446041 47.4547279,65.5089087 C47.4063242,66.572497 47.4632697,67.6108647 47.622717,68.6232913 C47.7223716,69.2509237 47.8939199,69.9037767 48.1373619,70.5804091 C48.3808038,71.2563209 48.6463121,71.8940415 48.9353105,72.4921298 M51.1711326,75.6230859 C52.1221222,76.5101301 53.2653028,77.1615419 54.6006745,77.5809242 C55.9367579,77.999586 57.5070297,78.0723655 59.3157607,77.803586 C61.1615062,77.5290419 62.7801817,76.8754683 64.1767697,75.8378212 C65.5726459,74.8008946 66.8076511,73.5326593 67.8824972,72.0295121 C68.9566314,70.5278061 69.8834192,68.8884678 70.6635723,67.1086147 C71.4430137,65.3309234 72.1341895,63.5662027 72.7342525,61.813732 C72.8773281,61.4029967 73.1100927,61.0794525 73.4325466,60.842379 C73.7542886,60.6053054 74.1265697,60.4597466 74.5508135,60.4064231 C75.204263,60.3235554 75.7594815,60.4683937 76.2143335,60.8394966 C76.6691856,61.209879 76.9261521,61.6415114 76.985233,62.1329526 C77.0065876,62.3087761 77.0044521,62.4600997 76.9809621,62.5869232 C76.9574721,62.7159085 76.9161866,62.8542615 76.8563939,63.0027027 C74.8533364,68.6643648 72.5064706,73.0469828 69.7866118,76.158483 C67.0660413,79.2699832 63.7717449,81.1788215 59.9507029,81.7826745 C57.5027588,82.1696304 55.2761903,82.0334393 53.3386202,81.4252627 C51.40105,80.8185274 49.7361064,79.9048215 48.3445011,78.6827037 C46.9514721,77.4591448 45.8253752,76.00788 44.9683456,74.3231446 C44.111316,72.6384092 43.5340312,70.9082767 43.2428974,69.1298648 C42.9517636,67.351453 42.9211554,65.6724823 43.1574792,64.0922321 C43.3923793,62.5127026 43.8728568,61.0895408 44.6003354,59.8241877 C45.327814,58.5588347 46.2716854,57.5103788 47.4312378,56.6809816 C48.5907903,55.8515845 49.9290092,55.3176286 51.4416237,55.084158 C52.3328205,54.9465256 53.2403892,54.9775109 54.1614824,55.1785551 C55.0818638,55.3788786 55.9360461,55.7341286 56.721182,56.242864 C57.5056061,56.7515993 58.1725801,57.4130993 58.722104,58.2259229 C59.2716279,59.0387465 59.6239781,60.005776 59.7827137,61.1248496 C59.985582,62.5602614 59.9072819,63.9466733 59.5506608,65.2833646 C59.1940397,66.621497 58.6274321,67.9019824 57.8522617,69.1248207 C57.0763795,70.347659 56.1111535,71.5121297 54.9572956,72.6182327 C53.8041495,73.7250563 52.5420952,74.726674 51.1711326,75.6230859" id="Fill-40" fill="#376363"></path>
                <g id="Group-44" transform="translate(68.000000, 0.000000)">
                    <mask id="mask-4" fill="white">
                        <use xlink:href="#path-3"></use>
                    </mask>
                    <g id="Clip-43"></g>
                    <path d="M5.98722264,41.9755582 C6.26039245,44.1850855 6.58231698,46.3017218 6.95156226,48.3247582 C7.32080755,50.3485036 7.71658113,52.2800673 8.14103396,54.1208673 C9.43805283,51.1263764 10.6519019,47.96454 11.7847321,44.6303945 C12.9168453,41.2976673 13.8847698,37.9521764 14.6827698,34.5925036 C15.4814868,31.23354 16.0658264,27.9171218 16.4279019,24.64254 C16.7885434,21.3679582 16.8200906,18.2770309 16.5096377,15.3718855 C16.0722792,11.2910673 15.3682038,8.40648545 14.3923925,6.72664909 C13.4158642,5.04610364 12.2593736,4.27744909 10.9329585,4.42281273 C10.0625434,4.51854 9.27888302,5.11417636 8.58771321,6.20759455 C7.8965434,7.30101273 7.30144906,8.75181273 6.80529811,10.5592855 C6.30914717,12.3688855 5.91624151,14.4812673 5.62658113,16.89714 C5.33620377,19.3130127 5.16484528,21.8919764 5.10892075,24.6304855 C5.05227925,27.3689945 5.09529811,30.2216673 5.23726038,33.1821218 C5.37778868,36.1447036 5.62873208,39.0746673 5.98722264,41.9755582 M37.6311849,59.8120309 C37.2741283,60.6459218 36.8245811,61.6351036 36.2846943,62.7817036 C35.7440906,63.9290127 35.1239019,65.1266673 34.4248453,66.3760855 C33.7250717,67.6269218 32.9320906,68.8770491 32.0480528,70.1293036 C31.1632981,71.3829764 30.1860528,72.5231945 29.1156,73.5520855 C28.0444302,74.5823945 26.8850717,75.4481945 25.6353736,76.1516127 C24.3849585,76.85574 23.0226943,77.2861582 21.5449962,77.4442855 C19.2707321,77.6860855 17.2488453,77.2634673 15.4671472,76.1728855 C13.6847321,75.0808855 12.0959019,73.5683945 10.6970717,71.6325764 C9.29824151,69.6974673 8.07435472,67.4553218 7.02971321,64.9018855 C5.98435472,62.3484491 5.08956226,59.7248127 4.34963774,57.0302673 C3.61043019,54.3364309 3.00243019,51.7028673 2.53137358,49.1331218 C2.06031698,46.5626673 1.6946566,44.2765582 1.43582642,42.2747945 C1.06156226,39.3760309 0.783373585,36.3602673 0.603411321,33.2275036 C0.423449057,30.09474 0.386166038,27.0130309 0.494430189,23.9845036 C0.60269434,20.9552673 0.867260377,18.0657218 1.29243019,15.3144491 C1.71688302,12.5638855 2.33348679,10.1231945 3.14224151,7.99379455 C3.95099623,5.86652182 4.97341132,4.13421273 6.20661887,2.80183091 C7.43910943,1.46944909 8.93473208,0.705049091 10.6834491,0.512885455 C12.0586189,0.362558182 13.3283925,0.498703636 14.4884679,0.918485455 C15.6485434,1.33755818 16.6673736,2.11614 17.5406566,3.25139455 C18.4146566,4.38594 19.1567321,5.90268545 19.7676,7.79950364 C20.3784679,9.69632182 20.8244302,12.0462491 21.1090717,14.8499945 C21.4603925,18.3117764 21.3929962,21.9274309 20.9240906,25.6983764 C20.4551849,29.4693218 19.6973358,33.2977036 18.6634491,37.1835218 C17.6288453,41.0700491 16.3540528,44.97714 14.8512604,48.9062127 C13.3477509,52.8367036 11.7230717,56.6906127 9.98152453,60.4707764 C11.482166,64.74234 13.1814113,68.0374855 15.0799774,70.3597582 C16.9778264,72.6834491 19.0384302,73.7222673 21.286166,73.4825945 C22.809034,73.3202127 24.2171849,72.6238855 25.5177887,71.3900673 C26.8176755,70.1583764 27.9899396,68.7409036 29.0338642,67.1376491 C30.0777887,65.5358127 30.9819019,63.9219218 31.7447698,62.2959764 C32.5062038,60.6721582 33.0998642,59.3695582 33.5192981,58.3888855 C33.6813358,58.0258309 33.9294113,57.7329764 34.2613736,57.5110309 C34.5940528,57.2897945 34.9740528,57.1600309 35.4013736,57.1224491 C36.0624302,57.0650127 36.6159396,57.2273945 37.0597509,57.6088855 C37.5035623,57.9896673 37.7473358,58.4413582 37.7925057,58.9604127 C37.8104302,59.1688855 37.7566566,59.4525218 37.6311849,59.8120309" id="Fill-42" fill="#376363" mask="url(#mask-4)"></path>
                </g>
                <path d="M105.416338,33.5646342 C105.376371,33.0806986 105.13657,32.6751818 104.694131,32.3466708 C104.253093,32.0188662 103.756663,31.8782777 103.207645,31.9256115 C102.657926,31.9729454 102.202866,32.1954851 101.842463,32.5918177 C101.481359,32.9895633 101.322894,33.4296974 101.364965,33.91222 C101.407035,34.3961556 101.638422,34.7931947 102.059125,35.1040438 C102.479829,35.4155995 102.962235,35.5470039 103.509851,35.49967 C104.056765,35.4523362 104.520941,35.2403936 104.902379,34.8596034 C105.284518,34.4802262 105.456305,34.0492762 105.416338,33.5646342 M101.915385,64.4474951 C101.469439,59.4774414 101.364264,54.4939647 101.618789,49.4942391 C101.652445,49.0039452 101.855785,48.5602787 102.227407,48.1611202 C102.599729,47.7633746 103.112987,47.5344766 103.767181,47.4779586 C104.344947,47.4277988 104.84348,47.5867558 105.260678,47.9498841 C105.677875,48.3137189 105.908561,48.7559724 105.951333,49.2738188 C105.968862,49.480816 105.972368,50.1074596 105.962551,51.1516301 C105.953436,52.1950941 105.941516,53.4413165 105.927493,54.8846455 C105.913469,56.3293875 105.927493,57.8589065 105.968161,59.4724961 C106.008128,61.0846727 106.085256,62.5661514 106.198846,63.9126933 C106.352403,65.7438773 106.674241,67.2027487 107.162257,68.2914272 C107.649572,69.3808121 108.225935,70.2102141 108.893451,70.7810461 C109.560967,71.3511717 110.247415,71.712887 110.954197,71.8647792 C111.660277,72.0166714 112.329897,72.0682441 112.965159,72.0187908 C114.008503,71.9375461 115.06517,71.5108351 116.13586,70.7365381 C117.205849,69.9629477 118.28916,68.9131254 119.386495,67.5877778 C120.483128,66.2610172 121.578359,64.6869902 122.675694,62.8621645 C123.772327,61.0387518 124.846523,59.018939 125.898983,56.8034324 C126.069368,56.4466624 126.319686,56.1619529 126.651341,55.9514232 C126.982995,55.7416001 127.357421,55.6243252 127.777423,55.5995985 C128.386041,55.5649813 128.902805,55.7451325 129.324911,56.1379327 C129.747016,56.530733 129.97069,56.9708671 129.996634,57.4548027 C130.015565,57.801682 129.954563,58.0998146 129.815731,58.3499069 C129.403442,59.1708311 128.88808,60.1712002 128.27175,61.3510139 C127.655419,62.5322406 126.948638,63.7530299 126.155612,65.0162077 C125.360483,66.2793855 124.48542,67.539031 123.530423,68.7979699 C122.575426,70.0562024 121.551715,71.2006924 120.459989,72.2293204 C119.366862,73.2600679 118.210629,74.1127836 116.989187,74.7924128 C115.767745,75.4713356 114.50914,75.8620164 113.210569,75.9630424 C111.539676,76.0923273 110.048282,75.8825042 108.731481,75.3321599 C107.414679,74.7818157 106.270366,73.9933892 105.299242,72.9654677 C104.329521,71.9368397 103.559634,70.6927367 102.99519,69.2296264 C102.432149,67.7672225 102.070344,66.1741207 101.915385,64.4474951 M108.704836,33.2968801 C108.807207,34.6109241 108.375285,35.7667177 107.416081,36.7649673 C106.456177,37.7639233 105.23824,38.3248647 103.759468,38.4520303 C102.280696,38.5791958 100.987033,38.2337294 99.8728701,37.4128051 C98.7580061,36.5918808 98.138871,35.5265161 98.0189706,34.2145915 C97.9593709,33.5603953 98.0400057,32.9337518 98.2636797,32.339606 C98.4859513,31.7447538 98.8239163,31.209952 99.2768736,30.7330812 C99.7291298,30.2576233 100.269734,29.8697684 100.897984,29.5702229 C101.526234,29.2720903 102.214084,29.0891132 102.962235,29.024824 C103.709685,28.9598282 104.419271,29.0227045 105.088891,29.210627 C105.757809,29.3985494 106.35661,29.6889107 106.881788,30.0795916 C107.406966,30.4709789 107.830474,30.9429044 108.149508,31.4897163 C108.468541,32.0379411 108.654352,32.641271 108.704836,33.2968801" id="Fill-45" fill="#376363"></path>
                <path d="M149.794059,55.7955162 C149.282262,58.2815949 148.516723,60.607351 147.50463,62.7756603 C146.491819,64.9446885 145.41072,66.8433969 144.259895,68.4739425 C143.108352,70.1052069 141.943152,71.4043233 140.757824,72.3720103 C139.572497,73.3389785 138.5144,73.9177215 137.671948,73.990334 C136.721673,74.0722926 135.561504,73.6301473 134.312202,72.7746142 C133.0629,71.919081 131.848101,70.7019233 130.664212,69.124579 C129.481041,67.5465158 128.456009,65.6521209 127.591274,63.4421134 C126.726538,61.2321059 126.211147,58.8056989 126.055164,56.165768 C125.917152,53.8414498 126.037913,52.068555 126.419604,50.8449269 C126.801295,49.6220177 127.047849,48.9188989 127.155671,48.7355704 C127.333938,48.4077358 127.586242,48.1460433 127.911147,47.9504929 C128.236052,47.7556614 128.615586,47.6456643 129.049751,47.6219394 C129.719688,47.5852737 130.26455,47.759975 130.679307,48.1431676 C131.094064,48.527798 131.31474,48.9670676 131.340617,49.4595383 C131.359307,49.8125356 131.295332,50.1159264 131.151569,50.3697106 C131.116347,50.4437609 130.963958,50.9283234 130.697277,51.8248359 C130.429878,52.7220673 130.344339,54.0513789 130.439222,55.8113328 C130.551358,57.8904941 130.888482,59.7963919 131.447002,61.531902 C132.004803,63.2695689 132.643831,64.7541706 133.364084,65.9900206 C134.083619,67.2237138 134.814655,68.1856494 135.560786,68.8729516 C136.305479,69.5609728 136.907128,69.8945589 137.36717,69.8737097 C137.674104,69.859331 138.111863,69.5746326 138.684041,69.0196144 C139.255499,68.4645963 139.858586,67.7154656 140.494019,66.7707844 C141.128733,65.8261033 141.778543,64.7060019 142.444166,63.4083235 C143.10979,62.1120829 143.715033,60.7036884 144.263489,59.18314 C144.810508,57.6640294 145.241079,56.0600845 145.554483,54.372743 C145.866449,52.6854016 145.995117,50.9786489 145.935455,49.2503281 C145.923954,48.8994876 145.901671,48.5558365 145.870762,48.2215315 C145.839134,47.8872266 145.817569,47.5435754 145.806068,47.1905781 C145.785223,46.5924239 145.97499,46.0826986 146.376089,45.6628404 C146.777189,45.243701 147.314144,45.0229878 147.986956,45.0014198 C148.50019,44.9848843 148.971015,45.1128548 149.393678,45.3817366 C149.817061,45.6513374 150.095243,46.0316542 150.228224,46.5212493 C150.227505,46.4874593 150.313763,46.7656873 150.489154,47.3609658 C150.663107,47.9562444 150.95279,48.7154402 151.351733,49.6385533 C151.750676,50.5616663 152.250253,51.5638623 152.84687,52.6408276 C153.442768,53.7185118 154.15224,54.7163942 154.974565,55.63088 C155.796171,56.5468038 156.739977,57.3110321 157.803105,57.924284 C158.866953,58.5375359 160.07672,58.8330184 161.438157,58.8114503 C162.175662,58.8006663 162.815409,58.6504088 163.356677,58.3606778 C163.897227,58.0716658 164.341455,57.7495827 164.687924,57.3922718 C165.034393,57.0356798 165.293886,56.6970613 165.465683,56.3785729 C165.638199,56.0586466 165.724456,55.8817885 165.723738,55.8465607 C165.875408,55.4576166 166.135619,55.1470365 166.505809,54.9126635 C166.873843,54.6804474 167.293632,54.561823 167.763018,54.5582284 C168.387669,54.5531958 168.917437,54.7537788 169.349445,55.1563826 C169.780735,55.5589865 169.997817,56.0255756 169.999973,56.555431 C170.001411,56.8020258 169.944625,57.0493396 169.828895,57.2966534 C169.597436,57.7919999 169.259593,58.3570832 168.817521,58.9947789 C168.374012,59.6324746 167.806147,60.2370993 167.11249,60.8072151 C166.419551,61.3773309 165.600101,61.8525472 164.656296,62.233583 C163.712491,62.6146187 162.660863,62.8144828 161.500694,62.8324562 C160.145726,62.8533053 158.885642,62.656317 157.71541,62.2386155 C156.545178,61.821633 155.476298,61.2809935 154.509491,60.6166972 C153.541965,59.9516819 152.657821,59.1989565 151.856342,58.3570832 C151.054862,57.5152098 150.366236,56.6618334 149.794059,55.7955162" id="Fill-47" fill="#376363"></path>
                <path d="M171.05221,62.3849888 C172.227064,61.9327187 173.299664,61.3631674 174.269307,60.6735257 C175.238949,59.9859909 176.069668,59.2296323 176.759348,58.4058546 C177.449028,57.5806724 177.987091,56.7140554 178.375653,55.8024924 C178.762805,54.8923339 178.961669,53.9716412 178.967311,53.0411165 C178.973658,52.0080586 178.69017,51.2222042 178.115436,50.6856601 C177.539998,50.1484138 176.865832,49.8780349 176.09576,49.8759281 C175.054188,49.8738212 174.167053,50.131559 173.435062,50.6491414 C172.703775,51.1653192 172.109296,51.8388084 171.65092,52.6675021 C171.191839,53.4954935 170.858987,54.4189953 170.65307,55.4351985 C170.447154,56.4528062 170.347016,57.460582 170.351247,58.4599304 C170.354068,59.0800461 170.423882,59.7352759 170.559985,60.4228108 C170.696087,61.1117502 170.859692,61.7648731 171.05221,62.3849888 M172.765127,65.7390913 C173.560586,66.7377374 174.579592,67.5383398 175.820734,68.1437076 C177.061171,68.7497776 178.583685,69.0573774 180.390393,69.0721254 C182.233066,69.0875756 183.911428,68.7027246 185.431122,67.9154657 C186.949405,67.1282067 188.34569,66.0937441 189.621386,64.8085667 C190.895672,63.5247938 192.046549,62.0865186 193.075428,60.4909322 C194.103601,58.8967503 195.043625,57.3018661 195.892679,55.7041728 C196.094364,55.3305584 196.370801,55.0545612 196.720577,54.8747769 C197.071059,54.6949925 197.4568,54.6114208 197.879211,54.6233596 C198.530105,54.6437258 199.051244,54.8670517 199.439806,55.2926351 C199.829073,55.7182185 200.015245,56.1732977 199.999025,56.6550637 C199.993384,56.8278252 199.968702,56.9731978 199.927095,57.0918836 C199.884784,57.2119739 199.823432,57.3383848 199.74304,57.4739254 C196.936366,62.6230627 193.986539,66.4877248 190.862528,69.0728277 C187.738517,71.6586328 184.234407,72.9971838 180.413664,72.9999929 C177.96523,73.0020998 175.812272,72.5336772 174.011911,71.6551214 C172.212255,70.7765657 170.72359,69.6458904 169.548736,68.2567751 C168.373177,66.868362 167.491684,65.2994623 166.907078,63.5472668 C166.323177,61.7957736 166.018533,60.0414712 166.000904,58.2843597 C165.983979,56.5279505 166.204705,54.9070819 166.672249,53.4203492 C167.137677,51.9350212 167.8196,50.6372026 168.719428,49.5282981 C169.617845,48.4200959 170.696792,47.5541812 171.952743,46.9305541 C173.207989,46.306927 174.594401,45.996518 176.106338,46.0000295 C176.996998,46.0028386 177.877786,46.1699819 178.74729,46.5028639 C179.61609,46.835746 180.396034,47.3062754 181.08642,47.9151546 C181.776805,48.524736 182.328972,49.2628352 182.743626,50.1280476 C183.15828,50.9939623 183.35785,51.979265 183.345157,53.0811467 C183.328232,54.4934373 183.043334,55.8158358 182.495398,57.0504489 C181.946757,58.285062 181.201366,59.432592 180.261342,60.493039 C179.319908,61.5527837 178.203585,62.5275522 176.91167,63.4187491 C175.619754,64.3092436 174.238278,65.0831592 172.765127,65.7390913" id="Fill-49" fill="#376363"></path>
                <path d="M198.605823,47.4245367 C198.612904,47.1782941 198.613612,46.8506906 198.605823,46.4446063 C198.598742,46.0385219 198.571125,45.6396377 198.524389,45.2493935 C198.477653,44.8591493 198.408965,44.5207457 198.32045,44.2356227 C198.231227,43.9504996 198.127842,43.8057781 198.010294,43.8021781 C197.893454,43.798578 197.743332,43.9267394 197.559929,44.1866622 C197.377234,44.4458649 197.1825,44.7583483 196.977145,45.1233922 C196.77179,45.4891561 196.585555,45.8815602 196.419146,46.2998847 C196.25203,46.7189292 196.125276,47.0695729 196.039594,47.3496559 C197.066369,47.3784562 197.579756,47.3928564 198.605823,47.4245367 M202.376566,51.4731399 C202.188914,52.41995 201.965147,53.3055595 201.705267,54.1270882 C201.446803,54.947897 201.200377,55.6643046 200.968822,56.2741511 C200.736558,56.8854377 200.537576,57.382963 200.372584,57.7652871 C200.206176,58.1490511 200.10279,58.3578534 200.063843,58.3902537 C199.653842,59.1909023 198.971213,59.5739464 198.014542,59.545146 C197.477079,59.5285859 196.985643,59.3284237 196.535986,58.9446596 C196.08633,58.5608955 195.868229,58.0871305 195.883807,57.5212044 C195.889472,57.3095222 195.931959,57.1525605 196.011269,57.0481594 C196.091287,56.9444783 196.212375,56.7363961 196.374535,56.4224727 C196.536694,56.1092694 196.744882,55.5851038 196.996973,54.8499759 C197.248356,54.1155681 197.570551,52.976516 197.963558,51.4328195 C197.305713,51.4133793 196.62875,51.3759389 195.934084,51.3219383 C195.239417,51.2679377 194.592903,51.1268162 193.999498,50.9000138 C193.404677,50.6732114 192.918906,50.3254477 192.541478,49.8574427 C192.164757,49.3901577 191.983479,48.7500709 192.001182,47.9371822 C192.014636,47.3374158 192.21645,46.5288472 192.610165,45.5136363 C193.002464,44.4991455 193.524349,43.5040949 194.173696,42.5306445 C194.822334,41.5579141 195.549574,40.7198252 196.353999,40.0178177 C197.157008,39.3165302 197.953644,38.9774066 198.73895,39.0011668 C199.642512,39.0285271 200.369752,39.3525306 200.919253,39.9717372 C201.468047,40.5916638 201.884422,41.3397518 202.168378,42.2152811 C202.452334,43.0900905 202.644235,44.0073802 202.748329,44.9657105 C202.851715,45.9233207 202.890661,46.7556496 202.865877,47.4612571 C203.526554,47.4850174 204.178733,47.5001375 204.82029,47.5080576 C205.461847,47.5152577 206.074372,47.5310978 206.657863,47.5555781 C208.873573,47.6462991 210.546154,48.1647046 211.669233,49.1014346 C212.792312,50.0388846 213.302867,51.5156204 213.206563,53.5266018 C213.167616,54.3380505 213.069188,55.1818995 212.911985,56.0574288 C212.754074,56.9336782 212.576336,57.8365678 212.37877,58.7632177 C212.181204,59.6905876 212.004174,60.6107574 211.846263,61.5222871 C211.68906,62.4345369 211.589215,63.3309464 211.548853,64.2129559 C211.48937,65.4830494 211.630995,66.5421807 211.970892,67.3896298 C212.31079,68.2370788 212.753366,68.9218061 213.296494,69.4452517 C213.839623,69.9686973 214.426655,70.3423813 215.059007,70.5699037 C215.691358,70.7988661 216.271309,70.9277475 216.800275,70.9565478 C218.423996,71.0465488 219.980445,70.6426245 221.476704,69.7440549 C222.972255,68.8454853 224.37221,67.7402735 225.677276,66.4291395 C226.982342,65.1172855 228.175526,63.7219106 229.256118,62.2394148 C230.335294,60.759799 231.244521,59.4616252 231.980966,58.3470533 C232.195527,58.04393 232.481608,57.8185676 232.839917,57.668086 C233.198934,57.5176044 233.569989,57.4571238 233.954499,57.4866441 C234.646332,57.5392046 235.168925,57.7840073 235.52157,58.2181719 C235.874214,58.6523365 236.032125,59.1174615 235.994594,59.6106667 C235.967686,59.9634705 235.866424,60.2745138 235.692227,60.5437967 C234.700858,61.9182914 233.557951,63.4670279 232.266339,65.1950463 C230.973311,66.9223448 229.536534,68.5265219 227.954592,70.0082977 C226.372651,71.4915135 224.636339,72.7212866 222.74424,73.6976171 C220.850726,74.6746675 218.820544,75.100912 216.641656,74.9799507 C215.289146,74.90579 214.023734,74.6005067 212.843297,74.063381 C211.662152,73.5269752 210.649539,72.7889674 209.804043,71.8479173 C208.957839,70.9068673 208.297162,69.7642151 207.822722,68.4170807 C207.347573,67.0706664 207.142926,65.5694503 207.210905,63.9098326 C207.283842,62.1450938 207.546555,60.3983552 208.003292,58.6674567 C208.459322,56.9379982 208.723451,55.2783805 208.791431,53.6907636 C208.819756,53.0204364 208.676715,52.509231 208.36231,52.1607472 C208.048612,51.8115435 207.32987,51.6113814 206.208206,51.5660209 C205.666494,51.5444207 205.07663,51.5206604 204.438613,51.4961802 C203.799888,51.4716999 203.112303,51.4644998 202.376566,51.4731399" id="Fill-51" fill="#376363"></path>
                <path d="M239.497088,32.8963281 C239.535776,32.4128292 239.363437,31.973798 238.978664,31.5785288 C238.594593,31.1832596 238.126112,30.963744 237.57533,30.9206879 C237.023142,30.8776318 236.537075,31.0230344 236.116427,31.3547782 C235.695075,31.6872278 235.467165,32.0952021 235.430587,32.5787011 C235.394009,33.0622 235.559314,33.4920553 235.925799,33.8668552 C236.29158,34.2423609 236.748806,34.4505831 237.298181,34.4936392 C237.846853,34.5359895 238.340657,34.4025861 238.779594,34.0891941 C239.218532,33.7779196 239.458399,33.3805329 239.497088,32.8963281 M231.052469,62.773739 C231.41192,57.8004055 232.111828,52.870128 233.169779,47.9822008 C233.282327,47.5050544 233.554552,47.0999034 233.987159,46.7674538 C234.419765,46.43571 234.964216,46.2945424 235.621215,46.3453628 C236.200838,46.3898305 236.668615,46.6269921 237.023142,47.054024 C237.377668,47.48035 237.534532,47.9539673 237.493733,48.4713464 C237.477554,48.6788627 237.379778,49.2964709 237.201812,50.3241708 C237.023845,51.3511649 236.811411,52.5779111 236.565212,53.9987627 C236.31831,55.421026 236.085476,56.9322249 235.865304,58.5288301 C235.645132,60.1254354 235.481937,61.598519 235.37783,62.9445518 C235.235035,64.7747894 235.318039,66.2662248 235.624733,67.418858 C235.932129,68.5721971 236.368956,69.4841396 236.938027,70.1553914 C237.506395,70.8266432 238.127519,71.2939079 238.802807,71.5593029 C239.477392,71.8239921 240.132281,71.9849232 240.76888,72.0392727 C241.815577,72.1296199 242.930506,71.8804592 244.115777,71.2924962 C245.300345,70.7045333 246.542594,69.8462344 247.843227,68.7183055 C249.143157,67.588965 250.481775,66.2154045 251.864005,64.5955066 C253.244125,62.9763145 254.634093,61.1601937 256.034612,59.1478499 C256.260412,58.8231645 256.555147,58.5852972 256.917411,58.4314245 C257.279675,58.2775519 257.670076,58.2232023 258.090021,58.2676701 C258.698483,58.3326072 259.181736,58.5944731 259.536966,59.0511501 C259.891492,59.5071214 260.042025,59.9772094 259.989972,60.4592967 C259.951987,60.8037456 259.844363,61.0874924 259.666396,61.3119488 C259.125462,62.0544903 258.452988,62.9558452 257.651787,64.018837 C256.850586,65.0825347 255.953719,66.1716425 254.963296,67.2868663 C253.97217,68.402796 252.90226,69.5017856 251.752864,70.5866584 C250.603467,71.672237 249.404831,72.6335882 248.157658,73.4693002 C246.909078,74.3064239 245.626031,74.9593239 244.306405,75.4301178 C242.98678,75.9009116 241.677706,76.0801945 240.375666,75.9672604 C238.701514,75.8232695 237.258086,75.3736508 236.043271,74.6155809 C234.828455,73.8582169 233.823261,72.8947482 233.02839,71.7230573 C232.23352,70.5513665 231.672187,69.1989811 231.350018,67.6644896 C231.027849,66.1307039 230.926556,64.5009243 231.052469,62.773739 M242.796152,33.1694874 C242.685714,34.4809341 242.071624,35.5502785 240.960916,36.3782263 C239.8488,37.2061741 238.553091,37.5605047 237.068864,37.4447473 C235.584637,37.3289899 234.359271,36.7777305 233.389951,35.7867342 C232.419224,34.795032 231.978177,33.6452221 232.071029,32.3316578 C232.117455,31.6759344 232.298235,31.0724431 232.614777,30.5225954 C232.931318,29.9727477 233.351966,29.4998363 233.876721,29.1038613 C234.400773,28.7085921 234.998684,28.4142577 235.668345,28.2215639 C236.338709,28.029576 237.049168,27.9618156 237.799723,28.0204001 C238.550278,28.0789847 239.242448,28.2568558 239.874827,28.5504844 C240.507206,28.8448188 241.052361,29.2280887 241.509587,29.7002943 C241.966813,30.1717939 242.310085,30.7054074 242.537291,31.2968995 C242.765201,31.8883916 242.851019,32.5144698 242.796152,33.1694874" id="Fill-53" fill="#376363"></path>
                <path d="M267.811893,72.7143446 C268.55744,71.6398494 269.416641,70.4654011 270.388067,69.1895719 C271.359493,67.9158845 272.395253,66.6322018 273.49463,65.3413796 C274.594007,64.0498435 275.74628,62.7761561 276.949305,61.5196035 C278.151615,60.2644789 279.401102,59.0686121 280.692763,57.9855494 C281.963695,56.9196216 283.236056,56.1992457 284.45838,55.8201381 C285.679275,55.4410304 286.797952,55.3239426 287.810123,55.4681606 C289.832319,55.7551686 291.23549,56.6354693 292.009629,58.0933559 C292.783768,59.5533843 293.0218,61.254728 292.730157,63.194531 C292.662965,63.6450336 292.55217,64.186208 292.398486,64.818054 C292.244802,65.450614 292.084684,66.1252971 291.918134,66.8442451 C291.750868,67.563193 291.583603,68.2914224 291.414908,69.0267912 C291.246213,69.7635879 291.112543,70.4611174 291.0139,71.1186657 C290.890237,71.9504178 290.819471,72.7550398 290.800171,73.5303899 C290.780872,74.3057399 290.86093,74.9996996 291.041062,75.6115551 C291.220479,76.2226965 291.532851,76.7303152 291.973889,77.1329832 C292.415641,77.5363651 293.034666,77.7990989 293.829535,77.9211844 C295.267017,78.1432229 296.745958,77.8512172 298.272792,77.0487371 C299.79891,76.2462569 301.258551,75.2410148 302.648856,74.0330109 C304.039161,72.823579 305.289363,71.5677404 306.393744,70.2612113 C307.49884,68.9561101 308.340885,67.8916102 308.917737,67.0662836 C309.174353,66.7193038 309.503881,66.4737048 309.904174,66.3294869 C310.304468,66.184555 310.716198,66.1488574 311.139365,66.2216804 C311.792701,66.3351985 312.28449,66.644339 312.611158,67.1455321 C312.938541,67.6474392 313.058629,68.1407789 312.973567,68.6234093 C312.930678,68.8647245 312.832034,69.1074676 312.673347,69.316655 C312.484637,69.5651098 312.064329,70.0820098 311.455311,70.8637854 C310.844864,71.646275 310.070725,72.5330013 309.134324,73.5268201 C308.197923,74.519925 307.127853,75.5630064 305.929118,76.6567783 C304.728952,77.7512642 303.448728,78.716525 302.087731,79.5568446 C300.726018,80.3978781 299.303547,81.0547124 297.818173,81.5259196 C296.331368,81.9971268 294.838846,82.1170704 293.333457,81.8857505 C291.639358,81.6237308 290.310527,81.1146842 289.345534,80.3507573 C288.379111,79.5889723 287.665731,78.6686904 287.204679,77.5934812 C286.743627,76.518272 286.492728,75.3666701 286.456273,74.1408174 C286.419818,72.9149647 286.48844,71.6955375 286.662853,70.481822 C286.737908,69.9627801 286.850848,69.3766269 287.003103,68.7262181 C287.155357,68.0765233 287.331915,67.3932729 287.532777,66.6793225 C287.733638,65.9653722 287.915914,65.2478521 288.078891,64.5281902 C288.241868,63.8092422 288.370533,63.1202802 288.466318,62.461304 C288.626435,61.3518252 288.541373,60.5693356 288.21256,60.1159772 C287.883748,59.6626187 287.562799,59.4120222 287.254001,59.3684712 C286.633546,59.2806553 285.880851,59.501266 284.998776,60.031731 C284.115986,60.563624 283.168149,61.2897115 282.158123,62.2128493 C281.148097,63.1352731 280.103045,64.1883498 279.027971,65.3692237 C277.952183,66.5515254 276.937868,67.7345411 275.987171,68.9175568 C275.035045,70.1012864 274.153684,71.2328977 273.338801,72.3123906 C272.524633,73.3911696 271.88059,74.290033 271.405956,75.0075531 C270.463837,76.3726261 269.586765,77.2607803 268.769023,77.6727297 C267.950566,78.083965 267.14712,78.243176 266.352967,78.1489345 C265.257163,78.0189956 264.414403,77.610616 263.823255,76.9259376 C263.231393,76.2412593 262.998365,75.3423958 263.126316,74.2286333 C263.154193,73.9851762 263.246404,73.5103993 263.404377,72.8064442 C263.56235,72.1024892 263.755348,71.2600278 263.984802,70.2819159 C264.212826,69.30309 264.450858,68.2457295 264.698897,67.1112625 C264.946221,65.9760815 265.192831,64.8501818 265.43944,63.7328495 C265.686049,62.6155173 265.904781,61.5738637 266.095635,60.6086029 C266.286489,59.64477 266.420159,58.8315805 266.497358,58.1697486 C266.598146,57.3001571 266.657475,56.4598376 266.672486,55.6516458 C266.687498,54.843454 266.588854,54.3372632 266.375126,54.1359292 C266.012717,54.1994708 265.313633,54.7806264 264.283593,55.8801099 C263.253552,56.9795934 261.87111,58.9658032 260.152708,61.843737 C259.917535,62.2057098 259.596586,62.4705854 259.189144,62.6383637 C258.780988,62.8047141 258.365684,62.8668278 257.942516,62.8218489 C257.287036,62.7518818 256.788099,62.4962876 256.445705,62.0564942 C256.101881,61.6167008 255.956775,61.1340703 256.011101,60.6121727 C256.036119,60.3687156 256.121181,60.1131214 256.266288,59.8468179 C258.392846,56.2991987 260.333555,53.7332613 262.069827,52.1440078 C263.80467,50.5561823 265.443729,49.8500854 266.969847,50.0264312 C267.869793,50.129954 268.610335,50.4205318 269.187902,50.8945948 C269.764753,51.3686578 270.200787,51.9605226 270.491714,52.6637637 C270.781927,53.3684326 270.966348,54.1330734 271.044262,54.9534024 C271.122177,55.7744452 271.10931,56.6026276 271.007807,57.4365216 C270.931322,58.062656 270.763342,59.0300587 270.506725,60.3394436 C270.248679,61.6495425 269.950604,63.050313 269.613928,64.5446111 C269.276538,66.0374812 268.950585,67.5246397 268.636069,69.0039448 C268.321552,70.4832499 268.047065,71.7198118 267.811893,72.7143446" id="Fill-55" fill="#376363"></path>
                <g id="Group-59" transform="translate(298.000000, 60.000000)">
                    <mask id="mask-6" fill="white">
                        <use xlink:href="#path-5"></use>
                    </mask>
                    <g id="Clip-58"></g>
                    <path d="M21.1580583,42.2589789 C19.0203083,44.1532421 17.024225,46.2855316 15.166975,48.6508737 C13.309725,51.0162158 11.660725,53.4511895 10.2136,55.9515316 C8.76576667,58.4504526 7.56514167,60.9188211 6.60535,63.3488211 C5.64485,65.7795316 4.992475,67.9914 4.64114167,69.9822947 C4.41730833,71.2512947 4.35143333,72.2844 4.44493333,73.0794789 C4.537725,73.8745579 4.71339167,74.5083474 4.96980833,74.9794263 C5.22693333,75.4497947 5.54214167,75.7901368 5.91755833,75.9997421 C6.29155833,76.2086368 6.65280833,76.3457684 7.0006,76.4090053 C8.07585,76.6051105 9.09089167,76.3500316 10.049975,75.6423474 C11.00835,74.9346632 11.9015583,73.9235842 12.7267667,72.6091105 C13.5533917,71.2939263 14.3191,69.7449789 15.0217667,67.9636895 C15.7244333,66.1824 16.35485,64.3236632 16.9080583,62.3903211 C17.461975,60.4562684 17.9627667,58.5207947 18.4090167,56.5831895 C18.8545583,54.6470053 19.2356417,52.8564789 19.55085,51.2137421 C19.833475,49.7415316 20.1168083,48.2693211 20.3994333,46.7985316 C20.6820583,45.3263211 20.9349333,43.8136105 21.1580583,42.2589789 M27.52385,31.8405316 C34.2416833,26.4249 40.9382667,20.7293211 46.4661,14.0603211 C46.7366833,13.7270842 47.0533083,13.5018474 47.415975,13.3853211 C47.777225,13.2695053 48.1668083,13.2567158 48.5833083,13.3490842 C49.226475,13.4911895 49.7131,13.8045316 50.0417667,14.2884 C50.3704333,14.7715579 50.4781,15.2703474 50.3640583,15.7797947 C50.3109333,16.0185316 50.2011417,16.2444789 50.0353917,16.4569263 C47.6192667,19.4873211 44.4402667,22.7621368 40.5345167,26.3083737 C36.6280583,29.8546105 31.8510583,33.8022947 26.2665583,38.1997421 C25.84085,40.3540579 25.4342667,42.5119263 25.043975,44.6726368 C24.6551,46.8326368 24.2060167,49.1965579 23.6981417,51.7608474 C23.1916833,54.3244263 22.6264333,56.8510579 22.005225,59.3393211 C21.3840167,61.8268737 20.6905583,64.1765842 19.926975,66.3884526 C19.1626833,68.5996105 18.320475,70.6189263 17.402475,72.4449789 C16.4851833,74.2710316 15.4637667,75.8135842 14.3410583,77.0690842 C13.2190583,78.3252947 11.9865583,79.2425842 10.64285,79.8230842 C9.29985,80.4035842 7.81943333,80.5442684 6.19664167,80.2486895 C3.88251667,79.8259263 2.259725,78.6379263 1.31480833,76.6683474 C0.369183333,74.6987684 0.165891667,72.1003737 0.717683333,68.8710316 C1.01093333,67.1529789 1.49543333,65.3184 2.17685,63.3665842 C2.85685,61.4154789 3.700475,59.4302684 4.71126667,57.4123737 C5.72276667,55.3951895 6.87664167,53.3780053 8.17855833,51.3629526 C9.47976667,49.3457684 10.8766,47.4102947 12.3726,45.5572421 C13.8671833,43.7041895 15.455975,41.9584263 17.13685,40.3235053 C18.8184333,38.6892947 20.560225,37.2447947 22.3601,35.9956895 C22.8559333,33.6061895 23.34185,31.2323211 23.8136,28.8755053 C24.28535,26.5186895 24.7486,24.3530053 25.205475,22.3820053 C23.83485,23.4669789 22.3076833,24.2386105 20.6232667,24.7011632 C18.9374333,25.1637158 17.3358917,25.2582158 15.8101417,24.9811105 C14.5075167,24.7445053 13.3685167,24.3018474 12.3888917,23.6502947 C11.4085583,22.9980316 10.61735,22.1873211 10.015975,21.2167421 C9.41389167,20.2461632 9.00164167,19.1576368 8.78135,17.9540053 C8.56176667,16.7496632 8.56389167,15.4771105 8.79055833,14.1363474 C9.2446,11.4562421 10.1448917,9.17829474 11.5020583,7.3089 C12.859225,5.43879474 14.4437667,3.95308421 16.254975,2.85816316 C18.0647667,1.76466316 19.9850583,1.04703158 22.0108917,0.710952632 C24.0353083,0.375584211 25.9336417,0.377715789 27.6995167,0.715215789 C28.8888083,0.943294737 29.9562667,1.29216316 30.900475,1.76111053 C31.843975,2.22934737 32.6366,2.70611053 33.276225,3.18855789 C33.9165583,3.67029474 34.3968083,4.10584737 34.7183917,4.49024211 C35.03785,4.87463684 35.2135167,5.08850526 35.2461,5.12900526 C35.5832667,5.62424211 35.7001417,6.12800526 35.596725,6.64100526 C35.4933083,7.15329474 35.1922667,7.56397895 34.6950167,7.87234737 C34.1970583,8.18071579 33.6636833,8.27734737 33.093475,8.16295263 C32.5601,8.05566316 32.0841,7.76718947 31.66335,7.29184737 C31.5316,7.15968947 31.359475,6.97424211 31.1491,6.73763684 C30.9380167,6.50103158 30.6532667,6.24097895 30.292725,5.95605789 C29.9321833,5.67326842 29.48735,5.40824211 28.9617667,5.16453158 C28.4340583,4.92011053 27.7880583,4.72400526 27.024475,4.57834737 C25.8783917,4.35808421 24.5736417,4.35026842 23.1130583,4.55703158 C21.652475,4.76379474 20.2400583,5.25832105 18.87935,6.03776842 C17.5186417,6.81934737 16.3024333,7.91995263 15.2293083,9.34029474 C14.1576,10.7606368 13.432975,12.5710579 13.04835,14.7687158 C12.7607667,16.4157158 12.922975,17.8161632 13.5314333,18.9679263 C14.1398917,20.1204 15.2640167,20.8422947 16.909475,21.1421368 C17.6943083,21.2849526 18.5634333,21.2323737 19.5182667,20.9851105 C20.4723917,20.7364263 21.4413917,20.2625053 22.4273917,19.5619263 C23.411975,18.8620579 24.3391833,17.9213211 25.2083083,16.7390053 C26.076725,15.5574 26.816225,14.1036632 27.423975,12.3742421 C27.59185,11.9102684 27.91485,11.5564263 28.3951,11.3120053 C28.8739333,11.0690053 29.3988083,11.0022158 29.9668917,11.1137684 C30.6107667,11.2409526 31.0733083,11.5450579 31.3516833,12.0267947 C31.6300583,12.5085316 31.7186,13.0059 31.6166,13.5189 C31.6095167,13.5537158 31.486975,14.0709789 31.2496833,15.0721105 C31.0123917,16.0732421 30.7078083,17.4076105 30.339475,19.0752158 C29.9704333,20.7421105 29.5390583,22.6740316 29.047475,24.8674263 C28.5551833,27.0615316 28.0466,29.3863737 27.52385,31.8405316" id="Fill-57" fill="#376363" mask="url(#mask-6)"></path>
                </g>
                <path d="M137.81532,224.54788 C140.020665,223.912741 142.295919,223.591978 144.593065,223.591978 C144.646027,223.591978 144.698283,223.595526 144.751245,223.596236 L144.756188,223.596236 C145.800602,223.603333 146.839367,223.677846 147.867539,223.817648 C147.890842,223.821196 147.914852,223.823325 147.937449,223.826163 C148.272876,223.873001 148.606184,223.925515 148.938787,223.985835 C148.950792,223.987964 148.96209,223.990093 148.974095,223.992222 C150.6936,224.304469 152.37356,224.799097 153.984316,225.465461 C153.985022,225.466171 153.986434,225.466881 153.98714,225.466881 C154.212406,225.560555 154.434847,225.660616 154.657994,225.761386 C154.798521,225.824545 154.939753,225.886995 155.078867,225.952993 C155.231398,226.024668 155.381105,226.1006 155.532223,226.175824 C155.753252,226.28582 155.973575,226.397235 156.190366,226.514328 C156.275812,226.560455 156.361258,226.606583 156.445997,226.654129 C156.748941,226.821608 157.04906,226.993343 157.343529,227.172886 C157.351297,227.177853 157.358359,227.182111 157.366127,227.186369 C162.051513,230.053366 165.711551,234.447535 167.664796,239.674837 C167.697986,239.764963 167.732588,239.855089 167.765071,239.945215 C167.862521,240.217012 167.953616,240.491647 168.042593,240.766993 C168.089199,240.913891 168.1351,241.05937 168.179588,241.206268 C168.251617,241.44684 168.320114,241.690251 168.385788,241.935081 C168.435219,242.122429 168.481826,242.309778 168.527726,242.498545 C168.579982,242.716409 168.631532,242.934272 168.678845,243.154264 C168.725452,243.374966 168.767821,243.598507 168.808779,243.821338 C168.844793,244.018621 168.88222,244.215195 168.913997,244.413188 C168.954248,244.666534 168.986732,244.9213 169.019215,245.176065 C169.041812,245.352059 169.067234,245.526633 169.0863,245.704046 C169.117372,245.998552 169.138556,246.294477 169.159741,246.590403 C169.169628,246.733043 169.184457,246.874264 169.192225,247.018323 C169.215528,247.460437 169.228945,247.90397 169.228945,248.349632 C169.228945,250.081184 169.048874,251.801382 168.692262,253.487517 C168.678139,253.554225 168.661191,253.620932 168.646361,253.68693 C159.164015,253.632996 151.466141,245.866557 151.466141,236.325276 C151.466141,235.252282 150.601093,234.382957 149.534082,234.382957 C148.467071,234.382957 147.602022,235.252282 147.602022,236.325276 C147.602022,245.30806 153.180703,253.002115 161.03817,256.104716 C147.666989,255.855628 136.86412,244.854592 136.86412,231.359127 C136.86412,229.050627 137.184011,226.764126 137.81532,224.54788 M147.126069,214.486424 C148.610421,214.08618 150.137144,213.883929 151.67799,213.883929 C154.994128,213.883929 158.176095,214.84338 160.903999,216.541579 C161.061473,216.639511 161.218947,216.738862 161.372891,216.841762 C161.560024,216.965951 161.745038,217.094398 161.927228,217.226393 C162.070579,217.330003 162.210399,217.43716 162.350925,217.544318 C162.536646,217.687668 162.722367,217.831018 162.902438,217.982174 C163.018249,218.078686 163.129116,218.179457 163.241396,218.278808 C163.889653,218.849369 164.496952,219.467477 165.059057,220.131002 C165.162863,220.253772 165.268788,220.374413 165.370475,220.500731 C165.50747,220.672467 165.636698,220.84988 165.768044,221.026584 C165.88668,221.186965 166.003902,221.346637 166.117595,221.511276 C166.229168,221.674497 166.337917,221.840555 166.445254,222.008033 C166.501041,222.095321 166.553297,222.184737 166.606965,222.273443 C165.900803,222.595626 165.212295,222.956129 164.535791,223.335084 C164.442578,223.386888 164.347952,223.437983 164.255445,223.491207 C164.011819,223.631009 163.771724,223.777197 163.532335,223.924805 C163.37133,224.023447 163.211737,224.122798 163.053557,224.224988 C162.851594,224.355564 162.650338,224.48685 162.451907,224.621684 C162.246413,224.761486 162.043745,224.905545 161.841076,225.051024 C161.72809,225.131924 161.610867,225.208567 161.498588,225.291596 C160.101799,224.256923 158.614621,223.358502 157.062477,222.601303 C156.919126,222.531047 156.773656,222.46434 156.628893,222.396923 C156.43258,222.304668 156.235561,222.214542 156.037129,222.127255 C155.825281,222.033581 155.613432,221.941326 155.398759,221.852619 C155.322493,221.821395 155.245521,221.792299 155.16855,221.761074 C153.39467,221.045744 151.533933,220.507118 149.605404,220.160807 L149.511484,220.144485 C148.639374,219.9912 147.753847,219.878366 146.856315,219.806691 C146.751096,219.798884 146.645878,219.78682 146.54066,219.779724 C146.530774,219.537023 146.525125,219.29787 146.525125,219.061555 C146.525125,217.513093 146.727087,215.978824 147.126069,214.486424 M175.873931,214.486424 C176.272207,215.978824 176.474875,217.513093 176.474875,219.061555 C176.474875,219.29787 176.469226,219.536313 176.45934,219.777595 C176.402847,219.781143 176.34706,219.789659 176.291273,219.793917 C175.931837,219.820884 175.573813,219.855657 175.216494,219.896107 C175.071025,219.912429 174.925556,219.925203 174.781499,219.943654 C174.355683,219.999006 173.931279,220.062166 173.508994,220.135969 C173.215231,220.187064 172.923586,220.249514 172.631235,220.309834 C172.486471,220.340349 172.340296,220.368736 172.195533,220.40138 C171.879172,220.472345 171.565636,220.549697 171.252806,220.630597 C171.149,220.658274 171.046607,220.68595 170.944213,220.714336 C170.728128,220.772528 170.51063,220.823623 170.295956,220.887492 C170.24935,220.805172 170.1978,220.724981 170.150487,220.643371 C170.072809,220.511376 169.995131,220.378671 169.914629,220.247385 C169.827771,220.105454 169.7395,219.965653 169.649112,219.825851 C169.59615,219.743532 169.541775,219.662631 169.488107,219.581731 C168.332119,217.841662 166.93533,216.280426 165.325281,214.94557 C168.675314,213.720709 172.412324,213.551812 175.873931,214.486424 M186.13588,231.359127 C186.13588,240.811701 180.839664,249.282115 172.639002,253.444938 C172.653832,253.361909 172.663718,253.27746 172.677841,253.194431 C172.718093,252.959536 172.754813,252.723931 172.789415,252.487617 C172.813425,252.322267 172.837434,252.156918 172.858619,251.99086 C172.88969,251.74461 172.916524,251.498361 172.94124,251.251402 C172.956775,251.094568 172.975136,250.938445 172.987847,250.782321 C173.01115,250.509814 173.027392,250.236598 173.042927,249.964092 C173.049989,249.832096 173.060581,249.699391 173.066231,249.567396 C173.083178,249.162184 173.093065,248.755553 173.093065,248.349632 C173.093065,247.861391 173.080354,247.374569 173.056344,246.889876 C173.04787,246.711044 173.028804,246.53505 173.016799,246.357637 C172.995614,246.052486 172.977254,245.746626 172.946889,245.442894 C172.930647,245.277545 172.904519,245.114325 172.885453,244.950395 C172.848026,244.635309 172.813425,244.320224 172.766112,244.007976 C172.750576,243.906496 172.729391,243.808564 172.713149,243.707793 C171.738646,237.70768 168.896343,232.174518 164.536497,227.888216 C167.535568,225.8359 170.959043,224.476915 174.53646,223.903516 C174.636029,223.887903 174.735598,223.870872 174.835167,223.856679 C175.014532,223.829712 175.19531,223.807713 175.375381,223.785004 C175.556865,223.763004 175.739054,223.741005 175.920538,223.723264 C176.040586,223.71049 176.160633,223.699845 176.280681,223.688491 C176.544079,223.666492 176.80889,223.646621 177.074407,223.633138 C177.126663,223.630299 177.179625,223.626751 177.231881,223.623912 C177.568015,223.6083 177.90556,223.597655 178.243812,223.595526 C178.246636,223.595526 178.249461,223.594817 178.252286,223.594817 C178.303836,223.594817 178.355385,223.591978 178.406935,223.591978 C180.703375,223.591978 182.979335,223.912741 185.18468,224.54788 C185.816695,226.764126 186.13588,229.050627 186.13588,231.359127 M161.5,260 C164.190478,260 166.853416,259.617497 169.433732,258.865975 C169.437969,258.864556 169.440794,258.864556 169.445031,258.863136 L169.452092,258.861717 C169.452092,258.861717 169.453505,258.861007 169.453505,258.861007 C169.46551,258.857459 169.477514,258.853911 169.490225,258.850363 C169.731733,258.779397 169.972534,258.706303 170.211923,258.628241 C170.282539,258.605532 170.353155,258.582824 170.424478,258.560115 L170.424478,258.559405 C170.42589,258.559405 170.427302,258.558695 170.428715,258.558695 C170.430833,258.557986 170.432246,258.555857 170.43507,258.555147 C182.13759,254.674766 190,243.746824 190,231.359127 C190,228.306911 189.516985,225.288048 188.565078,222.386278 C188.373002,221.802234 187.916822,221.343089 187.334944,221.150773 C185.05404,220.394283 182.699695,219.937976 180.314279,219.777595 C180.322753,219.538442 180.338995,219.29716 180.338995,219.061555 C180.338995,216.767248 179.976028,214.499198 179.260685,212.319145 C179.068609,211.734391 178.612428,211.276665 178.030551,211.08293 C175.861927,210.364761 173.604326,210 171.32201,210 C167.895005,210 164.520962,210.835971 161.490114,212.41211 C158.505166,210.860099 155.150896,210 151.67799,210 C149.394968,210 147.138073,210.364761 144.968743,211.08293 C144.387572,211.276665 143.931391,211.734391 143.739315,212.319145 C143.023266,214.499198 142.661005,216.767248 142.661005,219.061555 C142.661005,219.29645 142.677247,219.538442 142.685014,219.777595 C140.300305,219.937976 137.94596,220.394283 135.665056,221.150773 C135.083178,221.343089 134.626998,221.802234 134.434922,222.386278 C133.482309,225.288048 133,228.306911 133,231.359127 C133,247.152448 145.785067,260 161.5,260" id="Fill-60" fill="#376363"></path>
            </g>
        </g>
    </g>
</svg>