
<svg width="27px" height="27px" viewBox="0 0 27 27" version="1.1" xmlns="http://www.w3.org/2000/svg" xmlns:xlink="http://www.w3.org/1999/xlink">
    <!-- Generator: Sketch 46.1 (44463) - http://www.bohemiancoding.com/sketch -->
    <desc>Created with Sketch.</desc>
    <defs></defs>
    <g id="Page-1" stroke="none" stroke-width="1" fill="none" fill-rule="evenodd">
        <g id="Homepage" transform="translate(-562.000000, -7192.000000)" fill-rule="nonzero" fill="#FFF6DF">
            <path d="M583.956334,7192 L567.042566,7192 C564.257882,7192 562,7194.25592 562,7197.04239 L562,7213.95873 C562,7216.74184 564.257332,7219 567.042566,7219 L583.956334,7219 C586.741018,7219 589,7216.74184 589,7213.95873 L589,7197.04239 C589,7194.25592 586.741018,7192 583.956334,7192 Z M583.485621,7198.62842 L581.312974,7198.62842 C581.312974,7198.62842 580.367149,7198.40344 580.367149,7199.87754 C580.367149,7201.35052 580.367149,7201.86036 580.367149,7201.86036 L583.485621,7201.86036 L583.153483,7205.13819 L580.367699,7205.13819 L580.367699,7215.29404 L576.135682,7215.29404 L576.135682,7205.13819 L574.131303,7205.13819 L574.131303,7201.63258 L576.25556,7201.64154 L576.300652,7198.74482 C576.300652,7198.74482 576.165377,7195.37521 579.014399,7195.2006 C581.354766,7195.03103 583.486171,7195.09651 583.486171,7195.09651 L583.486171,7198.62842 L583.485621,7198.62842 Z" id="Shape"></path>
        </g>
    </g>
</svg>