
<svg width="675px" height="682px" viewBox="0 0 675 682" version="1.1" xmlns="http://www.w3.org/2000/svg" xmlns:xlink="http://www.w3.org/1999/xlink">
    <!-- Generator: Sketch 46.1 (44463) - http://www.bohemiancoding.com/sketch -->
    <desc>Created with Sketch.</desc>
    <defs></defs>
    <g id="Page-1" stroke="none" stroke-width="1" fill="none" fill-rule="evenodd">
        <path d="M310.525362,578.947703 C310.963119,579.748364 311.448126,580.516999 311.965095,581.264747 C312.088779,581.442981 312.22636,581.610075 312.354213,581.786917 C312.746109,582.323012 313.146344,582.852144 313.575762,583.357605 C313.795336,583.617994 314.028806,583.860281 314.259497,584.110923 C314.630548,584.516127 315.005768,584.914369 315.400444,585.294509 C315.664488,585.549328 315.93687,585.790223 316.210641,586.03251 C316.613655,586.39037 317.023618,586.737091 317.447478,587.069888 C317.71986,587.282933 317.995021,587.487624 318.275741,587.690922 C318.74963,588.033466 319.234637,588.356515 319.732151,588.668425 C319.976739,588.821595 320.221327,588.974765 320.472863,589.11958 C321.057929,589.459339 321.659671,589.772641 322.27253,590.069234 C322.451802,590.154174 322.626905,590.246076 322.807566,590.326838 C323.558006,590.667989 324.327902,590.972937 325.114475,591.244465 C325.171453,591.26396 325.225651,591.287631 325.282629,591.305733 C326.160922,591.602326 327.057281,591.857145 327.974486,592.060443 C328.067596,592.737176 328.114846,593.415301 328.114846,594.090642 C328.114846,595.889692 327.788265,597.606588 327.218487,599.210695 C327.214318,599.220443 327.208759,599.23019 327.20459,599.239937 C326.823811,600.309342 326.330466,601.314694 325.744011,602.24903 C325.731503,602.267132 325.721775,602.286627 325.710658,602.303336 C325.541114,602.570687 325.360452,602.829684 325.175622,603.08311 C325.107526,603.177797 325.036651,603.271092 324.967166,603.364386 C324.790674,603.595533 324.612792,603.825288 324.423792,604.043904 C324.352917,604.127451 324.276483,604.206821 324.204219,604.287583 C323.849844,604.684432 323.476014,605.059003 323.085507,605.415471 C322.985448,605.507373 322.888169,605.600667 322.785331,605.689784 C322.574096,605.869411 322.358692,606.042075 322.137729,606.211955 C322.03628,606.291325 321.932053,606.369302 321.826435,606.447279 C319.512578,608.136326 316.726221,609.179274 313.738358,609.354724 C313.709174,609.356116 313.68277,609.364471 313.654976,609.365863 C313.379814,609.38118 313.107432,609.407637 312.828102,609.407637 C304.399547,609.407637 297.541357,602.537268 297.541357,594.090642 C297.541357,586.429359 303.184945,580.064451 310.525362,578.947703 M333.673662,550.924564 C342.103606,550.924564 348.960406,557.796325 348.960406,566.241559 C348.960406,568.04061 348.633826,569.757506 348.064047,571.361613 C348.059878,571.37136 348.054319,571.381107 348.05015,571.390854 C347.669371,572.460259 347.176026,573.465611 346.589571,574.399948 C346.577064,574.41805 346.567336,574.437544 346.556218,574.454254 C346.386674,574.721605 346.206013,574.980601 346.021182,575.234028 C345.953086,575.328715 345.882212,575.422009 345.812726,575.515304 C345.636234,575.746451 345.458352,575.976206 345.269352,576.194821 C345.198477,576.278368 345.122043,576.357738 345.049779,576.438501 C344.695404,576.83535 344.321574,577.20992 343.931067,577.566389 C343.831008,577.65829 343.733729,577.751585 343.630891,577.840702 C343.419656,578.020329 343.204252,578.192993 342.983289,578.362872 C342.881841,578.442242 342.777613,578.52022 342.671995,578.598197 C340.358138,580.287244 337.571782,581.330192 334.583918,581.505641 C334.554734,581.507034 334.52833,581.515388 334.500536,581.516781 C334.225374,581.532098 333.952992,581.558554 333.673662,581.558554 C333.395721,581.558554 333.123339,581.532098 332.846788,581.516781 C332.818994,581.515388 332.792589,581.507034 332.764795,581.505641 C329.776932,581.330192 326.989186,580.287244 324.676718,578.598197 C324.571101,578.52022 324.466873,578.442242 324.364035,578.362872 C324.144461,578.192993 323.927668,578.020329 323.717822,577.840702 C323.614984,577.751585 323.517705,577.65829 323.416257,577.566389 C323.02575,577.20992 322.653309,576.83535 322.298934,576.438501 C322.22528,576.357738 322.148846,576.278368 322.077972,576.194821 C321.890362,575.976206 321.71109,575.746451 321.535987,575.515304 C321.465112,575.422009 321.394237,575.328715 321.326142,575.234028 C321.141311,574.980601 320.96065,574.721605 320.792495,574.454254 C320.779988,574.437544 320.77026,574.41805 320.759142,574.399948 C320.171298,573.465611 319.679342,572.460259 319.297174,571.390854 C319.294394,571.381107 319.287446,571.37136 319.284666,571.361613 C318.714888,569.757506 318.386918,568.04061 318.386918,566.241559 C318.386918,557.796325 325.245107,550.924564 333.673662,550.924564 M375.364782,550.924564 C383.794727,550.924564 390.651526,557.796325 390.651526,566.241559 C390.651526,568.04061 390.324946,569.757506 389.755167,571.361613 C389.750998,571.37136 389.745439,571.381107 389.74127,571.390854 C389.360491,572.460259 388.867146,573.465611 388.280691,574.399948 C388.268184,574.41805 388.258456,574.437544 388.247338,574.454254 C388.077795,574.721605 387.897133,574.980601 387.712302,575.234028 C387.644207,575.328715 387.573332,575.422009 387.503847,575.515304 C387.327354,575.746451 387.149472,575.976206 386.960473,576.194821 C386.889598,576.278368 386.813164,576.357738 386.740899,576.438501 C386.386525,576.83535 386.012694,577.20992 385.622188,577.566389 C385.522129,577.65829 385.42485,577.751585 385.322011,577.840702 C385.110776,578.020329 384.895372,578.192993 384.674409,578.362872 C384.572961,578.442242 384.468733,578.52022 384.363116,578.598197 C382.049259,580.287244 379.262902,581.330192 376.275038,581.505641 C376.245855,581.507034 376.21945,581.515388 376.191656,581.516781 C375.916495,581.532098 375.644113,581.558554 375.364782,581.558554 C375.086841,581.558554 374.814459,581.532098 374.539298,581.516781 C374.510114,581.515388 374.48371,581.507034 374.455916,581.505641 C371.468052,581.330192 368.680306,580.287244 366.367838,578.598197 C366.262221,578.52022 366.157993,578.442242 366.055155,578.362872 C365.835582,578.192993 365.618788,578.020329 365.408943,577.840702 C365.306105,577.751585 365.208825,577.65829 365.107377,577.566389 C364.71687,577.20992 364.344429,576.83535 363.990055,576.438501 C363.916401,576.357738 363.839967,576.278368 363.769092,576.194821 C363.581482,575.976206 363.40221,575.746451 363.227107,575.515304 C363.156232,575.422009 363.085358,575.328715 363.017262,575.234028 C362.832431,574.980601 362.65177,574.721605 362.483616,574.454254 C362.471108,574.437544 362.46138,574.41805 362.450263,574.399948 C361.862418,573.465611 361.370463,572.460259 360.988294,571.390854 C360.985515,571.381107 360.978566,571.37136 360.975787,571.361613 C360.406008,569.757506 360.078038,568.04061 360.078038,566.241559 C360.078038,557.796325 366.936227,550.924564 375.364782,550.924564 M411.497087,594.090642 C411.497087,602.537268 404.640287,609.407637 396.210342,609.407637 C395.932402,609.407637 395.66002,609.38118 395.384858,609.365863 C395.355674,609.364471 395.32927,609.356116 395.301476,609.354724 C392.313612,609.179274 389.525866,608.136326 387.213399,606.447279 C387.107781,606.369302 387.003553,606.291325 386.900715,606.211955 C386.681142,606.042075 386.464348,605.869411 386.254503,605.689784 C386.151665,605.600667 386.054385,605.507373 385.952937,605.415471 C385.56243,605.059003 385.18999,604.684432 384.835615,604.287583 C384.761961,604.206821 384.685527,604.127451 384.614652,604.043904 C384.427042,603.825288 384.24777,603.595533 384.072668,603.364386 C384.001793,603.271092 383.930918,603.177797 383.862822,603.08311 C383.677992,602.829684 383.49733,602.570687 383.329176,602.303336 C383.316669,602.286627 383.306941,602.267132 383.295823,602.24903 C382.707978,601.314694 382.216023,600.309342 381.833854,599.239937 C381.831075,599.23019 381.824126,599.220443 381.821347,599.210695 C381.251568,597.606588 380.923598,595.889692 380.923598,594.090642 C380.923598,593.415301 380.970848,592.737176 381.065348,592.060443 C381.981163,591.857145 382.877522,591.602326 383.755815,591.305733 C383.812793,591.287631 383.868381,591.26396 383.925359,591.244465 C384.710542,590.972937 385.480438,590.667989 386.230878,590.326838 C386.411539,590.246076 386.586642,590.154174 386.765914,590.069234 C387.378773,589.772641 387.980515,589.459339 388.56697,589.11958 C388.817117,588.974765 389.061705,588.821595 389.307683,588.668425 C389.803807,588.356515 390.288814,588.033466 390.762703,587.690922 C391.043423,587.487624 391.319974,587.282933 391.590966,587.069888 C392.016216,586.737091 392.426178,586.39037 392.829193,586.03251 C393.101575,585.790223 393.375346,585.549328 393.638,585.294509 C394.034066,584.914369 394.409286,584.516127 394.780337,584.110923 C395.009638,583.860281 395.243108,583.617994 395.462682,583.357605 C395.89349,582.852144 396.293725,582.323012 396.684231,581.786917 C396.812084,581.610075 396.951055,581.442981 397.074738,581.264747 C397.590319,580.516999 398.075325,579.748364 398.513082,578.947703 C405.854888,580.064451 411.497087,586.429359 411.497087,594.090642 M375.364782,637.256719 C375.086841,637.256719 374.814459,637.230263 374.539298,637.214946 C374.510114,637.213553 374.48371,637.205198 374.455916,637.203806 C371.468052,637.028357 368.680306,635.985409 366.367838,634.296362 C366.262221,634.218384 366.157993,634.140407 366.055155,634.061037 C365.835582,633.891158 365.618788,633.718493 365.408943,633.538867 C365.306105,633.44975 365.208825,633.356455 365.107377,633.264553 C364.71687,632.908085 364.344429,632.533515 363.990055,632.136665 C363.916401,632.055903 363.839967,631.976533 363.769092,631.892986 C363.581482,631.674371 363.40221,631.444616 363.227107,631.213468 C363.156232,631.120174 363.085358,631.02688 363.017262,630.932193 C362.832431,630.678766 362.65177,630.41977 362.483616,630.152418 C362.471108,630.135709 362.46138,630.116215 362.450263,630.098113 C361.862418,629.163776 361.370463,628.158424 360.988294,627.089019 C360.985515,627.079272 360.978566,627.069525 360.975787,627.059778 C360.406008,625.455671 360.078038,623.738775 360.078038,621.939724 C360.078038,621.264384 360.125288,620.586259 360.219788,619.909526 C362.327969,619.443054 364.334701,618.712015 366.22192,617.772109 C366.40536,617.681599 366.59297,617.600837 366.773632,617.50615 C367.187764,617.286142 367.587999,617.045248 367.989623,616.804353 C368.299527,616.620549 368.609431,616.43953 368.909607,616.244587 C369.243136,616.025971 369.564158,615.794824 369.885179,615.562284 C370.233995,615.313035 370.577252,615.059608 370.91356,614.793649 C371.19567,614.568072 371.469442,614.336924 371.743214,614.100207 C372.08786,613.802222 372.425558,613.49449 372.754918,613.178403 C373.009234,612.934723 373.26077,612.688259 373.503969,612.43344 C373.813873,612.111783 374.111269,611.778986 374.405886,611.44062 C374.653254,611.156559 374.897842,610.875284 375.132702,610.580083 C375.207746,610.486789 375.291128,610.401849 375.364782,610.307162 C375.438437,610.401849 375.523208,610.486789 375.596863,610.580083 C375.831723,610.875284 376.0777,611.156559 376.325068,611.44062 C376.618295,611.778986 376.915692,612.111783 377.225596,612.43344 C377.470184,612.688259 377.720331,612.934723 377.974646,613.178403 C378.304006,613.49449 378.641704,613.802222 378.987741,614.100207 C379.260123,614.336924 379.533894,614.568072 379.816004,614.793649 C380.152313,615.059608 380.496959,615.313035 380.844385,615.562284 C381.166796,615.794824 381.487818,616.025971 381.819957,616.244587 C382.121523,616.43953 382.431427,616.620549 382.739941,616.804353 C383.141566,617.045248 383.541801,617.286142 383.957322,617.50615 C384.137984,617.600837 384.324204,617.681599 384.507645,617.772109 C386.394863,618.712015 388.401596,619.443054 390.511166,619.909526 C390.604276,620.586259 390.651526,621.264384 390.651526,621.939724 C390.651526,630.386351 383.794727,637.256719 375.364782,637.256719 M354.519222,665.105802 C346.090667,665.105802 339.232478,658.235433 339.232478,649.788806 C339.232478,649.113466 339.279728,648.435341 339.374228,647.758608 C341.482409,647.292136 343.489141,646.561098 345.376359,645.621191 C345.5598,645.530682 345.74741,645.449919 345.928072,645.355232 C346.342204,645.135225 346.742438,644.89433 347.144063,644.653436 C347.453967,644.469632 347.763871,644.288613 348.064047,644.093669 C348.397576,643.875054 348.718597,643.643906 349.039619,643.411366 C349.388435,643.162117 349.731692,642.908691 350.068,642.642732 C350.35011,642.417154 350.623882,642.186007 350.897653,641.94929 C351.2423,641.651304 351.579998,641.343572 351.909358,641.027485 C352.163674,640.783806 352.41521,640.537341 352.658408,640.282522 C352.968312,639.960865 353.265709,639.628069 353.560326,639.289702 C353.807694,639.005642 354.052281,638.724366 354.287141,638.429166 C354.362185,638.335871 354.445568,638.250932 354.519222,638.156245 C354.592876,638.250932 354.677648,638.335871 354.751303,638.429166 C354.986163,638.724366 355.23214,639.005642 355.479508,639.289702 C355.772735,639.628069 356.070132,639.960865 356.380036,640.282522 C356.624624,640.537341 356.87477,640.783806 357.129086,641.027485 C357.458446,641.343572 357.796144,641.651304 358.14218,641.94929 C358.414562,642.186007 358.688334,642.417154 358.970444,642.642732 C359.306752,642.908691 359.651399,643.162117 359.998825,643.411366 C360.321236,643.643906 360.642258,643.875054 360.974397,644.093669 C361.275963,644.288613 361.585867,644.469632 361.894381,644.653436 C362.296006,644.89433 362.69624,645.135225 363.111762,645.355232 C363.292423,645.449919 363.478644,645.530682 363.662085,645.621191 C365.549303,646.561098 367.556035,647.292136 369.665606,647.758608 C369.758716,648.435341 369.805966,649.113466 369.805966,649.788806 C369.805966,658.235433 362.949167,665.105802 354.519222,665.105802 M345.928072,589.657068 C346.342204,589.43706 346.742438,589.196165 347.144063,588.955271 C347.453967,588.771467 347.763871,588.590448 348.064047,588.395504 C348.397576,588.176889 348.718597,587.945742 349.039619,587.713202 C349.388435,587.463952 349.731692,587.210526 350.068,586.944567 C350.35011,586.718989 350.623882,586.487842 350.897653,586.251125 C351.2423,585.95314 351.579998,585.645407 351.909358,585.32932 C352.163674,585.085641 352.41521,584.839176 352.658408,584.584357 C352.968312,584.2627 353.265709,583.929904 353.560326,583.591537 C353.807694,583.307477 354.052281,583.026201 354.287141,582.731001 C354.362185,582.637706 354.445568,582.552767 354.519222,582.45808 C354.592876,582.552767 354.677648,582.637706 354.751303,582.731001 C354.986163,583.026201 355.23214,583.307477 355.479508,583.591537 C355.772735,583.929904 356.070132,584.2627 356.380036,584.584357 C356.624624,584.839176 356.87477,585.085641 357.129086,585.32932 C357.458446,585.645407 357.796144,585.95314 358.14218,586.251125 C358.414562,586.487842 358.688334,586.718989 358.970444,586.944567 C359.306752,587.210526 359.651399,587.463952 359.998825,587.713202 C360.321236,587.945742 360.642258,588.176889 360.974397,588.395504 C361.275963,588.590448 361.585867,588.771467 361.894381,588.955271 C362.296006,589.196165 362.69624,589.43706 363.111762,589.657068 C363.292423,589.751755 363.478644,589.832517 363.662085,589.923026 C365.549303,590.862933 367.556035,591.593971 369.665606,592.060443 C369.758716,592.737176 369.805966,593.415301 369.805966,594.090642 C369.805966,595.889692 369.479386,597.606588 368.909607,599.210695 C368.905438,599.220443 368.899879,599.23019 368.89571,599.239937 C368.514931,600.309342 368.021586,601.314694 367.435131,602.24903 C367.422624,602.267132 367.412896,602.286627 367.401778,602.303336 C367.232234,602.570687 367.051573,602.829684 366.866742,603.08311 C366.798647,603.177797 366.727772,603.271092 366.658287,603.364386 C366.481794,603.595533 366.303912,603.825288 366.114912,604.043904 C366.044037,604.127451 365.967604,604.206821 365.895339,604.287583 C365.540965,604.684432 365.167134,605.059003 364.776627,605.415471 C364.676569,605.507373 364.579289,605.600667 364.476451,605.689784 C364.265216,605.869411 364.049812,606.042075 363.828849,606.211955 C363.727401,606.291325 363.623173,606.369302 363.517556,606.447279 C361.203698,608.136326 358.417342,609.179274 355.429478,609.354724 C355.400294,609.356116 355.37389,609.364471 355.346096,609.365863 C355.070935,609.38118 354.798553,609.407637 354.519222,609.407637 C354.241281,609.407637 353.968899,609.38118 353.692348,609.365863 C353.664554,609.364471 353.63815,609.356116 353.610356,609.354724 C350.622492,609.179274 347.834746,608.136326 345.522278,606.447279 C345.416661,606.369302 345.312433,606.291325 345.209595,606.211955 C344.990022,606.042075 344.773228,605.869411 344.563382,605.689784 C344.460544,605.600667 344.363265,605.507373 344.261817,605.415471 C343.87131,605.059003 343.498869,604.684432 343.144495,604.287583 C343.07084,604.206821 342.994407,604.127451 342.923532,604.043904 C342.735922,603.825288 342.55665,603.595533 342.381547,603.364386 C342.310672,603.271092 342.239797,603.177797 342.171702,603.08311 C341.986871,602.829684 341.80621,602.570687 341.638056,602.303336 C341.625548,602.286627 341.61582,602.267132 341.604703,602.24903 C341.016858,601.314694 340.524903,600.309342 340.142734,599.239937 C340.139955,599.23019 340.133006,599.220443 340.130227,599.210695 C339.560448,597.606588 339.232478,595.889692 339.232478,594.090642 C339.232478,593.415301 339.279728,592.737176 339.374228,592.060443 C341.482409,591.593971 343.489141,590.862933 345.376359,589.923026 C345.5598,589.832517 345.74741,589.751755 345.928072,589.657068 M318.386918,621.939724 C318.386918,621.264384 318.434168,620.586259 318.528667,619.909526 C320.636848,619.443054 322.643581,618.712015 324.530799,617.772109 C324.71424,617.681599 324.90185,617.600837 325.082512,617.50615 C325.496643,617.286142 325.896878,617.045248 326.298503,616.804353 C326.608407,616.620549 326.918311,616.43953 327.218487,616.244587 C327.552016,616.025971 327.873037,615.794824 328.194059,615.562284 C328.542875,615.313035 328.886132,615.059608 329.22244,614.793649 C329.50455,614.568072 329.778321,614.336924 330.052093,614.100207 C330.39674,613.802222 330.734438,613.49449 331.063798,613.178403 C331.318114,612.934723 331.56965,612.688259 331.812848,612.43344 C332.122752,612.111783 332.420149,611.778986 332.714766,611.44062 C332.962133,611.156559 333.206721,610.875284 333.441581,610.580083 C333.516625,610.486789 333.600008,610.401849 333.673662,610.307162 C333.747316,610.401849 333.832088,610.486789 333.905742,610.580083 C334.140602,610.875284 334.38658,611.156559 334.633947,611.44062 C334.927175,611.778986 335.224572,612.111783 335.534476,612.43344 C335.779063,612.688259 336.02921,612.934723 336.283526,613.178403 C336.612886,613.49449 336.950584,613.802222 337.29662,614.100207 C337.569002,614.336924 337.842774,614.568072 338.124884,614.793649 C338.461192,615.059608 338.805839,615.313035 339.153265,615.562284 C339.475676,615.794824 339.795308,616.025971 340.128837,616.244587 C340.430403,616.43953 340.740307,616.620549 341.048821,616.804353 C341.450445,617.045248 341.85068,617.286142 342.266202,617.50615 C342.446863,617.600837 342.633084,617.681599 342.816525,617.772109 C344.703743,618.712015 346.710475,619.443054 348.820046,619.909526 C348.913156,620.586259 348.960406,621.264384 348.960406,621.939724 C348.960406,623.738775 348.633826,625.455671 348.064047,627.059778 C348.059878,627.069525 348.054319,627.079272 348.05015,627.089019 C347.669371,628.158424 347.176026,629.163776 346.589571,630.098113 C346.577064,630.116215 346.567336,630.135709 346.556218,630.152418 C346.386674,630.41977 346.206013,630.678766 346.021182,630.932193 C345.953086,631.02688 345.882212,631.120174 345.812726,631.213468 C345.636234,631.444616 345.458352,631.674371 345.269352,631.892986 C345.198477,631.976533 345.122043,632.055903 345.049779,632.136665 C344.695404,632.533515 344.321574,632.908085 343.931067,633.264553 C343.831008,633.356455 343.733729,633.44975 343.630891,633.538867 C343.419656,633.718493 343.204252,633.891158 342.983289,634.061037 C342.881841,634.140407 342.777613,634.218384 342.671995,634.296362 C340.358138,635.985409 337.571782,637.028357 334.583918,637.203806 C334.554734,637.205198 334.52833,637.213553 334.500536,637.214946 C334.225374,637.230263 333.952992,637.256719 333.673662,637.256719 C325.245107,637.256719 318.386918,630.386351 318.386918,621.939724 M286.423725,594.090642 C286.423725,606.798178 295.41511,617.435135 307.355447,619.968009 C307.305418,620.625247 307.269286,621.282486 307.269286,621.939724 C307.269286,634.64726 316.260671,645.284217 328.201007,647.817091 C328.150978,648.47433 328.114846,649.131568 328.114846,649.788806 C328.114846,664.377548 339.960683,676.245435 354.519222,676.245435 C369.079151,676.245435 380.923598,664.377548 380.923598,649.788806 C380.923598,649.131568 380.887466,648.47433 380.837437,647.817091 C392.779163,645.284217 401.769158,634.64726 401.769158,621.939724 C401.769158,621.282486 401.733026,620.625247 401.682997,619.968009 C413.624723,617.435135 422.614719,606.798178 422.614719,594.090642 C422.614719,581.378928 413.617775,570.737794 401.6691,568.210489 C401.717739,567.558821 401.769158,566.907152 401.769158,566.241559 C401.769158,551.65421 389.924711,539.784931 375.364782,539.784931 C369.666996,539.784931 364.398628,541.62297 360.078038,544.711434 L360.078038,524.467936 C360.078038,522.434953 360.468545,520.463238 361.237051,518.605704 C362.006947,516.743993 363.124269,515.071655 364.555664,513.637427 C365.98706,512.2032 367.656094,511.083667 369.512739,510.310855 C373.220469,508.773585 377.511875,508.773585 381.214046,510.310855 C383.07625,511.085059 384.743895,512.204592 386.1739,513.637427 C387.317626,514.782025 388.259846,516.079792 388.986661,517.504273 C388.262625,518.928753 387.319016,520.22652 386.171121,521.375295 C384.742505,522.809523 383.07625,523.927663 381.218216,524.699083 C378.38183,525.875707 377.033817,529.134049 378.209506,531.976048 C379.383806,534.819439 382.638493,536.167335 385.4721,534.990711 C388.689264,533.655348 391.570121,531.722622 394.034066,529.252408 C396.50496,526.778017 398.432479,523.890067 399.762426,520.669321 C400.038977,519.998158 400.183506,519.276867 400.184896,518.550006 L400.189065,516.483604 C400.190455,515.746995 400.045926,515.018742 399.763816,514.339224 C398.4297,511.118478 396.50218,508.231921 394.035456,505.758922 C391.57151,503.291493 388.692044,501.360159 385.473489,500.020619 C379.051667,497.354069 371.682067,497.352676 365.253296,500.020619 C362.0403,501.358767 359.162223,503.288708 356.694109,505.758922 C354.224605,508.234705 352.298475,511.122655 350.968528,514.337832 C349.635802,517.553008 348.960406,520.961736 348.960406,524.467936 L348.960406,544.711434 C344.641206,541.62297 339.372838,539.784931 333.673662,539.784931 C319.115123,539.784931 307.269286,551.65421 307.269286,566.241559 C307.269286,566.907152 307.320705,567.558821 307.369344,568.210489 C295.422059,570.737794 286.423725,581.378928 286.423725,594.090642" id="Fill-1" fill="#B8D3CE" transform="translate(354.519222, 587.132809) rotate(-22.000000) translate(-354.519222, -587.132809) "></path>
        <path d="M78.5855329,385.619285 L82.5631056,385.619285 L97.8809486,320.551811 L88.7715512,320.551811 C86.2832699,320.551811 84.2566895,318.528342 84.2566895,316.039333 C84.2566895,313.550324 86.2832699,311.526856 88.7715512,311.526856 L100.005589,311.526856 L108.843278,273.987535 L108.833063,273.709844 C108.741132,271.324969 108.234487,269.005433 107.325386,266.81045 C106.312095,264.370445 104.845276,262.181587 102.967829,260.305132 C101.092425,258.428676 98.9003676,256.962631 96.4549878,255.945793 C94.0239084,254.937121 91.4396097,254.42666 88.7715512,254.42666 L72.3770873,254.42666 C69.7110716,254.42666 67.126773,254.937121 64.6956936,255.945793 C62.2482708,256.962631 60.0582565,258.428676 58.1828524,260.305132 C56.3033624,262.181587 54.8365431,264.370445 53.8252958,266.81045 C52.9141517,269.007475 52.4075066,271.327011 52.317618,273.709844 L52.3074034,273.987535 L53.4289686,278.755243 L72.3770873,278.755243 C74.8674114,278.755243 76.891949,280.778712 76.891949,283.267721 C76.891949,285.75673 74.8674114,287.780198 72.3770873,287.780198 L55.5536094,287.780198 L78.5855329,385.619285 Z M80.5753407,418.278596 C78.4690862,418.278596 76.6631415,416.849305 76.1810115,414.799292 L43.3920837,275.525044 C43.3124097,275.186098 43.2715512,274.838985 43.2715512,274.491871 C43.2715512,270.640951 44.0172184,266.894166 45.4840377,263.355648 C46.950857,259.817131 49.0754978,256.644104 51.7987153,253.922324 C54.5198899,251.202587 57.6945936,249.079068 61.2349806,247.610981 C64.7692389,246.144937 68.5180041,245.401705 72.3770873,245.401705 L76.060479,245.401705 L76.060479,241.7223 C76.060479,221.62442 59.7007448,205.271283 39.5902024,205.271283 C37.0998782,205.271283 35.0753407,203.247815 35.0753407,200.758806 C35.0753407,198.271839 37.0998782,196.24837 39.5902024,196.24837 C46.7486076,196.24837 53.6169176,197.881846 60.0051404,201.099794 L62.6119113,198.124826 C59.8764362,194.126893 56.7691491,190.378066 53.3738096,186.982478 C51.6148522,185.222407 51.6148522,182.35974 53.3758525,180.59967 C54.2277518,179.748221 55.3615745,179.278596 56.5668996,179.278596 C57.7742676,179.278596 58.9080903,179.748221 59.7599896,180.601712 C67.8479251,188.687418 74.1605598,198.1187 78.5262881,208.63216 C79.3087279,210.518825 80.0605239,212.579047 80.8286632,214.931252 L82.0891473,218.788297 L84.4364668,215.478466 C92.9840602,203.435665 106.861642,196.24837 121.560479,196.24837 C124.04876,196.24837 126.075341,198.271839 126.075341,200.758806 C126.075341,203.247815 124.04876,205.271283 121.560479,205.271283 C101.449937,205.271283 85.0902024,221.62442 85.0902024,241.7223 L85.0902024,245.401705 L88.7715512,245.401705 C92.6306343,245.401705 96.3793996,246.144937 99.9136579,247.610981 C103.454045,249.079068 106.630791,251.202587 109.354009,253.922324 C112.075184,256.642062 114.197781,259.817131 115.666644,263.355648 C117.133463,266.894166 117.877087,270.638909 117.877087,274.491871 C117.877087,274.841026 117.836229,275.190182 117.756555,275.527086 L84.9696699,414.799292 C84.4875399,416.849305 82.6795523,418.278596 80.5753407,418.278596 L80.5753407,418.278596 Z" id="Fill-1" fill="#B9D5D0" transform="translate(80.575341, 298.778596) rotate(-23.000000) translate(-80.575341, -298.778596) "></path>
        <path d="M548.210794,221.129162 L552.188367,221.129162 L567.50621,156.061687 L558.396813,156.061687 C555.908532,156.061687 553.881951,154.038219 553.881951,151.54921 C553.881951,149.060201 555.908532,147.036732 558.396813,147.036732 L569.630851,147.036732 L578.46854,109.497412 L578.458325,109.219721 C578.366393,106.834846 577.859748,104.51531 576.950647,102.320327 C575.937357,99.8803219 574.470538,97.6914641 572.593091,95.8150085 C570.717687,93.9385529 568.525629,92.4725082 566.080249,91.4556694 C563.64917,90.446998 561.064871,89.9365367 558.396813,89.9365367 L542.002349,89.9365367 C539.336333,89.9365367 536.752035,90.446998 534.320955,91.4556694 C531.873532,92.4725082 529.683518,93.9385529 527.808114,95.8150085 C525.928624,97.6914641 524.461805,99.8803219 523.450557,102.320327 C522.539413,104.517352 522.032768,106.836888 521.94288,109.219721 L521.932665,109.497412 L523.05423,114.26512 L542.002349,114.26512 C544.492673,114.26512 546.517211,116.288588 546.517211,118.777597 C546.517211,121.266607 544.492673,123.290075 542.002349,123.290075 L525.178871,123.290075 L548.210794,221.129162 Z M550.200602,253.788473 C548.094348,253.788473 546.288403,252.359182 545.806273,250.309169 L513.017345,111.034921 C512.937671,110.695975 512.896813,110.348861 512.896813,110.001748 C512.896813,106.150828 513.64248,102.404042 515.109299,98.8655249 C516.576119,95.3270075 518.700759,92.1539804 521.423977,89.432201 C524.145152,86.7124635 527.319855,84.5889446 530.860242,83.1208581 C534.3945,81.6548134 538.143266,80.9115818 542.002349,80.9115818 L545.685741,80.9115818 L545.685741,77.2321771 C545.685741,57.1342967 529.326006,40.78116 509.215464,40.78116 C506.72514,40.78116 504.700602,38.7576916 504.700602,36.2686825 C504.700602,33.7817153 506.72514,31.7582469 509.215464,31.7582469 C516.373869,31.7582469 523.242179,33.3917229 529.630402,36.6096707 L532.237173,33.6347025 C529.501698,29.63677 526.394411,25.8879425 522.999071,22.4923543 C521.240114,20.7322839 521.240114,17.8696172 523.001114,16.1095468 C523.853013,15.2580974 524.986836,14.7884731 526.192161,14.7884731 C527.399529,14.7884731 528.533352,15.2580974 529.385251,16.1115886 C537.473187,24.1972949 543.785821,33.6285769 548.15155,44.1420369 C548.93399,46.0287017 549.685786,48.0889233 550.453925,50.4411287 L551.714409,54.298174 L554.061728,50.9883432 C562.609322,38.9455413 576.486904,31.7582469 591.185741,31.7582469 C593.674022,31.7582469 595.700602,33.7817153 595.700602,36.2686825 C595.700602,38.7576916 593.674022,40.78116 591.185741,40.78116 C571.075198,40.78116 554.715464,57.1342967 554.715464,77.2321771 L554.715464,80.9115818 L558.396813,80.9115818 C562.255896,80.9115818 566.004661,81.6548134 569.538919,83.1208581 C573.079307,84.5889446 576.256053,86.7124635 578.979271,89.432201 C581.700445,92.1519386 583.823043,95.3270075 585.291905,98.8655249 C586.758725,102.404042 587.502349,106.148786 587.502349,110.001748 C587.502349,110.350903 587.46149,110.700059 587.381816,111.036963 L554.594932,250.309169 C554.112801,252.359182 552.304814,253.788473 550.200602,253.788473 L550.200602,253.788473 Z" id="Fill-1-Copy" fill="#B8D3CE" transform="translate(550.200602, 134.288473) rotate(18.000000) translate(-550.200602, -134.288473) "></path>
        <path d="M511.148913,347.871225 C500.55784,347.871225 492.562523,353.914492 489.617688,356.512244 C484.176237,361.3125 479.934223,366.901858 477.00754,373.123895 C474.111577,379.291463 472.64265,385.830537 472.64265,392.556761 C472.644046,399.285779 474.112973,405.823456 477.006144,411.986834 C479.932827,418.21306 484.174841,423.801022 489.612103,428.597088 C495.094048,433.435053 501.498959,437.214364 508.648107,439.83167 C515.815407,442.453166 523.416963,443.781371 531.243325,443.781371 C539.07667,443.781371 546.678225,442.453166 553.837148,439.833067 C560.989089,437.215761 567.393999,433.43645 572.873151,428.598485 C578.314603,423.794039 582.555221,418.206077 585.477714,411.988231 C588.375074,405.822059 589.842604,399.285779 589.842604,392.556761 C589.842604,385.82914 588.375074,379.291463 585.479111,373.128085 C582.556617,366.910238 578.314603,361.32088 572.870359,356.513641 C570.574812,354.487114 562.233208,347.871225 551.273508,347.871225 C545.287492,347.871225 539.31544,349.829316 533.522116,353.692426 C532.830939,354.151921 532.028056,354.396333 531.197247,354.396333 C530.36923,354.396333 529.564951,354.151921 528.87517,353.692426 C523.081847,349.829316 517.116776,347.871225 511.148913,347.871225 M531.243325,452.161219 C522.433955,452.161219 513.863355,450.661226 505.770295,447.701743 C497.636743,444.724104 490.335396,440.40988 484.068721,434.881974 C477.76993,429.323341 472.842324,422.819183 469.424137,415.552459 C466.001761,408.264785 464.266138,400.528789 464.264742,392.558158 C464.264742,384.587526 466.001761,376.850134 469.42693,369.561063 C472.840927,362.294339 477.771326,355.790181 484.074306,350.228755 C487.731263,347.001117 497.691199,339.491378 511.148913,339.491378 C512.418166,339.491378 513.757235,339.573779 515.242917,339.742773 L520.353441,340.325172 L500.75891,325.625523 C499.86387,324.953739 499.283002,323.974694 499.125218,322.867157 C498.966038,321.758224 499.24949,320.656274 499.919723,319.75963 C500.718417,318.693993 501.942988,318.083661 503.276471,318.083661 C504.186871,318.083661 505.055381,318.372766 505.785655,318.920249 L527.393677,335.131064 L527.700867,332.755377 C528.614059,325.657646 530.450217,318.745669 533.157677,312.213578 C537.243304,302.353291 543.159504,293.515345 550.735925,285.94136 C551.526241,285.152257 552.579065,284.716505 553.698912,284.716505 C554.817363,284.716505 555.86879,285.152257 556.659106,285.944153 C558.292798,287.578223 558.291402,290.236031 556.65771,291.870102 C549.86183,298.661968 544.560011,306.585114 540.897468,315.423059 C538.198386,321.934201 536.47114,328.802882 535.760414,335.836367 L535.560741,337.814011 L558.108484,332.175771 C558.444997,332.091972 558.789888,332.048676 559.131986,332.048676 C561.053319,332.048676 562.721919,333.354536 563.189686,335.223242 C563.528991,336.584967 563.164552,338.019318 562.215056,339.064005 L560.753111,340.670143 L562.821058,341.333547 C570.368157,343.76091 575.829157,347.950834 578.413741,350.231549 C584.719514,355.799957 589.648516,362.302719 593.061118,369.56246 C596.484889,376.85153 598.220513,384.588923 598.220513,392.556761 C598.220513,400.525996 596.483493,408.263388 593.058325,415.551062 C589.649913,422.809407 584.722306,429.313565 578.416534,434.880577 C572.148462,440.414069 564.847115,444.728294 556.716355,447.701743 C548.631674,450.661226 540.061074,452.161219 531.243325,452.161219" id="Fill-1" fill="#B8D3CE" transform="translate(531.242627, 368.438862) rotate(14.000000) translate(-531.242627, -368.438862) "></path>
        <path d="M177.148913,65.871225 C166.55784,65.871225 158.562523,71.9144916 155.617688,74.5122442 C150.176237,79.3125001 145.934223,84.9018583 143.00754,91.123895 C140.111577,97.2914627 138.64265,103.830537 138.64265,110.556761 C138.644046,117.285779 140.112973,123.823456 143.006144,129.986834 C145.932827,136.21306 150.174841,141.801022 155.612103,146.597088 C161.094048,151.435053 167.498959,155.214364 174.648107,157.83167 C181.815407,160.453166 189.416963,161.781371 197.243325,161.781371 C205.07667,161.781371 212.678225,160.453166 219.837148,157.833067 C226.989089,155.215761 233.393999,151.43645 238.873151,146.598485 C244.314603,141.794039 248.555221,136.206077 251.477714,129.988231 C254.375074,123.822059 255.842604,117.285779 255.842604,110.556761 C255.842604,103.82914 254.375074,97.2914627 251.479111,91.1280849 C248.556617,84.9102382 244.314603,79.32088 238.870359,74.5136409 C236.574812,72.4871145 228.233208,65.871225 217.273508,65.871225 C211.287492,65.871225 205.31544,67.829316 199.522116,71.6924256 C198.830939,72.1519206 198.028056,72.3963328 197.197247,72.3963328 C196.36923,72.3963328 195.564951,72.1519206 194.87517,71.6924256 C189.081847,67.829316 183.116776,65.871225 177.148913,65.871225 M197.243325,170.161219 C188.433955,170.161219 179.863355,168.661226 171.770295,165.701743 C163.636743,162.724104 156.335396,158.40988 150.068721,152.881974 C143.76993,147.323341 138.842324,140.819183 135.424137,133.552459 C132.001761,126.264785 130.266138,118.528789 130.264742,110.558158 C130.264742,102.587526 132.001761,94.8501338 135.42693,87.5610632 C138.840927,80.2943389 143.771326,73.7901807 150.074306,68.2287553 C153.731263,65.0011175 163.691199,57.4913776 177.148913,57.4913776 C178.418166,57.4913776 179.757235,57.5737794 181.242917,57.742773 L186.353441,58.3251724 L166.75891,43.6255235 C165.86387,42.953739 165.283002,41.9746935 165.125218,40.867157 C164.966038,39.7582239 165.24949,38.656274 165.919723,37.7596303 C166.718417,36.693993 167.942988,36.0836608 169.276471,36.0836608 C170.186871,36.0836608 171.055381,36.3727656 171.785655,36.9202489 L193.393677,53.1310637 L193.700867,50.7553769 C194.614059,43.6576462 196.450217,36.7456688 199.157677,30.2135777 C203.243304,20.3532907 209.159504,11.515345 216.735925,3.94135957 C217.526241,3.15225727 218.579065,2.71650521 219.698912,2.71650521 C220.817363,2.71650521 221.86879,3.15225727 222.659106,3.94415285 C224.292798,5.57822309 224.291402,8.23603135 222.65771,9.87010158 C215.86183,16.6619679 210.560011,24.5851136 206.897468,33.4230593 C204.198386,39.9342007 202.47114,46.8028823 201.760414,53.8363675 L201.560741,55.8140115 L224.108484,50.1757708 C224.444997,50.0919723 224.789888,50.0486765 225.131986,50.0486765 C227.053319,50.0486765 228.721919,51.354536 229.189686,53.223242 C229.528991,54.5849672 229.164552,56.0193177 228.215056,57.0640054 L226.753111,58.6701428 L228.821058,59.3335474 C236.368157,61.7609098 241.829157,65.9508335 244.413741,68.2315486 C250.719514,73.7999572 255.648516,80.3027188 259.061118,87.5624599 C262.484889,94.8515305 264.220513,102.588923 264.220513,110.556761 C264.220513,118.525996 262.483493,126.263388 259.058325,133.551062 C255.649913,140.809407 250.722306,147.313565 244.416534,152.880577 C238.148462,158.414069 230.847115,162.728294 222.716355,165.701743 C214.631674,168.661226 206.061074,170.161219 197.243325,170.161219" id="Fill-1-Copy-2" fill="#B8D3CE" transform="translate(197.242627, 86.438862) rotate(-24.000000) translate(-197.242627, -86.438862) "></path>
        <path d="M114.550101,572.044927 C109.446013,572.044927 104.460118,572.917119 99.7323495,574.637049 L97.4988862,575.449464 L99.331576,576.961535 C103.052656,580.031868 106.309111,583.640188 109.009917,587.687322 L109.384878,588.25248 C109.591378,588.57174 109.797878,588.895076 109.998944,589.225205 C110.1905,589.533597 110.371188,589.84063 110.551876,590.146305 L110.891514,590.711463 L111.425426,591.642073 L112.453852,591.337757 C112.763602,591.246734 113.073353,591.166579 113.38582,591.087783 L114.699542,590.739993 C115.426369,590.553871 116.159988,590.370466 116.899042,590.20744 L118.212764,589.93437 C118.799659,589.8121 119.386554,589.691189 119.974808,589.589298 C120.965195,589.415403 121.956939,589.268679 122.955477,589.140975 C123.182355,589.112445 123.966241,589.030932 123.966241,589.030932 C124.81262,588.934474 125.64949,588.85432 126.489076,588.790468 L126.881698,588.753787 L128.096246,588.669556 L128.146513,587.455009 C128.170967,586.861321 128.184552,586.275784 128.184552,585.695681 C128.184552,581.908032 127.685963,578.131251 126.702369,574.471305 L126.499945,573.714591 L125.74323,573.512166 C122.121324,572.538083 118.35677,572.044927 114.550101,572.044927 L114.550101,572.044927 Z M67.6011819,572.029983 C63.8135325,572.029983 60.0381101,572.528573 56.3781649,573.512166 L55.6214501,573.714591 L55.4190255,574.471305 C54.4354322,578.131251 53.9368428,581.908032 53.9368428,585.695681 C53.9368428,586.277142 53.9504284,586.866755 53.9762409,587.46316 L54.0292245,588.674991 L55.2410549,588.759221 L55.9787499,588.823073 C58.0627722,588.987458 60.1535873,589.251018 62.1941358,589.608317 L62.3952018,589.64364 C66.8634869,590.439753 71.243466,591.693698 75.4332474,593.372871 L75.9780277,593.588881 C76.4766171,593.794023 76.973848,594.008675 77.4683617,594.226043 C77.9316287,594.429826 78.3921787,594.639044 78.85137,594.853695 C78.85137,594.853695 79.6216703,595.210995 79.8662101,595.330548 C83.5315895,597.110254 87.0244326,599.217372 90.2523576,601.594842 L91.0579803,602.18853 L91.8649616,601.594842 C92.0021756,601.49295 92.6665086,601.036476 92.6665086,601.036476 C93.1392855,600.696837 93.6120624,600.362633 94.0929906,600.03658 C94.5603333,599.720037 95.0317516,599.414362 95.50317,599.111405 C95.8754139,598.873658 96.2490163,598.641345 96.6253358,598.410391 C97.1850602,598.069393 97.7475017,597.728396 98.319453,597.400985 L98.9729176,597.039609 C100.71866,596.065526 102.302734,595.255828 103.821598,594.564323 L105.220909,593.927161 L104.018588,591.968126 C103.750953,591.552408 103.483318,591.146201 103.206173,590.746786 C102.923594,590.340578 102.63558,589.949314 102.346208,589.558051 L102.237524,589.411327 C101.950869,589.025498 101.664214,588.639668 101.362615,588.264707 C101.191437,588.052773 101.014825,587.848989 100.838213,587.642489 L100.59639,587.35991 C99.2160989,585.737796 97.7094622,584.209423 96.1145194,582.814187 L95.865904,582.594101 C95.6716307,582.422924 95.4800746,582.251746 95.2803671,582.086002 C94.8306856,581.713758 94.3755699,581.360534 93.9177371,581.011386 C93.5726643,580.747826 93.2275915,580.486984 92.875726,580.231576 C92.424686,579.90824 91.9695703,579.593055 91.5076618,579.28738 C91.1286252,579.036048 90.7414372,578.792867 90.3515321,578.552402 C83.4636618,574.285183 75.5962739,572.029983 67.6011819,572.029983 L67.6011819,572.029983 Z M131.056536,595.111821 C130.216949,595.118614 129.392307,595.143067 128.57174,595.181107 L128.187269,595.202844 C127.53788,595.238166 126.891208,595.284357 126.247254,595.338699 L125.365552,595.42293 C124.922663,595.467762 124.478416,595.518028 124.034169,595.572371 C123.589921,595.628071 123.151108,595.683772 122.715012,595.747624 L121.988186,595.860384 C113.264909,597.254261 104.814701,600.603097 97.5477942,605.550952 L96.1770129,606.484279 L97.3630308,607.644484 C107.580718,617.642085 114.198236,630.381249 116.502344,644.488477 L116.623255,645.184056 C116.721071,645.808991 116.793074,646.432568 116.866436,647.056144 L116.966969,647.871277 C116.996857,648.091363 117.025387,648.311448 117.048483,648.531534 C117.1069,649.104844 117.14494,649.680871 117.184338,650.256898 L117.253624,651.209245 C117.274003,651.43884 117.294381,651.668436 117.303891,651.900749 C117.359591,653.029707 117.390838,654.1641 117.390838,655.302569 C117.390838,656.248123 117.367743,657.195035 117.328345,658.137872 L117.272644,659.065764 C117.235963,659.69885 117.199282,660.333295 117.14494,660.966382 C117.124562,661.208204 117.034897,662.064093 117.034897,662.064093 C116.976479,662.637403 116.913986,663.210713 116.841982,663.784023 C116.799867,664.110076 116.678956,664.94287 116.678956,664.94287 C116.598801,665.490367 116.511854,666.040582 116.419472,666.588079 L116.328449,667.16954 L115.842086,669.855402 L118.277974,668.624552 C138.620966,658.347089 151.258238,637.770426 151.258238,614.923618 C151.258238,609.312789 150.475711,603.739999 148.933752,598.361483 L148.725893,597.637373 L148.001784,597.430873 C142.613757,595.887555 137.043685,595.105028 131.441007,595.105028 L131.056536,595.111821 Z M50.6803882,595.105028 C45.0777103,595.105028 39.5076377,595.887555 34.1196113,597.430873 L33.3955019,597.637373 L33.1876431,598.361483 C31.645684,603.744075 30.8631567,609.316864 30.8631567,614.923618 C30.8631567,647.496316 57.3617582,674.488072 89.9330974,675.092629 L90.4547822,672.469261 C71.4839301,665.014873 59.2243361,647.058861 59.2243361,626.724021 C59.2243361,624.92937 60.6861405,623.468925 62.4821493,623.468925 C64.2767995,623.468925 65.7372454,624.92937 65.7372454,626.724021 C65.7372454,650.092513 84.7502127,669.212806 108.122781,669.345944 L109.221851,669.352737 L109.568283,667.794475 C110.437757,663.70251 110.879287,659.497784 110.879287,655.302569 C110.879287,654.218442 110.845324,653.13975 110.788264,652.063775 C110.778754,651.855916 110.759735,651.643982 110.742073,651.433406 L110.712185,651.031274 C110.652409,650.224293 110.602142,649.545016 110.530139,648.871173 C110.497534,648.558705 110.455419,648.250313 110.413303,647.941922 L110.365754,647.58598 C110.286958,646.969197 110.208162,646.348337 110.107629,645.730195 C110.043777,645.323987 109.967698,644.920497 109.892977,644.517006 L109.85222,644.295562 C109.751687,643.75214 109.649796,643.212794 109.535677,642.673448 C109.418842,642.135461 109.293855,641.605624 109.166151,641.077147 C109.053391,640.616597 108.939272,640.158764 108.817002,639.705007 C108.65941,639.112677 108.490949,638.523065 108.314337,637.934811 C108.207011,637.576152 108.094251,637.222928 107.980133,636.866987 C107.762764,636.195861 107.539961,635.528811 107.300855,634.867195 L107.057674,634.212372 C102.33534,621.632159 93.3987694,610.847955 81.8918145,603.844608 C81.1187971,603.375907 80.3851778,602.957472 79.6434072,602.549906 L79.0225478,602.210267 C78.4899946,601.926329 77.9533656,601.655977 77.412661,601.386983 L77.223822,601.293243 C76.9181472,601.141085 76.6097554,600.988927 76.300005,600.843561 C76.0445968,600.72265 75.2742965,600.378936 75.2742965,600.378936 L75.135724,600.317801 C74.7227235,600.131679 74.3070059,599.945557 73.8872126,599.768945 L73.6793538,599.561086 L73.3804719,599.559728 C69.5235362,597.991956 65.4899885,596.819523 61.385796,596.076394 C60.4877916,595.916085 59.6713005,595.787022 58.8548094,595.675621 L58.682273,595.652525 C56.1974772,595.318321 53.6800761,595.137633 51.1966388,595.117255 L50.6803882,595.105028 Z M91.0606974,681.632709 C54.2764814,681.632709 24.3502474,651.707834 24.3502474,614.923618 C24.3502474,607.814303 25.4805646,600.782426 27.7099522,594.023619 C28.030571,593.048177 28.8063055,592.273801 29.7817475,591.951823 C35.0787507,590.204723 40.6067081,589.128748 46.2161788,588.753787 L47.5285422,588.664122 L47.4578974,586.779807 C47.4429533,586.415715 47.4252921,586.052981 47.4252921,585.695681 C47.4252921,580.390526 48.2689543,575.141073 49.9318248,570.096761 C50.2538021,569.122677 51.0281781,568.346943 52.0036201,568.026324 C57.0479321,566.362095 62.2946688,565.518433 67.6011819,565.518433 C75.4672113,565.518433 83.356336,567.448938 90.4140256,571.100732 L91.037602,571.42271 L91.662537,571.099374 C98.7147923,567.448938 106.618861,565.518433 114.520213,565.518433 C119.826726,565.518433 125.073463,566.362095 130.116416,568.024965 C131.093217,568.346943 131.867593,569.122677 132.18957,570.096761 C133.852441,575.139714 134.696103,580.389168 134.696103,585.695681 C134.696103,586.052981 134.678442,586.415715 134.663497,586.779807 L134.592853,588.664122 L135.905216,588.753787 C141.514687,589.128748 147.042644,590.204723 152.338289,591.951823 C153.315089,592.273801 154.089465,593.048177 154.412801,594.023619 C156.639472,600.782426 157.769789,607.814303 157.769789,614.923618 C157.769789,643.710025 139.445609,669.119066 112.153611,678.209153 C112.153611,678.209153 111.993302,678.262136 111.986509,678.264853 L111.911789,678.282515 L111.873749,678.301534 L111.463466,678.436031 C110.922761,678.608568 110.391566,678.771594 109.859013,678.926469 L109.736743,678.926469 L109.56149,679.012058 C103.536302,680.752366 97.3127643,681.632709 91.0606974,681.632709 L91.0606974,681.632709 Z" id="Fill-1" fill="#B8D3CE" transform="translate(91.060018, 623.575571) rotate(13.000000) translate(-91.060018, -623.575571) "></path>
        <path d="M367.072499,309.584451 C367.071499,313.460362 366.253208,316.928493 364.420557,320.824393 C362.633923,324.619348 360.042003,328.02951 356.716822,330.958931 C353.352628,333.925332 349.41723,336.244083 345.021669,337.851216 C340.603101,339.464347 335.916436,340.282906 331.091723,340.282906 C326.260008,340.282906 321.573344,339.464347 317.161777,337.852216 C316.649595,337.665317 316.140415,337.465424 315.636235,337.256537 C316.199435,336.787789 316.754633,336.309048 317.299826,335.813315 C317.862026,335.303589 318.411221,334.780871 318.947411,334.246159 C319.697678,333.496563 320.118827,332.479112 320.118827,331.418683 C320.118827,330.358255 319.697678,329.341803 318.947411,328.592207 L295.423058,305.094871 C295.834204,302.169448 296.646493,299.331977 297.76389,296.955258 C299.547523,293.1653 302.138443,289.756138 305.464624,286.822719 C308.831819,283.854319 312.767217,281.535569 317.162778,279.929434 C318.714328,279.36274 320.342907,278.883998 322.004497,278.507201 C322.778772,278.332295 323.483022,277.931511 324.028215,277.354822 L327.845571,273.318997 L334.396897,273.318997 L338.214252,277.366815 C338.758446,277.944504 339.462696,278.347287 340.23597,278.523192 C341.883555,278.89899 343.493127,279.372734 345.020669,279.930434 C349.41623,281.537567 353.351627,283.856318 356.717822,286.824718 C360.042003,289.75214 362.633923,293.161303 364.419557,296.955258 C366.104155,300.537327 367.070498,305.036902 367.072499,309.299605 L367.072499,309.584451 Z M285.03537,340.282906 C274.36158,340.281906 264.327017,336.130144 256.780337,328.593206 C249.233658,321.054269 245.078182,311.031671 245.078182,300.371417 C245.078182,291.054438 248.252309,282.224197 254.090382,275.115029 L262.072216,283.086732 C258.845071,287.854163 257.09645,293.490125 257.09645,299.304991 C257.09645,315.287377 270.111071,328.28937 286.10675,328.28937 C291.928818,328.28937 297.572822,326.541312 302.345516,323.315051 L310.314346,331.27576 C308.923852,332.409149 307.45233,333.453586 305.913783,334.398077 C305.865766,334.426062 305.824752,334.462043 305.779736,334.493026 C299.590538,338.262994 292.47101,340.282906 285.038371,340.282906 L285.03537,340.282906 Z M267.875277,288.883608 L277.182582,298.180597 C277.135565,298.551398 277.103554,298.926196 277.103554,299.304991 C277.103554,300.49435 277.333635,301.652726 277.790798,302.755132 C278.245959,303.846544 278.901192,304.826016 279.737489,305.661565 C280.579788,306.505111 281.564137,307.163756 282.662527,307.615512 C283.759917,308.069268 284.918328,308.300143 286.10675,308.300143 C286.486885,308.300143 286.862019,308.268161 287.234151,308.221186 L288.404566,309.390556 C288.405567,309.391555 288.405567,309.391555 288.405567,309.391555 L295.477078,316.454748 L296.542456,317.518175 C293.386335,319.326201 289.79606,320.293679 286.10675,320.293679 C274.523638,320.293679 265.099291,310.877754 265.099291,299.304991 C265.099291,295.620977 266.067635,292.03491 267.875277,288.883608 L267.875277,288.883608 Z M362.011702,280.82795 C357.896241,277.199905 353.104539,274.37143 347.769645,272.421481 C346.304125,271.885769 344.779583,271.416023 343.224031,271.019236 L339.037545,266.579629 C338.281276,265.778061 337.227902,265.323306 336.12451,265.323306 L335.782389,265.323306 L343.956291,257.155708 C345.518846,255.59455 345.518846,253.063914 343.956291,251.501756 C342.393736,249.941597 339.859837,249.941597 338.297282,251.501756 L333.633626,256.161244 C332.901366,252.956971 331.915016,249.810667 330.643564,246.746319 C329.796263,244.706418 327.455432,243.73894 325.414708,244.584484 C323.372983,245.430028 322.404639,247.768768 323.249939,249.808668 C324.240291,252.193383 325.036573,254.634067 325.648791,257.118728 L322.909818,255.750466 C320.932116,254.763997 318.529263,255.563567 317.540912,257.538502 C316.552561,259.513438 317.353845,261.915143 319.329547,262.901612 L324.71646,265.593161 C324.15426,265.805047 323.635076,266.128872 323.212926,266.574632 L319.02844,270.999247 C317.45188,271.399032 315.904331,271.875775 314.413801,272.420481 C309.078907,274.369431 304.287206,277.197906 300.169744,280.82795 C296.01827,284.487977 292.772117,288.76967 290.521318,293.55509 C289.808065,295.071273 289.20385,296.694398 288.705673,298.384488 L287.781345,297.460985 L270.217108,279.916441 L270.216108,279.915442 L256.780337,266.495674 C255.217783,264.935515 252.683883,264.935515 251.122328,266.495674 C242.064112,275.544797 237.075341,287.575313 237.075341,300.371417 C237.075341,313.16752 242.064112,325.199035 251.122328,334.247159 C260.180545,343.294283 272.223821,348.276597 285.03437,348.278596 L285.038371,348.278596 C293.198268,348.278596 301.044054,346.247691 308.008527,342.439743 C310.068258,343.57713 312.21302,344.557602 314.412801,345.361169 C319.706681,347.297125 325.318673,348.278596 331.091723,348.278596 C336.85577,348.278596 342.466762,347.296126 347.770646,345.360169 C353.10654,343.409221 357.897241,340.581745 362.010702,336.9547 C366.160175,333.299669 369.407328,329.017977 371.663129,324.22556 C374.020966,319.211263 375.07334,314.696696 375.075341,309.585451 L375.075341,309.297606 C375.07334,303.900515 373.828898,298.162607 371.662129,293.554091 C369.407328,288.763673 366.160175,284.48198 362.011702,280.82795 L362.011702,280.82795 Z" id="Fill-1" fill="#B8D3CE" transform="translate(306.075341, 296.278596) rotate(20.000000) translate(-306.075341, -296.278596) "></path>
        <path d="M663.833503,585.016688 C663.833503,592.439703 662.400074,599.650717 659.571229,606.456731 C656.756387,613.265745 652.671166,619.372757 647.426598,624.611768 C642.190033,629.851779 636.078206,633.941787 629.259168,636.767793 C622.463137,639.586798 615.24898,641.016801 607.816759,641.016801 C602.421146,641.016801 596.797465,638.197796 591.09376,632.635784 L589.141176,628.731776 C590.729651,628.587776 592.306122,628.383776 593.873591,628.131775 C593.883594,628.131775 593.895597,628.134775 593.906601,628.134775 C594.386744,628.134775 594.852883,628.044775 595.289014,627.883775 C600.057439,627.013773 604.719833,625.64977 609.232182,623.777766 C617.635694,620.294759 625.166945,615.255749 631.613872,608.803736 C638.073803,602.350723 643.108308,594.822708 646.577345,586.43469 C650.062386,578.050673 651.829915,569.162655 651.829915,560.016637 L651.829915,550.959618 C654.870824,555.097627 658.110792,560.028637 659.583232,563.577644 C662.403075,570.388658 663.833503,577.601673 663.833503,585.016688 L663.833503,585.016688 Z M573.088378,607.317733 C577.882811,608.447735 582.806283,609.016736 587.810778,609.016736 C596.299316,609.016736 604.54478,607.382733 612.317104,604.160726 C620.110433,600.92872 627.096522,596.25471 633.08131,590.268698 C635.348988,588.001694 637.42761,585.590689 639.310172,583.046684 C639.267159,583.154684 639.230148,583.263684 639.185135,583.370684 C636.118218,590.787699 631.667888,597.440713 625.95518,603.146724 C620.252476,608.854736 613.594486,613.309745 606.166265,616.388751 C602.176072,618.042755 598.05284,619.248757 593.833579,620.017759 C591.540893,619.504758 589.284219,618.802756 587.118572,617.905754 C582.303132,615.91075 577.965836,613.053745 574.219716,609.409737 L573.088378,607.317733 Z M650.512521,537.04259 L640.654574,527.18757 C639.094108,525.626567 636.557349,525.626567 634.996883,527.18757 C633.433416,528.750573 633.433416,531.282578 634.996883,532.845582 L643.827523,541.673599 L643.827523,545.016606 C643.827523,552.440621 642.397095,559.653636 639.577252,566.45365 C636.752408,573.264664 632.663185,579.373676 627.422619,584.612687 C622.183053,589.852697 616.069225,593.943706 609.252188,596.770711 C602.456156,599.588717 595.243,601.01672 587.810778,601.01672 C580.38756,601.01672 573.173403,599.586717 566.368369,596.767711 C564.801901,596.11871 563.001363,596.525711 561.866023,597.782714 C560.732684,599.039716 560.511618,600.87472 561.316859,602.364723 L567.462696,613.738746 C567.647751,614.078747 567.880821,614.391747 568.154903,614.665748 C570.706666,617.215753 573.503502,619.442758 576.503399,621.352761 L579.1862,626.716772 C579.213209,626.774772 579.242217,626.831773 579.272226,626.888773 L584.231709,636.805793 C584.423766,637.189794 584.676842,637.540794 584.981933,637.845795 C592.397149,645.25781 600.079446,649.016818 607.816759,649.016818 C616.306296,649.016818 624.552761,647.381814 632.325084,644.157808 C640.119414,640.926801 647.104502,636.252792 653.08529,630.26778 C659.076081,624.282767 663.746477,617.300753 666.963438,609.520737 C670.196405,601.743722 671.835895,593.498705 671.835895,585.016688 C671.835895,576.54667 670.201406,568.304654 666.976442,560.515638 C663.782487,552.816622 653.900534,539.890596 650.512521,537.04259 L650.512521,537.04259 Z" fill="#B8D3CE" transform="translate(616.335895, 587.516818) rotate(37.000000) translate(-616.335895, -587.516818) "></path>
    </g>
</svg>