<svg width="12px" height="13px" viewBox="0 0 12 13" version="1.1" xmlns="http://www.w3.org/2000/svg" xmlns:xlink="http://www.w3.org/1999/xlink">
    <!-- Generator: Sketch 46.1 (44463) - http://www.bohemiancoding.com/sketch -->
    <desc>Created with Sketch.</desc>
    <defs></defs>
    <g id="Page-1" stroke="none" stroke-width="1" fill="none" fill-rule="evenodd">
        <g id="Menu-Page---No-Photos" transform="translate(-1140.000000, -20.000000)" fill-rule="nonzero" fill="#376363">
            <path d="M1152,30.8209135 C1152,31.4939904 1151.79261,32.0254407 1151.37784,32.4152644 C1150.96307,32.8050881 1150.41193,33 1149.72443,33 L1142.27557,33 C1141.58807,33 1141.03693,32.8050881 1140.62216,32.4152644 C1140.20739,32.0254407 1140,31.4939904 1140,30.8209135 C1140,30.5236378 1140.00994,30.2333734 1140.02983,29.9501202 C1140.04972,29.666867 1140.08949,29.3611779 1140.14915,29.0330529 C1140.20881,28.7049279 1140.28409,28.400641 1140.375,28.1201923 C1140.46591,27.8397436 1140.58807,27.5663061 1140.74148,27.2998798 C1140.89489,27.0334535 1141.07102,26.8062901 1141.26989,26.6183894 C1141.46875,26.4304888 1141.71165,26.2804487 1141.99858,26.1682692 C1142.28551,26.0560897 1142.60227,26 1142.94886,26 C1143,26 1143.11932,26.0602965 1143.30682,26.1808894 C1143.49432,26.3014824 1143.70597,26.4360978 1143.94176,26.5847356 C1144.17756,26.7333734 1144.48438,26.8679888 1144.86222,26.9885817 C1145.24006,27.1091747 1145.61932,27.1694712 1146,27.1694712 C1146.38068,27.1694712 1146.75994,27.1091747 1147.13778,26.9885817 C1147.51562,26.8679888 1147.82244,26.7333734 1148.05824,26.5847356 C1148.29403,26.4360978 1148.50568,26.3014824 1148.69318,26.1808894 C1148.88068,26.0602965 1149,26 1149.05114,26 C1149.39773,26 1149.71449,26.0560897 1150.00142,26.1682692 C1150.28835,26.2804487 1150.53125,26.4304888 1150.73011,26.6183894 C1150.92898,26.8062901 1151.10511,27.0334535 1151.25852,27.2998798 C1151.41193,27.5663061 1151.53409,27.8397436 1151.625,28.1201923 C1151.71591,28.400641 1151.79119,28.7049279 1151.85085,29.0330529 C1151.91051,29.3611779 1151.95028,29.666867 1151.97017,29.9501202 C1151.99006,30.2333734 1152,30.5236378 1152,30.8209135 Z M1149,23.5 C1149,24.4661458 1148.70703,25.2910156 1148.12109,25.9746094 C1147.53516,26.6582031 1146.82812,27 1146,27 C1145.17188,27 1144.46484,26.6582031 1143.87891,25.9746094 C1143.29297,25.2910156 1143,24.4661458 1143,23.5 C1143,22.5338542 1143.29297,21.7089844 1143.87891,21.0253906 C1144.46484,20.3417969 1145.17188,20 1146,20 C1146.82812,20 1147.53516,20.3417969 1148.12109,21.0253906 C1148.70703,21.7089844 1149,22.5338542 1149,23.5 Z" id="Shape"></path>
        </g>
    </g>
</svg>