
<svg width="113px" height="68px" viewBox="0 0 113 68" version="1.1" xmlns="http://www.w3.org/2000/svg" xmlns:xlink="http://www.w3.org/1999/xlink">
    <!-- Generator: Sketch 46.1 (44463) - http://www.bohemiancoding.com/sketch -->
    <desc>Created with Sketch.</desc>
    <defs>
        <polygon id="path-1" points="56.5 68 113 68 113 0 56.5 0 0 0 0 68"></polygon>
    </defs>
    <g id="Page-1" stroke="none" stroke-width="1" fill="none" fill-rule="evenodd">
        <g id="Homepage" transform="translate(-812.000000, -2097.000000)">
            <g id="Page-1" transform="translate(812.000000, 2097.000000)">
                <mask id="mask-2" fill="white">
                    <use xlink:href="#path-1"></use>
                </mask>
                <g id="Clip-2"></g>
                <path d="M90.3997489,50.3702771 C94.5753091,50.3702771 97.9329567,53.7384526 97.9329567,57.9256928 C97.9329567,62.1135625 94.5753091,65.4811084 90.3997489,65.4811084 C86.2241887,65.4811084 82.8665411,62.1135625 82.8665411,57.9256928 C82.8665411,53.7384526 86.2241887,50.3702771 90.3997489,50.3702771 L90.3997489,50.3702771 Z M35.1551789,50.3702771 C39.3307391,50.3702771 42.6890144,53.7384526 42.6890144,57.9256928 C42.6890144,62.1135625 39.3307391,65.4811084 35.1551789,65.4811084 C30.9796187,65.4811084 27.6219711,62.1135625 27.6219711,57.9256928 C27.6219711,53.7384526 30.9796187,50.3702771 35.1551789,50.3702771 L35.1551789,50.3702771 Z M8.7886378,30.2222922 C8.09501272,30.2222922 7.53320779,30.7863829 7.53320779,31.4814232 C7.53320779,32.1770931 8.09501272,32.7405542 8.7886378,32.7405542 L36.3572532,32.7405542 C37.0508782,32.7405542 37.6126832,32.1770931 37.6126832,31.4814232 C37.6126832,30.7863829 37.0508782,30.2222922 36.3572532,30.2222922 L8.7886378,30.2222922 Z M3.76629004,20.1479849 C3.07266496,20.1479849 2.51086003,20.7120756 2.51086003,21.4071159 C2.51086003,22.1027858 3.07266496,22.666247 3.76629004,22.666247 L36.3572532,22.666247 C37.0508782,22.666247 37.6126832,22.1027858 37.6126832,21.4071159 C37.6126832,20.7120756 37.0508782,20.1479849 36.3572532,20.1479849 L3.76629004,20.1479849 Z M1.25543001,10.0736777 C0.561804931,10.0736777 0,10.6377684 0,11.3334383 C0,12.0291081 0.561804931,12.5925693 1.25543001,12.5925693 L36.3572532,12.5925693 C37.0508782,12.5925693 37.6126832,12.0291081 37.6126832,11.3334383 C37.6126832,10.6377684 37.0508782,10.0736777 36.3572532,10.0736777 L1.25543001,10.0736777 Z M13.8109856,0 C13.1173605,0 12.5555556,0.564090694 12.5555556,1.25913101 C12.5555556,1.9548009 13.1173605,2.51826203 13.8109856,2.51826203 L77.17756,2.51826203 L90.595596,23.3361047 C90.7418536,23.5690439 90.9665756,23.7516179 91.2239387,23.8473118 L110.488512,31.0879447 L110.488512,57.9256928 L100.444444,57.9256928 C100.444444,52.3773319 95.932429,47.8520151 90.3997489,47.8520151 C84.8676966,47.8520151 80.3556811,52.3773319 80.3556811,57.9256928 L45.1998745,57.9256928 C45.1998745,52.3773319 40.687859,47.8520151 35.1551789,47.8520151 C29.6231266,47.8520151 25.1111111,52.3773319 25.1111111,57.9256928 L15.0664156,57.9256928 L15.0664156,41.5557304 C15.0664156,40.8600605 14.5046107,40.2959699 13.8109856,40.2959699 C13.1173605,40.2959699 12.5555556,40.8600605 12.5555556,41.5557304 L12.5555556,59.1848238 C12.5555556,59.8446084 13.1531402,60.4439548 13.8109856,60.4445843 L25.4638869,60.4445843 C26.5900077,64.7728472 30.4956504,68 35.1551789,68 C39.8165906,68 43.7617794,64.7753655 44.886017,60.4445843 L80.7084569,60.4445843 C81.8339499,64.7728472 85.7402204,68 90.3997489,68 C95.0611606,68 99.0057217,64.7753655 100.129959,60.4445843 L111.743942,60.4445843 C112.401788,60.4445843 112.999372,59.8446084 113,59.1854533 L113,30.2222922 C112.998745,29.711085 112.654757,29.2175056 112.17581,29.0418568 L92.4793687,21.643203 L78.9037763,0.590532446 C78.679682,0.231680107 78.2660178,0.00125913101 77.8441934,0 L13.8109856,0 Z" id="Fill-1" fill="#376363" mask="url(#mask-2)"></path>
            </g>
        </g>
    </g>
</svg>