
<svg width="75px" height="91px" viewBox="0 0 75 91" version="1.1" xmlns="http://www.w3.org/2000/svg" xmlns:xlink="http://www.w3.org/1999/xlink">
    <!-- Generator: Sketch 46.1 (44463) - http://www.bohemiancoding.com/sketch -->
    <desc>Created with Sketch.</desc>
    <defs></defs>
    <g id="Page-1" stroke="none" stroke-width="1" fill="none" fill-rule="evenodd" stroke-linecap="round" stroke-linejoin="round">
        <g id="Homepage" transform="translate(-548.000000, -2298.000000)" stroke="#376363" stroke-width="3">
            <g id="Page-1" transform="translate(550.000000, 2300.000000)">
                <path d="M71,82.6472277 C71,85.0515914 69.0476765,87 66.6378282,87 L4.36151821,87 C1.95232353,87 0,85.0515914 0,82.6472277 L0,4.35342455 C0,1.94840862 1.95232353,0 4.36151821,0 L66.636521,0 C69.0463693,0 70.9986928,1.94840862 70.9986928,4.35342455 L71,82.6472277 Z" id="Stroke-1"></path>
                <path d="M60,60.7836493 C60,64.7687982 56.7686201,68 52.7832515,68 L16.2167485,68 C12.2313799,68 9,64.7687982 9,60.7836493 L9,39.2169995 C9,35.2318506 12.2313799,32 16.2167485,32 L52.7819537,32 C56.7673223,32 59.9987023,35.2318506 59.9987023,39.2169995 L60,60.7836493 Z" id="Stroke-3"></path>
                <path d="M9,58 L60,58" id="Stroke-5"></path>
                <path d="M20,58 L20,68" id="Stroke-7"></path>
                <path d="M34,58 L34,68" id="Stroke-9"></path>
                <path d="M49,58 L49,68" id="Stroke-11"></path>
                <path d="M0,77 L71,77" id="Stroke-13"></path>
                <path d="M0,22 L71,22" id="Stroke-15"></path>
                <path d="M8,10 L24,10" id="Stroke-17"></path>
                <path d="M41,5 C43.7616671,5 46,7.23833288 46,10 C46,12.7616671 43.7616671,15 41,15 C38.2383329,15 36,12.7616671 36,10 C36,7.23833288 38.2383329,5 41,5 Z" id="Stroke-19"></path>
                <path d="M58,5 C60.7616671,5 63,7.23833288 63,10 C63,12.7616671 60.7616671,15 58,15 C55.2383329,15 53,12.7616671 53,10 C53,7.23833288 55.2383329,5 58,5 Z" id="Stroke-21"></path>
            </g>
        </g>
    </g>
</svg>