<svg width="17px" height="14px" viewBox="0 0 17 14" version="1.1" xmlns="http://www.w3.org/2000/svg" xmlns:xlink="http://www.w3.org/1999/xlink">
    <!-- Generator: Sketch 46.1 (44463) - http://www.bohemiancoding.com/sketch -->
    <desc>Created with Sketch.</desc>
    <defs></defs>
    <g id="Page-1" stroke="none" stroke-width="1" fill="none" fill-rule="evenodd">
        <g id="Menu-Page---No-Photos" transform="translate(-1262.000000, -21.000000)" fill-rule="nonzero" fill="#376363">
            <path d="M1269,33.5 C1269,33.9140625 1268.85352,34.2675781 1268.56055,34.5605469 C1268.26758,34.8535156 1267.91406,35 1267.5,35 C1267.08594,35 1266.73242,34.8535156 1266.43945,34.5605469 C1266.14648,34.2675781 1266,33.9140625 1266,33.5 C1266,33.0859375 1266.14648,32.7324219 1266.43945,32.4394531 C1266.73242,32.1464844 1267.08594,32 1267.5,32 C1267.91406,32 1268.26758,32.1464844 1268.56055,32.4394531 C1268.85352,32.7324219 1269,33.0859375 1269,33.5 Z M1278,33.5 C1278,33.9140625 1277.85352,34.2675781 1277.56055,34.5605469 C1277.26758,34.8535156 1276.91406,35 1276.5,35 C1276.08594,35 1275.73242,34.8535156 1275.43945,34.5605469 C1275.14648,34.2675781 1275,33.9140625 1275,33.5 C1275,33.0859375 1275.14648,32.7324219 1275.43945,32.4394531 C1275.73242,32.1464844 1276.08594,32 1276.5,32 C1276.91406,32 1277.26758,32.1464844 1277.56055,32.4394531 C1277.85352,32.7324219 1278,33.0859375 1278,33.5 Z M1279,22.8333333 L1279,27.7222222 C1279,27.875 1278.94551,28.010272 1278.83654,28.1280382 C1278.72756,28.2458044 1278.58794,28.3142361 1278.41767,28.3333333 L1267.7518,29.4982639 C1267.75861,29.5428241 1267.77394,29.6112558 1267.79778,29.703559 C1267.82161,29.7958623 1267.84205,29.8802083 1267.85907,29.9565972 C1267.8761,30.0329861 1267.88462,30.1030093 1267.88462,30.1666667 C1267.88462,30.2685185 1267.80288,30.4722222 1267.63942,30.7777778 L1277.03846,30.7777778 C1277.21554,30.7777778 1277.36879,30.8382523 1277.4982,30.9592014 C1277.6276,31.0801505 1277.69231,31.2233796 1277.69231,31.3888889 C1277.69231,31.5543981 1277.6276,31.6976273 1277.4982,31.8185764 C1277.36879,31.9395255 1277.21554,32 1277.03846,32 L1266.57692,32 C1266.39984,32 1266.24659,31.9395255 1266.11719,31.8185764 C1265.98778,31.6976273 1265.92308,31.5543981 1265.92308,31.3888889 C1265.92308,31.2997685 1265.96054,31.1740451 1266.03546,31.0117188 C1266.11038,30.8493924 1266.21084,30.6600116 1266.33684,30.4435764 C1266.46284,30.2271412 1266.53265,30.1061921 1266.54627,30.0807292 L1264.73798,22.2222222 L1262.65385,22.2222222 C1262.47676,22.2222222 1262.32352,22.1617477 1262.19411,22.0407986 C1262.0647,21.9198495 1262,21.7766204 1262,21.6111111 C1262,21.4456019 1262.0647,21.3023727 1262.19411,21.1814236 C1262.32352,21.0604745 1262.47676,21 1262.65385,21 L1265.26923,21 C1265.37821,21 1265.47526,21.0206887 1265.5604,21.062066 C1265.64553,21.1034433 1265.71364,21.1527778 1265.76472,21.2100694 C1265.81581,21.2673611 1265.86008,21.3453414 1265.89754,21.4440104 C1265.935,21.5426794 1265.96054,21.6270255 1265.97416,21.6970486 C1265.98778,21.7670718 1266.00651,21.8609664 1266.03035,21.9787326 C1266.05419,22.0964988 1266.06951,22.177662 1266.07632,22.2222222 L1278.34615,22.2222222 C1278.52324,22.2222222 1278.67648,22.2826968 1278.80589,22.4036458 C1278.9353,22.5245949 1279,22.6678241 1279,22.8333333 Z" id="Shape"></path>
        </g>
    </g>
</svg>