<svg width="28px" height="28px" viewBox="0 0 28 28" version="1.1" xmlns="http://www.w3.org/2000/svg" xmlns:xlink="http://www.w3.org/1999/xlink">
    <g id="Page-1" stroke="none" stroke-width="1" fill="none" fill-rule="evenodd">
        <g id="Homepage" transform="translate(-440.000000, -7190.000000)" fill-rule="nonzero" fill="#FFF6DF">
            <g id="Group-7" transform="translate(440.000000, 7190.000000)">
                <path d="M13.9996232,21 C10.1396006,21 7,17.8592461 7,13.9991522 C7,10.1388698 10.1396006,7 13.9996232,7 C17.8594574,7 21,10.1388698 21,13.9991522 C21,17.8592461 17.8594574,21 13.9996232,21 Z M13.9996232,8.88407552 C11.1791635,8.88407552 8.88394876,11.1785027 8.88394876,13.9991522 C8.88394876,16.8196132 11.1791635,19.1159245 13.9996232,19.1159245 C16.8208365,19.1159245 19.1160512,16.8196132 19.1160512,13.9991522 C19.1160512,11.1785027 16.8208365,8.88407552 13.9996232,8.88407552 Z" id="Shape"></path>
                <circle id="Oval" cx="21.9242" cy="5.9242" r="1"></circle>
                <path d="M20.162513,28 L7.83748701,28 C3.51548939,28 0,24.4845106 0,20.1634766 L0,7.83845058 C0,3.51548939 3.51548939,0 7.83748701,0 L20.162513,0 C24.4845106,0 28,3.51548939 28,7.83845058 L28,20.1634766 C28,24.4845106 24.4845106,28 20.162513,28 Z M7.83748701,1.92714033 C4.57888542,1.92714033 1.92714033,4.57888542 1.92714033,7.83845058 L1.92714033,20.1634766 C1.92714033,23.4211146 4.57888542,26.0728597 7.83748701,26.0728597 L20.162513,26.0728597 C23.4211146,26.0728597 26.0728597,23.4211146 26.0728597,20.1634766 L26.0728597,7.83845058 C26.0728597,4.57888542 23.4211146,1.92714033 20.162513,1.92714033 L7.83748701,1.92714033 L7.83748701,1.92714033 Z" id="Shape"></path>
            </g>
        </g>
    </g>
</svg>