<?xml version="1.0" encoding="utf-8"?>
<!-- Generator: Adobe Illustrator 21.1.0, SVG Export Plug-In . SVG Version: 6.00 Build 0)  -->
<svg version="1.1" id="Layer_1" xmlns="http://www.w3.org/2000/svg" xmlns:xlink="http://www.w3.org/1999/xlink" x="0px" y="0px"
	 viewBox="0 0 573.5 161.5" style="enable-background:new 0 0 573.5 161.5;" xml:space="preserve">
<style type="text/css">
	.st0{fill:#666E79;}
	.st1{fill:#386364;}
</style>
<title>logo</title>
<g id="Layer_2">
	<g id="Layer_1-2">
		<path class="st0" d="M314.6,116.6c0.5,0,0.6,0.4,0.6,0.9s-0.2,0.9-0.6,0.9h-2.9v11.2c0,0.4-0.5,0.6-1,0.6s-1-0.2-1-0.6v-11.2h-2.9
			c-0.4,0-0.6-0.4-0.6-0.9s0.2-0.9,0.6-0.9L314.6,116.6z"/>
		<path class="st0" d="M324.8,123.9h-4.6v5.6c0,0.4-0.5,0.6-1,0.6s-1-0.2-1-0.6v-12.3c0-0.4,0.5-0.6,1-0.6s1,0.2,1,0.6v5.1h4.6v-5.1
			c0-0.4,0.5-0.6,1-0.6s1,0.2,1,0.6v12.3c0,0.4-0.5,0.6-1,0.6s-1-0.2-1-0.6V123.9z"/>
		<path class="st0" d="M332.6,122.6h2.9c0.4,0,0.7,0.4,0.7,0.8c0,0,0,0,0,0c0,0.4-0.3,0.7-0.6,0.8c0,0,0,0,0,0h-2.9v4.3h5.5
			c0.4,0,0.6,0.4,0.6,0.9s-0.2,0.9-0.6,0.9h-6.6c-0.4,0-0.9-0.2-0.9-0.6v-12.3c0-0.4,0.5-0.7,0.9-0.7h6.6c0.5,0,0.6,0.4,0.6,0.9
			s-0.2,0.9-0.6,0.9h-5.5V122.6z"/>
		<path class="st0" d="M341.7,117.2c0-0.3,0.3-0.6,0.6-0.6c0,0,0,0,0,0h3.5c2.4,0,4.3,0.9,4.3,3.8c0.2,1.7-0.9,3.3-2.6,3.7l2.6,4.9
			c0,0.1,0.1,0.2,0.1,0.3c-0.1,0.6-0.6,1-1.2,1c-0.4,0-0.7-0.3-0.8-0.6l-2.7-5.3h-1.9v5.2c0,0.4-0.5,0.6-1,0.6s-1-0.2-1-0.6
			L341.7,117.2z M343.7,118.3v4.4h2.2c1.4,0,2.3-0.6,2.3-2.2s-0.9-2.2-2.3-2.2L343.7,118.3z"/>
		<path class="st0" d="M355.5,122.6h2.9c0.4,0,0.7,0.4,0.7,0.8c0,0,0,0,0,0c0,0.4-0.3,0.7-0.6,0.8c0,0,0,0,0,0h-2.9v4.3h5.5
			c0.4,0,0.6,0.4,0.6,0.9s-0.2,0.9-0.6,0.9h-6.6c-0.4,0-0.9-0.2-0.9-0.6v-12.3c0-0.4,0.5-0.7,0.9-0.7h6.6c0.5,0,0.6,0.4,0.6,0.9
			s-0.2,0.9-0.6,0.9h-5.5V122.6z"/>
		<path class="st0" d="M366.3,117.5c-0.2,0.9-0.5,1.7-0.9,2.5c-0.1,0.2-0.2,0.3-0.4,0.3c-0.3,0-0.7-0.2-0.7-0.5c0-0.1,0-0.2,0.1-0.2
			l0.4-1c-0.4-0.2-0.6-0.6-0.6-1c0-0.6,0.5-1.1,1.1-1.1S366.3,116.9,366.3,117.5L366.3,117.5z"/>
		<path class="st0" d="M375,126.6c0-3.3-6.1-2-6.1-6.5c0-2.8,2.3-3.6,4.3-3.6c1.2,0,3.4,0.3,3.4,1.3c0,0.4-0.3,1.1-0.8,1.1
			s-1-0.7-2.6-0.7c-1.4,0-2.3,0.5-2.3,1.7c0,2.8,6.1,1.5,6.1,6.5c0,2.7-1.8,4-4.2,4s-4.1-1.3-4.1-2.2c0-0.4,0.4-1.1,0.9-1.1
			c0.7,0,1.1,1.5,3.2,1.5C374,128.5,375,127.9,375,126.6z"/>
		<path class="st0" d="M391.8,129.5l-4.5-8.5v8.6c0,0.4-0.5,0.6-1,0.6s-1-0.2-1-0.6v-12.3c0-0.5,0.5-0.7,1-0.7c0.7,0,1,0.3,1.5,1.1
			l4.1,8.1v-8.6c0-0.4,0.5-0.6,1-0.6s1,0.2,1,0.6v12.3c0,0.4-0.5,0.6-1,0.6C392.5,130.2,392,129.9,391.8,129.5z"/>
		<path class="st0" d="M397.7,126.1v-5.4c0-3,1.8-4.2,4.2-4.2s4.2,1.1,4.2,4.2v5.4c0,3-1.8,4.1-4.2,4.1S397.7,129.2,397.7,126.1z
			 M404.1,120.7c0-1.6-0.8-2.4-2.2-2.4s-2.2,0.8-2.2,2.4v5.4c0,1.6,0.8,2.4,2.2,2.4s2.2-0.8,2.2-2.4V120.7z"/>
		<path class="st0" d="M414.9,117.2c0-0.4,0.4-0.7,0.7-0.6c0,0,0,0,0,0h3.6c2.3,0,4.1,1.1,4.1,4.1v0.2c0,3-1.8,4.1-4.2,4.1h-2.3v4.6
			c0,0.4-0.5,0.6-1,0.6s-1-0.2-1-0.6L414.9,117.2z M416.9,118.3v5h2.3c1.4,0,2.2-0.8,2.2-2.4v-0.2c0-1.6-0.8-2.4-2.2-2.4
			L416.9,118.3z"/>
		<path class="st0" d="M427.3,130.2c-0.4,0-0.9-0.2-0.9-0.6v-12.3c0-0.4,0.5-0.6,1-0.6s1,0.2,1,0.6v11.2h4.8c0.4,0,0.6,0.4,0.6,0.9
			s-0.2,0.9-0.6,0.9L427.3,130.2z"/>
		<path class="st0" d="M435.8,129.4c0-0.1,0-0.1,0-0.2l3.7-12.1c0.2-0.5,0.7-0.7,1.2-0.7c0.5-0.1,1,0.2,1.3,0.7l3.7,12.1
			c0,0.1,0,0.1,0,0.2c0,0.5-0.7,0.8-1.2,0.8c-0.3,0-0.6-0.1-0.7-0.4l-0.8-2.7h-4.6l-0.8,2.7c-0.1,0.3-0.4,0.5-0.7,0.4
			C436.5,130.2,435.8,129.9,435.8,129.4z M442.6,125.5l-1.9-6.4l-1.9,6.4H442.6z"/>
		<path class="st0" d="M454.9,116.6c0.5,0,0.6,0.4,0.6,0.9s-0.2,0.9-0.6,0.9h-2.9v11.2c0,0.4-0.5,0.6-1,0.6s-1-0.2-1-0.6v-11.2h-2.9
			c-0.4,0-0.6-0.4-0.6-0.9s0.2-0.9,0.6-0.9L454.9,116.6z"/>
		<path class="st0" d="M460.5,122.6h2.9c0.4,0,0.7,0.4,0.7,0.8c0,0,0,0,0,0c0,0.4-0.3,0.7-0.6,0.8c0,0,0,0,0,0h-2.9v4.3h5.5
			c0.4,0,0.6,0.4,0.6,0.9s-0.2,0.9-0.6,0.9h-6.6c-0.4,0-0.9-0.2-0.9-0.6v-12.3c0-0.4,0.5-0.7,0.9-0.7h6.6c0.5,0,0.6,0.4,0.6,0.9
			s-0.2,0.9-0.6,0.9h-5.5L460.5,122.6z"/>
		<path class="st0" d="M475.6,130.2c-0.4,0-0.9-0.2-0.9-0.6v-12.3c0-0.4,0.5-0.6,1-0.6s1,0.2,1,0.6v11.2h4.8c0.4,0,0.6,0.4,0.6,0.9
			s-0.2,0.9-0.6,0.9L475.6,130.2z"/>
		<path class="st0" d="M485,117.2c0-0.4,0.5-0.6,1-0.6s1,0.2,1,0.6v12.3c0,0.4-0.5,0.6-1,0.6s-1-0.2-1-0.6V117.2z"/>
		<path class="st0" d="M490.9,117.2c0-0.4,0.5-0.6,1-0.6s1,0.2,1,0.6v5.7l4.5-6c0.1-0.2,0.3-0.3,0.6-0.3c0.6,0,1,0.4,1.1,1
			c0,0.1-0.1,0.3-0.1,0.4l-3.6,4.5l4.2,6.5c0.1,0.1,0.1,0.2,0.1,0.4c-0.1,0.6-0.6,1-1.1,1c-0.3,0-0.6-0.1-0.7-0.4l-3.8-5.8l-1.2,1.5
			v3.9c0,0.4-0.5,0.6-1,0.6s-1-0.2-1-0.6L490.9,117.2z"/>
		<path class="st0" d="M504.3,122.6h2.9c0.4,0,0.7,0.4,0.7,0.8c0,0,0,0,0,0c0,0.4-0.3,0.7-0.6,0.8c0,0,0,0,0,0h-2.9v4.3h5.5
			c0.4,0,0.6,0.4,0.6,0.9s-0.2,0.9-0.6,0.9h-6.6c-0.4,0-0.9-0.2-0.9-0.6v-12.3c0-0.4,0.5-0.7,0.9-0.7h6.6c0.5,0,0.6,0.4,0.6,0.9
			s-0.2,0.9-0.6,0.9h-5.5V122.6z"/>
		<path class="st0" d="M525.2,123.9h-4.6v5.6c0,0.4-0.5,0.6-1,0.6s-1-0.2-1-0.6v-12.3c0-0.4,0.5-0.6,1-0.6s1,0.2,1,0.6v5.1h4.6v-5.1
			c0-0.4,0.5-0.6,1-0.6s1,0.2,1,0.6v12.3c0,0.4-0.5,0.6-1,0.6s-1-0.2-1-0.6V123.9z"/>
		<path class="st0" d="M530.9,126.1v-5.4c0-3,1.8-4.2,4.2-4.2s4.2,1.1,4.2,4.2v5.4c0,3-1.8,4.1-4.2,4.1S530.9,129.2,530.9,126.1z
			 M537.3,120.7c0-1.6-0.8-2.4-2.2-2.4s-2.2,0.8-2.2,2.4v5.4c0,1.6,0.8,2.4,2.2,2.4s2.2-0.8,2.2-2.4V120.7z"/>
		<path class="st0" d="M548.8,125.2c-0.1,0.3-0.4,0.4-0.7,0.4c-0.3,0-0.6-0.2-0.7-0.4l-2.5-4.7v9.1c0,0.4-0.5,0.6-1,0.6
			s-1-0.2-1-0.6v-12c-0.1-0.5,0.3-0.9,0.8-1c0.1,0,0.1,0,0.2,0c0.7,0,1.1,0.2,1.6,1.1l2.6,4.9l2.6-4.9c0.5-0.9,0.8-1.1,1.5-1.1
			c0.5-0.1,0.9,0.3,1,0.8c0,0.1,0,0.1,0,0.2v12c0,0.4-0.5,0.6-1,0.6s-1-0.2-1-0.6v-8.9L548.8,125.2z"/>
		<path class="st0" d="M559.2,122.6h2.8c0.4,0,0.7,0.4,0.7,0.8c0,0,0,0,0,0c0,0.4-0.3,0.7-0.6,0.8c0,0,0,0,0,0h-2.9v4.3h5.5
			c0.4,0,0.7,0.4,0.7,0.9s-0.2,0.9-0.7,0.9H558c-0.4,0-0.9-0.2-0.9-0.6v-12.3c0-0.4,0.5-0.7,0.9-0.7h6.6c0.5,0,0.7,0.4,0.7,0.9
			s-0.2,0.9-0.7,0.9h-5.5L559.2,122.6z"/>
		<path class="st0" d="M56.7,117.2c0-0.4,0.4-0.7,0.9-0.7h3.4c2,0,3.8,0.6,3.8,3.2c0.1,1.2-0.5,2.4-1.6,3c1.2,0.4,1.9,1.2,1.9,3.1
			v0.3c0,2.9-1.6,3.9-3.7,3.9h-3.8c-0.5,0-0.9-0.3-0.9-0.6L56.7,117.2z M58.7,122h2.2c0.9,0.1,1.8-0.5,1.9-1.4c0-0.2,0-0.3,0-0.5
			c0-1.2-0.8-1.8-1.9-1.8h-2.2L58.7,122z M61,128.4c1.3,0,2.1-0.7,2.1-2.3v-0.3c0-1.6-0.8-2.2-2.1-2.2h-2.4v4.8H61z"/>
		<path class="st0" d="M68.2,126.1v-5.4c0-3,1.8-4.2,4.2-4.2s4.2,1.1,4.2,4.2v5.4c0,3-1.8,4.2-4.2,4.2S68.2,129.2,68.2,126.1z
			 M74.6,120.7c0-1.6-0.8-2.4-2.2-2.4s-2.2,0.8-2.2,2.4v5.4c0,1.6,0.8,2.4,2.2,2.4s2.2-0.8,2.2-2.4V120.7z"/>
		<path class="st0" d="M86.8,117.2c0-0.4,0.5-0.6,1-0.6s1,0.2,1,0.6v8.9c0,3-1.9,4.2-4.3,4.2s-4.2-1.1-4.2-4.2v-8.9
			c0-0.4,0.5-0.6,1-0.6s1,0.2,1,0.6v8.9c-0.1,1.3,0.8,2.4,2.1,2.5s2.4-0.8,2.5-2.1c0-0.1,0-0.3,0-0.4L86.8,117.2z"/>
		<path class="st0" d="M99,129.5l-4.5-8.5v8.6c0,0.4-0.5,0.6-1,0.6s-1-0.2-1-0.6v-12.3c0-0.5,0.5-0.7,1-0.7c0.7,0,1,0.3,1.5,1.1
			l4.1,8.1v-8.6c0-0.4,0.5-0.6,1-0.6s1,0.2,1,0.6v12.3c0,0.4-0.5,0.6-1,0.6C99.7,130.2,99.2,129.9,99,129.5z"/>
		<path class="st0" d="M112.4,116.6c0.4,0,0.7,0.4,0.7,0.9s-0.2,0.9-0.7,0.9h-2.9v11.2c0,0.4-0.5,0.6-1,0.6s-1-0.2-1-0.6v-11.2h-2.9
			c-0.4,0-0.7-0.4-0.7-0.9s0.2-0.9,0.7-0.9H112.4z"/>
		<path class="st0" d="M116,117.2c0-0.4,0.5-0.6,1-0.6s1,0.2,1,0.6v12.3c0,0.4-0.5,0.6-1,0.6s-1-0.2-1-0.6V117.2z"/>
		<path class="st0" d="M121.8,117.2c0-0.4,0.4-0.7,0.9-0.7h6.5c0.4,0,0.6,0.4,0.6,0.9s-0.2,0.9-0.6,0.9h-5.4v4.3h2.9
			c0.4,0,0.6,0.4,0.6,0.8c0,0.4-0.2,0.7-0.6,0.8c0,0,0,0,0,0h-2.9v5.4c0,0.4-0.5,0.6-1,0.6s-1-0.2-1-0.6L121.8,117.2z"/>
		<path class="st0" d="M139,117.2c0-0.4,0.5-0.6,1-0.6s1,0.2,1,0.6v8.9c0,3-1.9,4.2-4.3,4.2s-4.2-1.1-4.2-4.2v-8.9
			c0-0.4,0.5-0.6,1-0.6s1,0.2,1,0.6v8.9c-0.1,1.3,0.8,2.4,2.1,2.5c1.3,0.1,2.4-0.8,2.5-2.1c0-0.1,0-0.3,0-0.4L139,117.2z"/>
		<path class="st0" d="M145.7,130.2c-0.4,0-0.9-0.2-0.9-0.6v-12.3c0-0.4,0.5-0.6,1-0.6s1,0.2,1,0.6v11.2h4.8c0.4,0,0.6,0.4,0.6,0.9
			s-0.2,0.9-0.6,0.9L145.7,130.2z"/>
		<path class="st0" d="M164.4,116.6c2.4,0,4.2,1.1,4.2,4.2v5.3c0,3-1.8,4.2-4.2,4.2h-3.3c-0.5,0-0.9-0.3-0.9-0.6v-12.3
			c0-0.3,0.4-0.6,0.9-0.6H164.4z M162.2,118.3v10.1h2.2c1.4,0,2.2-0.8,2.2-2.4v-5.3c0-1.6-0.8-2.4-2.2-2.4L162.2,118.3z"/>
		<path class="st0" d="M172.3,117.2c0-0.4,0.5-0.6,1-0.6s1,0.2,1,0.6v12.3c0,0.4-0.5,0.6-1,0.6s-1-0.2-1-0.6V117.2z"/>
		<path class="st0" d="M183.8,126.6c0-3.3-6.1-2-6.1-6.5c0-2.8,2.3-3.6,4.3-3.6c1.2,0,3.4,0.3,3.4,1.3c0,0.4-0.3,1.1-0.8,1.1
			s-1-0.7-2.6-0.7c-1.4,0-2.3,0.5-2.3,1.7c0,2.8,6.1,1.5,6.1,6.5c0,2.7-1.8,4-4.2,4s-4.1-1.3-4.1-2.2c0-0.4,0.4-1.1,0.9-1.1
			c0.7,0,1.1,1.5,3.2,1.5C182.8,128.5,183.8,127.9,183.8,126.6z"/>
		<path class="st0" d="M195.6,123.9H191v5.6c0,0.4-0.5,0.6-1,0.6s-1-0.2-1-0.6v-12.3c0-0.4,0.5-0.6,1-0.6s1,0.2,1,0.6v5.1h4.6v-5.1
			c0-0.4,0.5-0.6,1-0.6s1,0.2,1,0.6v12.3c0,0.4-0.5,0.6-1,0.6s-1-0.2-1-0.6L195.6,123.9z"/>
		<path class="st0" d="M203.1,129.2c0,0.6-0.5,1.1-1.1,1.1c-0.6,0-1.1-0.5-1.1-1.1c0,0,0,0,0,0c0-0.6,0.5-1.1,1.1-1.1c0,0,0,0,0,0
			C202.6,128.1,203.1,128.6,203.1,129.2z"/>
		<path class="st0" d="M210.4,118.3c-1.4,0-2.2,0.8-2.2,2.4v5.4c0,1.6,0.8,2.4,2.3,2.4c1.9,0,2.1-1.3,2.1-2.1c0-0.5,0.4-0.7,1-0.7
			s1,0.2,1,1c0,2-1.7,3.5-4.2,3.5c-2.2,0-4.1-1.1-4.1-4.2v-5.4c0-3,1.9-4.2,4.1-4.2c2.6,0,4.2,1.4,4.2,3.4c0,0.8-0.3,1-1,1
			s-1-0.2-1-0.7c0-1.1-0.9-1.9-1.9-1.9C210.5,118.3,210.5,118.3,210.4,118.3z"/>
		<path class="st0" d="M217.6,126.1v-5.4c0-3,1.8-4.2,4.2-4.2s4.2,1.1,4.2,4.2v5.4c0,3-1.8,4.2-4.2,4.2S217.6,129.2,217.6,126.1z
			 M224,120.7c0-1.6-0.8-2.4-2.2-2.4s-2.2,0.8-2.2,2.4v5.4c0,1.6,0.8,2.4,2.2,2.4s2.2-0.8,2.2-2.4V120.7z"/>
		<path class="st0" d="M235.6,125.2c-0.1,0.3-0.4,0.4-0.7,0.4c-0.3,0-0.6-0.2-0.7-0.4l-2.5-4.7v9.1c0,0.4-0.5,0.6-1,0.6
			s-1-0.2-1-0.6v-12c-0.1-0.5,0.3-0.9,0.8-1c0.1,0,0.1,0,0.2,0c0.7,0,1.1,0.2,1.6,1.1l2.6,4.9l2.6-4.9c0.5-0.9,0.8-1.1,1.6-1.1
			c0.5-0.1,0.9,0.3,1,0.8c0,0.1,0,0.1,0,0.2v12c0,0.4-0.5,0.6-1,0.6s-1-0.2-1-0.6v-8.9L235.6,125.2z"/>
		<path class="st1" d="M57.2,78.5c-0.1,0.3-0.4,0.8-0.9,1.6c-0.4,0.8-1,1.8-1.7,2.9c-0.7,1.1-1.6,2.2-2.6,3.4c-1,1.2-2,2.3-3.2,3.3
			c-1.1,1-2.4,1.8-3.7,2.5c-1.3,0.7-2.7,1-4.1,1c-2,0-4-0.4-5.8-1.3c-1.4-0.7-2.8-1.6-3.9-2.8c-0.7,1.5-1.6,2.9-2.6,4.2
			c-1,1.3-2.1,2.4-3.4,3.3c-1.2,0.9-2.5,1.7-4,2.2c-1.4,0.5-2.8,0.8-4.3,0.8c-2.5,0.1-5-0.8-6.9-2.4c-2-1.8-3.7-4-4.8-6.4
			c-1.4-3-2.4-6.1-3-9.3c-0.7-3.7-1.2-7.4-1.6-11.1c-0.4-3.9-0.6-7.8-0.7-11.8S0,51,0,47.5c0-6.9,0.2-12.8,0.6-17.8
			c0.3-4.3,0.8-8.6,1.6-12.8c0.5-2.9,1.3-5.8,2.4-8.6c0.7-1.8,1.7-3.6,2.9-5.1c0.8-1.1,1.9-1.9,3.1-2.5c1-0.4,2-0.6,3.1-0.7
			c1.6,0,3.1,0.5,4.4,1.5c1.4,1.1,2.5,2.5,3.2,4.1c1,2,1.6,4.1,2,6.3c0.4,2.7,0.7,5.4,0.6,8.1c0,4.9-0.5,9.8-1.5,14.7
			c-1,5.1-2.4,10.1-4,15.1c-1.6,5.1-3.4,10-5.4,14.9s-4,9.4-5.9,13.8c0.3,2.1,0.7,4.2,1.2,6.2c0.5,1.8,1.2,3.6,2.1,5.2
			c0.7,1.4,1.8,2.6,3,3.7c1.1,0.9,2.5,1.4,4,1.4c1.5,0,3-0.4,4.2-1.3c1.3-0.9,2.5-2.1,3.4-3.4c1-1.5,1.8-3.1,2.3-4.8
			c0.6-1.8,0.9-3.6,0.9-5.4c0-1.3-0.1-2.5-0.4-3.8c-0.2-1.2-0.6-2.3-1.1-3.4c-0.5-0.9-1.1-1.8-1.9-2.4c-0.8-0.6-1.8-1-2.8-0.9
			c-0.7,0-1.3,0.1-1.9,0.5c-0.4,0.3-0.8,0.7-1,1.1c-0.2,0.4-0.3,0.8-0.4,1.2c0,0.4-0.1,0.7-0.1,0.8c0,0.6,0.1,1.3,0.4,1.9
			c0.3,0.7,0.9,1.3,1.5,1.7c0.7,0.5,1.2,1.3,1.1,2.2c0,0.7-0.2,1.3-0.7,1.8c-0.5,0.4-1.1,0.7-1.7,0.7c-0.9,0-1.7-0.3-2.4-0.8
			c-0.7-0.5-1.3-1.2-1.8-2c-0.5-0.8-0.9-1.7-1.1-2.6c-0.3-0.8-0.4-1.7-0.4-2.6c0-1.2,0.2-2.4,0.7-3.6c0.8-2.1,2.4-3.7,4.5-4.6
			c1-0.4,2.1-0.7,3.2-0.7c1.7,0,3.5,0.4,5,1.3c1.4,0.9,2.6,2.1,3.5,3.5c1,1.5,1.7,3.2,2.1,5c0.4,1.8,0.6,3.7,0.6,5.6
			c0,1.1-0.1,2.2-0.2,3.2c0.3,0.5,0.5,0.9,0.9,1.4c0.4,0.6,1,1.2,1.6,1.7c0.7,0.6,1.5,1,2.4,1.4c1,0.4,2.1,0.6,3.2,0.6
			c1.2,0,2.4-0.5,3.3-1.2c1.2-0.9,2.3-1.9,3.3-3.1c1.1-1.2,2-2.5,2.9-3.9c0.8-1.2,1.5-2.5,2.2-3.9c0.2-0.4,0.5-0.8,0.9-1
			c0.4-0.2,0.9-0.4,1.3-0.4c0.7,0,1.4,0.3,1.8,0.8c0.4,0.5,0.7,1.1,0.7,1.8C57.4,77.8,57.3,78.1,57.2,78.5z M5.8,69.9
			c1.5-3.7,3-7.6,4.6-11.7s2.9-8.3,4.2-12.5c1.2-4.2,2.3-8.5,3.1-12.9c0.8-4.2,1.2-8.5,1.2-12.8c0-1.6-0.1-3.3-0.2-5
			c-0.1-1.6-0.4-3.2-0.8-4.8c-0.3-1.3-0.9-2.5-1.6-3.7C15.6,5.6,14.6,5,13.5,5c-0.5,0.1-1,0.3-1.4,0.7c-0.7,0.7-1.3,1.6-1.8,2.5
			C9.6,9.8,9,11.4,8.6,13.1c-0.7,2.6-1.3,5.2-1.7,7.9c-0.5,3.2-0.9,7.1-1.3,11.6c-0.3,4.5-0.5,9.8-0.5,15.9c0,2,0,4.1,0.1,6.2
			s0.1,4.1,0.2,6c0.1,1.9,0.1,3.6,0.2,5.2C5.7,67.6,5.8,68.9,5.8,69.9z"/>
		<path class="st1" d="M83.2,89.6c-1,0-2-0.1-2.9-0.3c-0.7,1.3-1.5,2.6-2.4,3.7c-1.9,2.3-4.4,4-7.3,4.9c-1.6,0.5-3.2,0.7-4.9,0.7
			c-2,0-3.9-0.4-5.7-1.1c-1.7-0.7-3.2-1.7-4.5-3.1c-1.3-1.3-2.3-2.9-3-4.7c-1.6-4.4-1.4-9.2,0.5-13.5c0.9-1.9,2.1-3.7,3.5-5.2
			c1.2-1.3,2.5-2.3,4-3.1c0.9-0.5,1.9-0.9,3-1c1.1-0.1,2.1,0.6,2.3,1.7c0,0.2,0,0.3,0,0.5c0,0.6-0.3,1.3-0.8,1.7
			c-0.5,0.4-1.1,0.8-1.8,1.1c-0.8,0.4-1.5,0.9-2.2,1.5c-0.8,0.7-1.6,1.5-2.2,2.4c-0.7,1.1-1.3,2.2-1.7,3.4c-0.5,1.4-0.7,2.9-0.7,4.4
			c0,1.4,0.2,2.8,0.7,4.1c0.4,1.2,1.1,2.3,1.9,3.3c0.8,0.9,1.9,1.6,3,2.1c1.2,0.5,2.5,0.8,3.8,0.8c2.2,0.1,4.4-0.5,6.3-1.8
			c1.6-1.1,3-2.7,3.8-4.5c-2.6-1.4-4.8-3.4-6.4-5.8c-1.7-2.5-2.5-5.5-2.5-8.5c-0.1-2.2,0.5-4.4,1.8-6.2c1.1-1.5,2.9-2.4,4.8-2.4
			c1.2,0,2.4,0.3,3.4,0.9c1.2,0.7,2.1,1.6,2.8,2.7c0.9,1.5,1.6,3.1,2,4.8c0.5,2.3,0.8,4.6,0.7,7c0,1.5-0.2,3-0.6,4.4
			c0.3,0,0.5,0.1,0.8,0.1h0.9c1.4,0,2.7-0.2,4-0.5c1.2-0.3,2.3-0.9,3.3-1.6c1-0.8,1.9-1.7,2.6-2.7c0.8-1.2,1.6-2.5,2.2-3.8
			c0.2-0.3,0.5-0.6,0.9-0.8c0.4-0.2,0.8-0.4,1.3-0.4c0.6,0,1.2,0.3,1.6,0.7c0.5,0.5,0.8,1.1,0.8,1.8c0,0.4-0.1,0.8-0.3,1.2
			c-0.2,0.4-0.4,0.8-0.5,1.2C98.8,81,98,82.3,97,83.5c-1,1.2-2.2,2.3-3.5,3.2c-1.4,0.9-2.9,1.7-4.6,2.2
			C87.1,89.4,85.2,89.6,83.2,89.6z M71.9,72.8c0,0.9,0.1,1.8,0.3,2.7c0.2,1,0.6,1.9,1,2.8c0.5,0.9,1.1,1.8,1.8,2.6
			c0.7,0.8,1.5,1.5,2.4,2.1c0.1-0.9,0.2-1.8,0.2-2.7c0-1.2-0.1-2.4-0.3-3.7c-0.2-1.2-0.4-2.3-0.8-3.4c-0.3-0.9-0.7-1.8-1.2-2.5
			c-0.4-0.6-1-1-1.7-1c-0.4,0.1-0.8,0.3-1.1,0.6C72,71,71.8,71.9,71.9,72.8z"/>
		<path class="st1" d="M117.6,89.4c-1.4,2.3-3.2,4.4-5.4,6c-3.1,2.4-7.2,2.9-10.7,1.3c-1.3-0.6-2.5-1.6-3.4-2.7
			c-1-1.2-1.8-2.5-2.2-4c-0.5-1.7-0.8-3.6-0.8-5.4c0-2.8,0.3-5.5,0.9-8.2c0.5-2.1,1.2-4.1,2-6c0.8-1.8,1.8-3.4,2.9-4.9
			c0.2-0.3,0.5-0.5,0.8-0.6c0.3-0.1,0.7-0.2,1-0.2c0.7,0,1.3,0.3,1.8,0.8c0.5,0.5,0.7,1.1,0.7,1.8c0,0.3-0.1,0.5-0.2,0.8
			c-0.1,0.3-0.2,0.5-0.4,0.8s-0.6,1-1.1,1.8c-0.6,1-1.1,2.1-1.6,3.2c-0.6,1.5-1.1,3.1-1.4,4.7c-0.4,2-0.6,4.1-0.6,6.1
			c-0.1,2.1,0.4,4.2,1.6,5.9c1.1,1.3,2.7,2.1,4.4,2c1,0,1.9-0.3,2.8-0.8c1.2-0.6,2.2-1.4,3.1-2.4c1.1-1.2,2-2.5,2.6-4
			c0.8-1.8,1.3-3.8,1.5-5.8l1-11.4c0.1-0.6,0.4-1.2,0.9-1.7c0.5-0.4,1.1-0.7,1.7-0.7c0.7,0,1.4,0.3,1.8,0.8c0.4,0.5,0.7,1.2,0.7,1.9
			l-0.9,11c-0.1,1.2,0,2.4,0.1,3.7c0.2,1.5,0.5,3,1,4.4c0.4,1.4,1.2,2.7,2.2,3.8c1,1.1,2.4,1.6,3.9,1.6c1.2,0,2.4-0.3,3.4-0.9
			c1.2-0.6,2.2-1.4,3.2-2.4c1-1,2-2.1,2.8-3.3c0.9-1.2,1.7-2.4,2.4-3.7c0.7-1.2,1.4-2.4,1.9-3.6c0.5-1.1,1-2.1,1.3-2.9
			c0.2-0.5,0.5-0.8,0.9-1.1c0.4-0.3,0.9-0.4,1.3-0.4c0.7,0,1.4,0.3,1.9,0.8c0.4,0.5,0.7,1.1,0.7,1.7c0,0.3-0.1,0.7-0.2,1
			c-0.2,0.4-0.5,1.1-1,2.2s-1.2,2.4-2,3.8c-0.9,1.6-1.9,3.1-3,4.6c-1.1,1.6-2.4,3.1-3.8,4.4c-1.4,1.3-2.9,2.4-4.6,3.3
			c-1.7,0.9-3.5,1.3-5.4,1.3c-2.4,0.1-4.7-0.7-6.5-2.2C119.6,94.1,118.3,91.9,117.6,89.4z"/>
		<path class="st1" d="M157.9,90.9c0.7-1.5,1.5-3.1,2.5-4.8c0.9-1.7,1.9-3.5,3-5.3c1.1-1.8,2.2-3.6,3.4-5.3s2.4-3.4,3.7-5
			c1.1-1.4,2.4-2.6,3.9-3.4c1.1-0.6,2.4-1,3.7-1c2-0.1,4,0.8,5.1,2.5c1.2,1.9,1.7,4,1.7,6.2c0,0.6,0,1.3-0.1,2.1
			c-0.1,0.8-0.1,1.7-0.2,2.6c-0.1,0.9-0.1,1.9-0.2,2.8c-0.1,1-0.1,1.8-0.1,2.7c0,1,0.1,2,0.2,3.1c0.1,0.9,0.3,1.7,0.6,2.6
			c0.3,0.7,0.7,1.3,1.3,1.7c0.7,0.4,1.5,0.7,2.3,0.6c1.8-0.1,3.6-0.8,4.9-2c1.7-1.4,3.1-2.9,4.4-4.7c1.3-1.7,2.5-3.6,3.5-5.5
			c1-1.9,1.7-3.4,2.2-4.5c0.2-0.5,0.6-0.9,1-1.1c0.4-0.3,0.9-0.4,1.4-0.4c0.7,0,1.4,0.3,1.8,0.8c0.4,0.5,0.7,1.1,0.7,1.8
			c0,0.3-0.1,0.6-0.2,0.9c-0.2,0.4-0.5,1.1-1.1,2.2c-0.5,1.1-1.2,2.4-2.1,3.8c-0.9,1.4-1.9,3-3,4.6c-1.1,1.6-2.4,3.1-3.8,4.4
			c-1.4,1.3-2.9,2.4-4.5,3.3c-1.6,0.9-3.4,1.4-5.2,1.4c-1.7,0.1-3.4-0.3-4.9-1.2c-1.2-0.8-2.2-1.8-2.9-3.1c-0.7-1.3-1.2-2.7-1.4-4.2
			c-0.2-1.5-0.4-3.1-0.4-4.6c0-0.7,0-1.4,0.1-2.3c0.1-0.8,0.2-1.7,0.3-2.7c0.1-0.9,0.2-1.9,0.3-2.8s0.1-1.8,0.1-2.7
			c0.1-1-0.1-2-0.7-2.9c-0.3-0.4-0.7-0.7-1.2-0.7c-0.9,0.1-1.8,0.5-2.4,1.2c-1,1-2,2.1-2.9,3.2c-1,1.3-2,2.8-3.1,4.5s-2,3.3-2.9,4.9
			c-0.9,1.6-1.7,3.2-2.5,4.7c-0.8,1.5-1.4,2.7-1.8,3.7c-0.6,1.4-1.5,2.7-2.7,3.8c-0.8,0.6-1.7,1-2.7,1c-1.1,0.1-2.3-0.4-3.1-1.2
			c-0.8-0.9-1.2-2.1-1.2-3.3c0-0.3,0-0.9,0.1-1.8c0.1-0.9,0.2-2,0.3-3.2c0.1-1.3,0.3-2.6,0.4-4.1c0.1-1.5,0.3-2.9,0.4-4.4
			c0.1-1.4,0.2-2.8,0.3-4s0.1-2.3,0.1-3.1c0-1.1,0-2.2-0.1-3.2c0-0.7-0.2-1.3-0.5-1.9c-0.4,0.1-1.1,1-2.1,2.5
			c-1.5,2.6-2.8,5.3-3.9,8.1c-0.2,0.5-0.6,0.9-1,1.1c-0.4,0.3-0.9,0.4-1.4,0.4c-0.7,0-1.3-0.2-1.8-0.8c-0.4-0.5-0.7-1.1-0.7-1.8
			c0-0.3,0.1-0.7,0.2-1c1.4-3.7,3.3-7.2,5.6-10.5c1.7-2.2,3.5-3.4,5.2-3.3c0.9,0,1.8,0.2,2.6,0.8c0.7,0.5,1.3,1.2,1.7,2
			c0.4,0.9,0.7,1.8,0.9,2.8c0.2,1,0.3,2.1,0.3,3.1c0,0.8-0.1,2-0.2,3.7c-0.1,1.7-0.3,3.5-0.4,5.4c-0.2,1.9-0.3,3.8-0.5,5.7
			C158.2,88,158.1,89.6,157.9,90.9z"/>
		<path class="st1" d="M257.5,30.4c0,0.6-0.2,1.3-0.7,1.7c-0.5,0.4-1.1,0.6-1.8,0.6h-33.7v0.7c0,2.9-0.2,5.8-0.6,8.6
			c-0.4,3.1-0.9,6.1-1.6,9.1s-1.5,6-2.3,8.9c-0.9,2.9-1.7,5.5-2.7,8c-0.8,2.2-1.7,4.3-2.7,6.3c-0.7,1.4-1.5,2.8-2.4,4
			c0.5,1.9,1.2,3.8,2.1,5.7c0.7,1.6,1.6,3.2,2.7,4.6c0.9,1.2,2,2.2,3.3,3.1c1.1,0.7,2.4,1.1,3.7,1.1c1.7-0.1,3.4-0.8,4.6-2
			c1.6-1.4,3-2.9,4.2-4.7c1.3-1.7,2.4-3.5,3.4-5.4c0.8-1.4,1.5-2.9,2.2-4.4c0.3-1,1.3-1.6,2.3-1.6c0.7,0,1.4,0.3,1.8,0.8
			c0.4,0.5,0.7,1.1,0.7,1.7c0,0.3-0.1,0.6-0.2,0.9c-0.1,0.3-0.5,1-1,2.1c-0.5,1.1-1.2,2.4-2,3.8c-0.8,1.5-1.8,3-2.9,4.6
			c-1.1,1.6-2.3,3.1-3.6,4.4c-1.3,1.3-2.7,2.4-4.3,3.3c-1.5,0.9-3.2,1.3-4.9,1.3c-3,0-5.9-1.1-8.2-3c-2.7-2.3-4.8-5.2-6.2-8.4
			c-1.8-4.1-3.2-8.3-3.9-12.8c-0.9-5.3-1.4-10.7-1.3-16.1c0-1.5,0-3.2,0.1-5.2c0-2,0.1-4.1,0.3-6.2c0.1-2.2,0.3-4.5,0.6-6.8
			s0.6-4.6,1.1-6.8h-23.9c-0.7,0-1.3-0.2-1.8-0.6c-0.9-0.9-1-2.4-0.1-3.3c0,0,0.1-0.1,0.1-0.1c0.5-0.4,1.1-0.6,1.8-0.6h25
			c0.4-1.5,0.9-3,1.6-4.4c0.5-1.2,1.2-2.4,2.1-3.5c0.7-0.9,1.6-1.6,2.6-2.2c1-0.6,2-0.8,3.1-0.8c1,0,2,0.3,2.9,0.8
			c0.9,0.6,1.6,1.4,2.1,2.3c0.6,1.1,1.1,2.2,1.4,3.5c0.4,1.4,0.6,2.9,0.8,4.4h33.9c0.7,0,1.3,0.2,1.8,0.6
			C257.2,29.2,257.5,29.8,257.5,30.4z M207.5,71.8c1.4-3.1,2.6-6.2,3.6-9.5c1.1-3.4,2-6.8,2.8-10.3c0.8-3.5,1.4-6.8,1.8-10.2
			c0.4-3,0.6-6.1,0.6-9.2h-7.8c-0.7,3.4-1.2,6.8-1.5,10.2c-0.4,4-0.6,9-0.6,14.8c0,3.2,0.1,5.9,0.3,8.1
			C206.8,67.8,207.1,69.8,207.5,71.8L207.5,71.8z M213.6,22.1c-0.4,0-1,0.4-1.7,1.3c-1,1.4-1.8,3-2.3,4.7h6.4c-0.2-1.5-0.5-3-1-4.4
			C214.6,22.6,214.2,22.1,213.6,22.1L213.6,22.1z"/>
		<path class="st1" d="M246.2,44.8c0,3.3-2.7,6-6,6c-3.3,0-6-2.7-6-6c0-1.6,0.6-3.1,1.8-4.3c2.3-2.4,6.1-2.5,8.5-0.2
			C245.6,41.5,246.3,43.1,246.2,44.8L246.2,44.8z M235.5,83.7c0-6.4,0.4-12.7,1.2-19c0.1-0.6,0.4-1.2,0.8-1.6
			c0.5-0.5,1.1-0.7,1.8-0.7c0.6,0,1.2,0.2,1.7,0.7c0.4,0.5,0.7,1.1,0.7,1.8c0,0.3-0.1,1.1-0.2,2.4l-0.4,4.8
			c-0.2,1.8-0.3,3.8-0.4,5.8c-0.1,2.1-0.2,3.9-0.2,5.7c-0.1,1.9,0.2,3.8,0.7,5.7c0.3,1.2,1,2.4,1.8,3.4c0.6,0.7,1.4,1.3,2.3,1.6
			c0.8,0.3,1.6,0.4,2.4,0.4c1.4-0.1,2.7-0.5,3.9-1.3c1.5-1.1,2.9-2.3,4.1-3.7c1.6-1.8,3-3.7,4.2-5.7c1.5-2.4,2.9-4.9,4.2-7.5
			c0.2-0.4,0.5-0.8,0.9-1c0.4-0.2,0.9-0.4,1.3-0.4c0.7,0,1.3,0.3,1.8,0.8c0.4,0.5,0.7,1.1,0.7,1.7c0,0.4-0.1,0.8-0.3,1.1
			c-0.5,1-1.2,2.3-2,3.7s-1.7,3-2.7,4.5c-1,1.5-2.1,3.1-3.4,4.6c-1.2,1.5-2.5,2.9-3.9,4.1c-1.3,1.2-2.8,2.2-4.3,3
			c-1.4,0.7-3,1.1-4.6,1.1c-1.8,0-3.6-0.4-5.2-1.3c-1.5-0.8-2.8-2-3.8-3.4c-1.1-1.5-1.9-3.2-2.3-5C235.7,87.9,235.5,85.8,235.5,83.7
			L235.5,83.7z M242.5,44.8c0-1.3-1.1-2.3-2.3-2.3c-0.6,0-1.2,0.3-1.6,0.7c-0.4,0.4-0.7,1-0.7,1.6c0,1.2,1,2.3,2.3,2.2
			c0.6,0,1.2-0.2,1.6-0.7C242.3,45.9,242.5,45.4,242.5,44.8L242.5,44.8z"/>
		<path class="st1" d="M269.1,100.1c3.1-1.4,6.1-3,8.9-5c2.6-1.8,5-3.8,7.2-6c2-2,3.8-4.1,5.4-6.4c1.4-2,2.6-4.1,3.5-6.3
			c0.3-0.9,1.3-1.5,2.3-1.5c0.7,0,1.4,0.3,1.8,0.8c0.4,0.5,0.7,1.1,0.7,1.7c0,0.3-0.1,0.7-0.2,1c-1.1,2.3-2.3,4.6-3.8,6.7
			c-1.6,2.4-3.4,4.7-5.5,6.8c-2.3,2.4-4.8,4.5-7.5,6.5c-3.1,2.2-6.4,4.1-9.9,5.7c2.4,2.5,4.5,5.3,6.2,8.3c1.8,3,3.2,6.2,4.4,9.5
			c1.2,3.2,2.1,6.6,2.7,9.9c0.6,3.2,0.9,6.4,0.9,9.6c0,2.6-0.2,5.3-0.8,7.9c-0.4,2.2-1.2,4.4-2.3,6.4c-0.9,1.7-2.1,3.1-3.6,4.3
			c-1.4,1-3.1,1.6-4.9,1.6c-2.4,0.1-4.7-1-6.2-3c-1.7-2.5-2.8-5.2-3.2-8.2c-0.7-4.1-1.1-8.2-1.2-12.3c-0.1-4.7-0.2-9.8-0.2-15.4
			v-9.6c0-3.7,0-7.6,0-11.8s0-8.6,0.1-13.2c0-4.6,0-9.2,0.1-13.8c0.1-4.6,0.1-9.1,0.1-13.6c0-4.4,0.1-8.7,0.2-12.7
			c0.1-7.6,0.4-14.4,0.8-20.4c0.3-5.1,0.9-10.1,1.9-15.1c0.6-3.3,1.9-6.5,3.7-9.3c1.3-2,3.4-3.2,5.8-3.2c1.7-0.1,3.4,0.5,4.7,1.6
			c1.4,1.1,2.4,2.6,3.1,4.2c0.9,2,1.4,4.1,1.7,6.2c0.4,2.4,0.5,4.9,0.5,7.4c0,5.2-0.5,10.5-1.4,15.6c-0.9,5-2.2,9.9-3.8,14.7
			c-1.6,4.7-3.5,9.4-5.6,13.9c-2.1,4.5-4.4,9-6.9,13.3v12.2c0,2.1,0,4.1,0,6S269.2,98.6,269.1,100.1z M269.1,108.3
			c0,2.8,0,5.4,0,7.8c0,2.4,0,4.6,0,6.6c0,4.1,0,8.2,0.1,12.2c0,3.6,0.2,7.2,0.6,10.9c0.2,2.7,0.8,5.3,1.7,7.8c0.8,2,1.9,3,3.4,3
			c1.3,0,2.5-0.7,3.2-1.8c0.9-1.3,1.6-2.7,2-4.2c0.5-1.6,0.8-3.3,1-5c0.2-1.7,0.3-3.1,0.3-4.1c0-2.8-0.3-5.7-0.8-8.5
			c-0.5-3-1.3-5.9-2.3-8.8c-1-2.9-2.3-5.7-3.8-8.4C273,113,271.2,110.5,269.1,108.3L269.1,108.3z M269.3,66.7
			c1.9-3.5,3.5-7.1,5-10.8c1.6-3.8,2.9-7.7,4-11.7c1.1-4.1,2-8.2,2.6-12.4c0.6-4.2,0.9-8.4,0.9-12.7c0-1.9-0.1-3.9-0.3-5.8
			c-0.2-1.5-0.5-3-0.9-4.4c-0.3-1.1-0.9-2-1.6-2.9c-0.6-0.6-1.4-1-2.2-1c-1,0.1-1.9,0.7-2.3,1.6c-0.8,1.3-1.4,2.8-1.7,4.2
			c-0.5,2-0.9,4-1.2,6.1c-0.3,2.3-0.6,4.7-0.8,7.2c-0.2,2.5-0.4,5-0.5,7.5s-0.2,4.8-0.3,7c-0.1,2.2-0.1,4.1-0.1,5.8
			c0,1.7,0,2.9,0,3.8c0,1.8-0.1,3.3-0.1,4.7c0,1.4-0.1,2.7-0.1,4c0,1.3-0.1,2.8-0.1,4.2C269.4,62.8,269.4,64.6,269.3,66.7
			L269.3,66.7z"/>
		<path class="st1" d="M316.2,89.4c-1.4,2.3-3.2,4.4-5.4,6c-3.1,2.4-7.2,2.9-10.7,1.3c-1.3-0.6-2.5-1.6-3.4-2.7
			c-1-1.2-1.8-2.5-2.2-4c-0.5-1.7-0.8-3.6-0.8-5.4c0-2.8,0.3-5.5,0.9-8.2c0.5-2.1,1.2-4.1,2-6c0.8-1.8,1.8-3.4,2.9-4.9
			c0.2-0.3,0.5-0.5,0.8-0.6c0.3-0.1,0.7-0.2,1-0.2c0.7,0,1.3,0.3,1.8,0.8c0.5,0.5,0.7,1.1,0.7,1.8c0,0.3-0.1,0.5-0.2,0.8
			c-0.1,0.3-0.2,0.5-0.4,0.8s-0.6,1-1.1,1.8c-0.6,1-1.1,2.1-1.5,3.2c-0.6,1.5-1.1,3.1-1.4,4.7c-0.4,2-0.6,4.1-0.6,6.1
			c-0.1,2.1,0.4,4.2,1.6,5.9c1.1,1.3,2.7,2.1,4.4,2c1,0,1.9-0.3,2.8-0.8c1.2-0.6,2.2-1.4,3-2.4c1.1-1.2,2-2.5,2.6-4
			c0.8-1.8,1.3-3.8,1.5-5.8l1-11.4c0.1-0.6,0.4-1.2,0.9-1.7c0.5-0.4,1.1-0.7,1.7-0.7c0.7,0,1.4,0.3,1.8,0.8c0.4,0.5,0.7,1.2,0.7,1.9
			l-0.9,11c-0.1,1.2,0,2.4,0.1,3.7c0.2,1.5,0.5,3,1,4.4c0.4,1.4,1.2,2.7,2.2,3.8c1,1,2.4,1.6,3.8,1.5c1.2,0,2.4-0.3,3.4-0.9
			c1.2-0.6,2.2-1.4,3.2-2.4c1-1,2-2.1,2.8-3.3c0.9-1.2,1.7-2.4,2.4-3.7c0.7-1.2,1.4-2.4,1.9-3.6c0.5-1.1,1-2.1,1.3-2.9
			c0.2-0.5,0.5-0.8,0.9-1.1c0.4-0.3,0.9-0.4,1.3-0.4c0.7,0,1.4,0.3,1.9,0.8c0.4,0.5,0.7,1.1,0.7,1.7c0,0.3-0.1,0.7-0.2,1
			c-0.2,0.4-0.5,1.1-1,2.2s-1.2,2.4-2,3.8c-0.9,1.6-1.9,3.1-3,4.6c-1.1,1.6-2.4,3.1-3.9,4.4c-1.4,1.3-2.9,2.4-4.6,3.3
			c-1.6,0.9-3.5,1.3-5.3,1.3c-2.4,0.1-4.7-0.7-6.5-2.2C318.2,94.1,316.9,91.9,316.2,89.4z"/>
		<path class="st1" d="M379.5,78.5c-0.5,1-1.1,2.2-1.8,3.6c-0.7,1.4-1.6,2.8-2.5,4.3c-1,1.5-2,3-3.1,4.5c-1.1,1.5-2.4,2.8-3.8,4
			c-1.3,1.1-2.8,2.1-4.4,2.8c-1.5,0.7-3.2,1.1-4.9,1.1c-2.5,0.1-4.9-0.8-6.8-2.5c-2-1.8-3.6-4-4.8-6.4c-1.4-2.9-2.5-5.9-3.2-9.1
			c-0.8-3.4-1.5-6.9-1.9-10.4c-0.4-3.5-0.7-6.9-0.9-10.3c-0.2-3.3-0.2-6.3-0.2-8.8c0-3.7,0.1-7.6,0.4-11.5s0.6-7.9,1.2-11.7
			c0.5-3.8,1.2-7.4,2-10.8c0.7-3.1,1.7-6.1,2.9-9c0.9-2.2,2.2-4.3,3.9-6.1c1.3-1.4,3.1-2.2,5-2.3c1.4,0,2.8,0.3,4,1
			c1.3,0.8,2.3,2,3,3.3c0.9,1.9,1.5,3.9,1.9,6c0.5,3,0.7,6.1,0.7,9.1c0,4.6-0.5,9.2-1.4,13.7c-1,4.8-2.2,9.6-3.8,14.2
			c-1.6,4.9-3.5,9.6-5.6,14.3c-2.2,4.8-4.5,9.4-7,13.9c0.7,4.6,2.2,9.1,4.4,13.3c1.9,3.2,4.1,4.8,6.7,4.8c1.9-0.1,3.7-0.8,5.1-2.1
			c1.7-1.5,3.2-3.1,4.5-5c1.3-1.8,2.5-3.8,3.6-5.8c1-2,1.8-3.6,2.4-4.8c0.2-0.4,0.5-0.8,0.9-1c0.4-0.2,0.9-0.4,1.3-0.4
			c0.7,0,1.4,0.3,1.8,0.8c0.4,0.5,0.7,1.1,0.7,1.8C379.8,77.8,379.7,78.2,379.5,78.5z M346.3,51.8c0,2.8,0.1,5.6,0.2,8.2
			c0.1,2.6,0.3,5.1,0.5,7.5c1.9-3.6,3.6-7.4,5.3-11.5s3.2-8.1,4.5-12.3c1.3-4.1,2.3-8.2,3.1-12.4c0.7-3.9,1.1-7.8,1.1-11.7
			c0-5.2-0.4-9-1.3-11.2s-2-3.4-3.4-3.4c-0.9,0-1.8,0.7-2.7,2c-1,1.6-1.8,3.4-2.4,5.2c-0.8,2.5-1.5,5.1-2.1,7.8
			c-0.6,3-1.1,6.2-1.6,9.7c-0.4,3.4-0.8,7.1-1,10.8C346.4,44.3,346.3,48.1,346.3,51.8z"/>
		<path class="st1" d="M430.7,77.5c2.2,10.2,5.3,15.3,9.4,15.3c1.7,0,3.3-0.7,4.6-1.8c1.5-1.3,2.9-2.7,4.1-4.3
			c1.3-1.7,2.4-3.5,3.4-5.4c1-1.9,1.8-3.6,2.4-5c0.5-1.3,1.9-1.9,3.2-1.4c0.4,0.1,0.7,0.4,1,0.6c0.5,0.5,0.7,1.1,0.7,1.7
			c0,0.3-0.1,0.6-0.2,0.9c-0.3,0.8-0.8,1.8-1.4,3c-0.6,1.2-1.3,2.6-2.2,4c-0.9,1.4-1.8,2.9-2.9,4.4c-1,1.5-2.2,2.8-3.5,4
			c-1.2,1.2-2.6,2.2-4.1,3c-1.4,0.8-3,1.2-4.5,1.2c-2.9,0-5.6-1.1-7.6-3.1c-2.1-2.1-4-5.5-5.5-10.2c-2.1,4.5-4.3,7.8-6.4,9.8
			c-1.8,1.9-4.4,3-7,3.1c-1.3,0-2.6-0.2-3.9-0.6c-1.2-0.4-2.4-1.1-3.2-2.1c-1-1.1-1.8-2.4-2.3-3.8c-0.6-1.8-0.9-3.7-0.9-5.6
			c0-2.9,0.5-5.7,1.5-8.4c1-2.4,2.4-4.7,4.1-6.6c1.6-1.8,3.5-3.2,5.6-4.3c1.9-1,4-1.5,6.1-1.5c0.6,0,1.3,0.2,1.7,0.7
			c0.5,0.5,0.7,1.1,0.7,1.8c0,0.6-0.2,1.2-0.6,1.7c-0.4,0.5-1,0.8-1.6,0.9c-1.5,0.2-2.9,0.6-4.2,1.3c-1.6,0.7-3,1.7-4.2,2.9
			c-1.3,1.4-2.4,3-3.1,4.8c-0.9,2.2-1.3,4.6-1.2,7c-0.1,1.8,0.4,3.6,1.4,5.2c0.9,1.3,2.4,2,4,1.9c0.8,0,1.6-0.2,2.3-0.6
			c1-0.5,1.9-1.3,2.6-2.2c1.1-1.5,2.2-3,3-4.7c1.3-2.6,2.6-5.3,3.6-8c-0.8-3.9-1.4-8.4-2.1-13.5c-0.7-5.7-1-11.4-0.9-17.1
			c0-2.7,0.1-5.6,0.3-8.6s0.5-5.9,0.9-8.8c0.4-2.8,0.9-5.5,1.6-8.2c0.6-2.3,1.4-4.6,2.4-6.8c0.8-1.7,1.9-3.3,3.4-4.6
			c1.2-1.1,2.8-1.7,4.4-1.7c1.3,0,2.6,0.4,3.7,1.2c1.1,0.9,1.9,2,2.5,3.3c0.7,1.6,1.2,3.3,1.5,5.1c0.3,2.2,0.5,4.4,0.5,6.6
			c0,5.2-0.4,10.3-1.3,15.4c-0.8,5-1.9,9.9-3.3,14.7c-1.3,4.7-2.7,9-4.1,13S431.9,74.7,430.7,77.5z M438.4,24c0-1.1,0-2.3-0.1-3.6
			c-0.1-1.2-0.2-2.4-0.5-3.6c-0.2-1-0.5-1.9-1-2.8c-0.3-0.7-0.9-1.1-1.6-1.1c-1.1,0-2.1,1-3.1,2.9c-1.1,2.5-2,5-2.5,7.7
			c-0.8,3.6-1.3,7.2-1.7,10.8c-0.4,4-0.6,8.1-0.6,12.1c0,3.9,0.2,7.8,0.5,11.7c0.3,3.9,0.7,7.4,1.1,10.4c1.3-3.4,2.5-6.9,3.6-10.5
			c1.2-3.6,2.2-7.3,3-11c0.9-3.8,1.5-7.6,2.1-11.4C438.1,31.7,438.4,27.8,438.4,24z"/>
		<path class="st1" d="M465.4,44.8c0,3.3-2.7,6-6,6c-3.3,0-6-2.7-6-6c0-1.6,0.6-3.1,1.8-4.3c2.3-2.4,6.1-2.5,8.5-0.2
			C464.8,41.5,465.4,43.1,465.4,44.8L465.4,44.8z M454.6,83.7c0-6.4,0.4-12.7,1.2-19c0.1-0.6,0.4-1.2,0.8-1.6
			c0.5-0.5,1.1-0.7,1.8-0.7c0.6,0,1.3,0.3,1.7,0.8c0.4,0.5,0.7,1.1,0.7,1.8c0,0.3-0.1,1.1-0.2,2.4l-0.4,4.8
			c-0.2,1.8-0.3,3.8-0.4,5.8c-0.1,2.1-0.2,3.9-0.2,5.7c-0.1,1.9,0.2,3.8,0.7,5.7c0.4,1.2,1,2.4,1.8,3.3c0.6,0.7,1.4,1.3,2.3,1.6
			c0.8,0.3,1.6,0.4,2.4,0.4c1.4-0.1,2.7-0.5,3.9-1.3c1.5-1.1,2.9-2.3,4.1-3.7c1.6-1.8,3-3.7,4.2-5.7c1.5-2.4,2.9-4.9,4.2-7.5
			c0.2-0.4,0.5-0.8,0.9-1c0.4-0.2,0.9-0.4,1.3-0.4c0.7,0,1.3,0.3,1.8,0.8c0.4,0.5,0.7,1.1,0.7,1.7c0,0.4-0.1,0.8-0.3,1.1
			c-0.5,1-1.2,2.3-2,3.7s-1.7,3-2.7,4.5c-1,1.5-2.1,3.1-3.4,4.6c-1.2,1.5-2.5,2.9-3.9,4.1c-1.3,1.2-2.8,2.2-4.3,3
			c-1.4,0.7-3,1.1-4.6,1.1c-1.8,0-3.6-0.4-5.2-1.3c-1.5-0.8-2.8-2-3.8-3.4c-1.1-1.5-1.9-3.2-2.3-5C454.9,87.9,454.6,85.8,454.6,83.7
			L454.6,83.7z M461.6,44.8c0-1.3-1.1-2.3-2.3-2.3c-0.6,0-1.2,0.3-1.6,0.7c-0.4,0.4-0.7,1-0.7,1.6c0,1.2,1,2.2,2.3,2.2
			c0.6,0,1.2-0.2,1.6-0.7C461.4,45.9,461.7,45.4,461.6,44.8L461.6,44.8z"/>
		<path class="st1" d="M490.5,72.3c-0.3,0.7-0.6,1.5-1,2.4s-0.8,1.8-1.3,2.8c-0.3,0.6-0.7,1.2-1.2,1.8c-0.4,0.4-1,0.7-1.6,0.6
			c-0.7,0-1.3-0.2-1.8-0.7c-0.4-0.4-0.7-1-0.7-1.6c0-0.2,0-0.4,0.1-0.5c0.1-0.3,0.2-0.5,0.3-0.8c1-1.9,1.9-3.8,2.6-5.8
			c0.6-1.7,1-3.4,1.4-5.2c-0.3-0.9-0.5-1.7-0.7-2.6c-0.1-0.7-0.2-1.5-0.2-2.2c-0.1-1.3,0.3-2.5,0.9-3.5c0.6-0.9,1.5-1.4,2.6-1.4
			c1,0,1.9,0.5,2.4,1.3c0.6,1,0.9,2.1,0.9,3.2c0,0.7-0.1,1.4-0.2,2.1c-0.1,0.7-0.3,1.6-0.5,2.7c1,2.5,2,4.8,3,6.7s1.9,3.7,2.7,5.3
			c0.8,1.5,1.4,3,2,4.6c0.5,1.4,0.8,2.8,0.8,4.2c0,1.8-0.4,3.6-1.2,5.3c-0.8,1.7-2.1,3.2-3.7,4.2c0.2,0,0.4,0.1,0.7,0.1h0.7
			c2.4,0,4.9-0.6,7-1.7c2.1-1.2,4.1-2.7,5.7-4.5c1.7-1.9,3.2-3.9,4.5-6.1c1.3-2.2,2.4-4.4,3.5-6.7c0.4-1,1.1-1.5,1.9-1.5
			c0.7,0,1.3,0.3,1.8,0.8c0.4,0.5,0.6,1.1,0.6,1.7c0,0.3-0.1,0.7-0.2,1c-0.5,1.2-1.1,2.6-1.9,4.1c-0.8,1.6-1.8,3.2-2.8,4.7
			c-1.1,1.7-2.4,3.3-3.8,4.8c-1.4,1.6-3,2.9-4.8,4.1c-1.8,1.3-3.7,2.3-5.7,3c-2.2,0.8-4.5,1.1-6.8,1.1c-2.8,0-5.6-0.5-8.3-1.6
			c-2.5-1.1-4.7-2.9-6.2-5.2c-0.3-0.4-0.4-0.8-0.4-1.3c0-1.4,1.2-2.5,2.6-2.5c0.7,0,1.3,0.3,1.8,0.7c0.1,0.2,0.3,0.3,0.5,0.4
			c0.3,0.2,0.6,0.4,1,0.7c0.4,0.3,0.9,0.5,1.3,0.6c0.5,0.2,1,0.3,1.6,0.3c0.9,0,1.9-0.2,2.7-0.7c0.7-0.4,1.3-1,1.7-1.6
			c0.4-0.6,0.8-1.3,1-2.1c0.2-0.6,0.3-1.2,0.3-1.9c0-1.1-0.2-2.2-0.5-3.3c-0.4-1.1-0.9-2.3-1.4-3.3c-0.6-1.1-1.1-2.2-1.8-3.4
			C491.6,74.8,491,73.6,490.5,72.3z"/>
		<path class="st1" d="M522.9,91.2c0.7-1.5,1.5-3.1,2.5-4.9c0.9-1.7,1.9-3.5,3-5.4c1.1-1.8,2.2-3.7,3.4-5.5c1.2-1.8,2.4-3.5,3.7-5.1
			c1.1-1.4,2.4-2.5,3.9-3.4c1.1-0.6,2.4-1,3.7-1c1,0,2.1,0.2,3,0.7c0.8,0.5,1.6,1.1,2.1,1.9c0.6,0.9,1,1.8,1.3,2.8
			c0.3,1.1,0.4,2.3,0.4,3.4c0,1.4-0.1,2.7-0.3,4.1c-0.2,1.8-0.3,3.6-0.3,5.3c0,1.1,0.1,2.1,0.2,3.2c0.1,1,0.3,1.9,0.6,2.8
			c0.2,0.8,0.7,1.5,1.3,2c0.6,0.5,1.4,0.8,2.3,0.8c1.1,0,2.2-0.3,3.2-0.9c1.1-0.7,2.2-1.5,3.1-2.4c1.1-1,2-2.1,2.9-3.3
			c0.9-1.2,1.8-2.4,2.5-3.7c0.8-1.2,1.4-2.4,2-3.5c0.6-1.1,1-2.1,1.4-2.8c0.4-1,1.3-1.6,2.3-1.5c0.7,0,1.3,0.3,1.8,0.8
			c0.4,0.5,0.7,1.1,0.7,1.7c0,0.3-0.1,0.7-0.2,1c-0.2,0.4-0.5,1.1-1,2.2c-0.6,1.3-1.3,2.6-2.1,3.8c-0.9,1.5-1.9,3-3,4.6
			c-1.1,1.6-2.4,3.1-3.8,4.4c-1.3,1.3-2.9,2.4-4.5,3.3c-1.6,0.9-3.3,1.3-5.1,1.3c-1.7,0.1-3.4-0.4-4.9-1.3c-1.2-0.9-2.2-2-2.8-3.3
			c-0.7-1.4-1.2-2.9-1.4-4.4c-0.2-1.6-0.4-3.2-0.4-4.8c0-0.8,0-1.7,0.1-2.6s0.1-1.8,0.2-2.7s0.2-1.7,0.2-2.5s0.1-1.4,0.1-2
			c0.1-1-0.1-1.9-0.6-2.8c-0.3-0.4-0.8-0.7-1.3-0.7c-0.9,0.1-1.8,0.5-2.4,1.2c-1,1-2,2.1-2.8,3.2c-1.1,1.4-2.1,2.9-3,4.5
			c-1,1.7-2,3.3-2.9,4.9c-0.9,1.6-1.8,3.2-2.5,4.7l-1.9,3.7c-0.6,1.5-1.6,2.8-2.8,3.8c-0.7,0.6-1.6,0.9-2.6,1
			c-1.3,0.1-2.5-0.6-3.2-1.6c-0.8-1.2-1.2-2.6-1.1-4v-4.2c0-8.4,0-16.3,0-23.9s0.1-14.6,0.3-21.2c0.2-6.5,0.5-12.4,1-17.7
			c0.3-4.6,1-9.1,2.1-13.5c0.7-3.1,1.9-6,3.5-8.7c1.2-1.9,3.2-3.1,5.4-3.1c1.7-0.1,3.4,0.5,4.8,1.5c1.4,1.1,2.4,2.5,3.1,4.2
			c0.9,1.9,1.4,4,1.7,6.1c0.4,2.4,0.5,4.9,0.5,7.3c0,5.2-0.5,10.3-1.4,15.4c-0.9,5-2.2,9.9-3.8,14.7c-1.6,4.8-3.4,9.4-5.6,14
			c-2.1,4.5-4.4,9-6.7,13.2v11.6L522.9,91.2z M522.9,66.7c1.9-4.1,3.6-8,5.1-11.9c1.5-3.8,2.8-7.7,3.9-11.6
			c1.1-3.9,1.9-7.8,2.6-11.7c0.6-4.1,0.9-8.2,0.9-12.4c0-0.7,0-1.8-0.1-3.4c-0.1-1.6-0.3-3.2-0.6-4.7c-0.3-1.5-0.8-2.9-1.5-4.2
			c-0.5-1.1-1.7-1.8-2.9-1.8c-1,0-1.8,0.7-2.5,2c-0.8,1.7-1.5,3.5-1.9,5.3c-0.6,2.6-1,5.2-1.3,7.8c-0.4,3-0.6,6.1-0.9,9.4
			s-0.4,6.7-0.5,10.2c-0.1,3.5-0.2,6.9-0.2,10.2s0,6.4-0.1,9.3L522.9,66.7z"/>
		<path class="st1" d="M65.4,20.1c1,0,1.5,1.1,1.5,2.1s-0.5,2.1-1.5,2.1h-5.2v20.6c0,1-1.2,1.5-2.3,1.5s-2.3-0.5-2.3-1.5V24.3h-5.3
			c-0.9,0-1.5-1-1.5-2.1s0.5-2.1,1.5-2.1L65.4,20.1z"/>
		<path class="st1" d="M96.5,34.5h-8.1v10.3c0,1-1.2,1.5-2.3,1.5s-2.3-0.5-2.3-1.5V21.5c0-1,1.2-1.4,2.3-1.4s2.3,0.4,2.3,1.4v9.4
			h8.1v-9.4c0-1,1.2-1.4,2.3-1.4s2.3,0.4,2.3,1.4v23.4c0,1-1.2,1.5-2.3,1.5s-2.3-0.5-2.3-1.5L96.5,34.5z"/>
		<path class="st1" d="M124.6,31.4h5.4c0.9,0,1.5,0.9,1.5,1.9c0.1,0.9-0.6,1.7-1.5,1.8c0,0,0,0,0,0h-5.5v7.2h10.2
			c0.9,0,1.5,1,1.5,2.1s-0.5,2-1.5,2h-12.8c-1,0-2-0.5-2-1.5V21.5c0-1,1-1.5,2-1.5h12.8c1,0,1.5,1,1.5,2s-0.5,2.1-1.5,2.1h-10.2
			V31.4z"/>
	</g>
</g>
<g>
	<path class="st0" d="M571.7,116.6c0.2,0,0.3,0.2,0.3,0.4c0,0.2-0.1,0.4-0.3,0.4h-1v3c0,0.2-0.2,0.3-0.4,0.3c-0.2,0-0.4-0.1-0.4-0.3
		v-3h-1c-0.2,0-0.3-0.2-0.3-0.4c0-0.2,0.1-0.4,0.3-0.4H571.7z M574.5,120.1c-0.1,0.2-0.2,0.2-0.3,0.2s-0.2,0-0.3-0.2l-0.8-1.8v2
		c0,0.2-0.2,0.3-0.4,0.3c-0.2,0-0.4-0.1-0.4-0.3V117c0-0.3,0.2-0.4,0.4-0.4c0.3,0,0.5,0.1,0.7,0.5l0.9,1.9l0.9-1.9
		c0.2-0.4,0.4-0.5,0.7-0.5c0.2,0,0.4,0.1,0.4,0.4v3.3c0,0.2-0.2,0.3-0.4,0.3c-0.2,0-0.4-0.1-0.4-0.3v-2L574.5,120.1z"/>
</g>
<g>
	<path class="st1" d="M574.7,20.5c5.4,0,11.6,4,11.6,12.3c0,8.5-6.5,12.5-11.8,12.5c-5.4,0-11.6-4-11.6-12.3
		C562.9,24.5,569.4,20.5,574.7,20.5z M574.7,22.6c-5.7,0-9.7,4.2-9.7,10.4c0,5.9,3.7,10.2,9.5,10.2c5.7,0,9.7-4.2,9.7-10.4
		C584.2,27,580.5,22.6,574.7,22.6z M570.7,26.3c0-0.4,0.3-0.8,0.8-0.8h3.5c2.3,0,4.3,1,4.3,4.1c0,2.3-1.1,3.5-2.5,3.9l2.4,5
		c0,0.1,0,0.2,0,0.3c0,0.6-0.6,1.2-1.2,1.2c-0.3,0-0.6-0.3-0.8-0.6l-2.6-5.4H573v5.2c0,0.5-0.5,0.8-1.1,0.8c-0.6,0-1.1-0.3-1.1-0.8
		V26.3z M573,27.6V32h2.1c1.3,0,2.1-0.6,2.1-2.1c0-1.7-0.8-2.3-2.1-2.3H573z"/>
</g>
</svg>
