<svg xmlns="http://www.w3.org/2000/svg" viewBox="0 0 470.59 191.89"><defs><style>.cls-1{fill:#386364;}.cls-2{fill:#6d6e71;}</style></defs><title>no-plate-hero</title><g id="Layer_2" data-name="Layer 2"><g id="Layer_1-2" data-name="Layer 1"><path class="cls-1" d="M131.42,81.94a1.23,1.23,0,0,0-1.23-1.23,16,16,0,0,0-9.7,3.24l-1.35,1,.61-1.57a16.21,16.21,0,0,0-3.65-17.28,1.23,1.23,0,0,0-1.73,0,16.2,16.2,0,0,0-3.66,17.27l.61,1.57-1.35-1a16,16,0,0,0-9.69-3.23A1.23,1.23,0,0,0,99,81.94a16.12,16.12,0,0,0,4.34,11l1,1-1.4-.24a16.25,16.25,0,0,0-2.68-.23A1.23,1.23,0,0,0,99,94.76a16.22,16.22,0,0,0,8.35,14.15l.32.18-.08.35a1.23,1.23,0,0,0,0,.27v8.55a1.23,1.23,0,0,0,2.45,0v-8.17l.62.18a16.11,16.11,0,0,0,2.9.57l.43,0v11.64a1.23,1.23,0,0,0,2.45,0V110.91l.43,0a16.11,16.11,0,0,0,2.9-.57l.62-.18v8.17a1.23,1.23,0,0,0,2.45,0v-8.55a1.23,1.23,0,0,0,0-.27l-.08-.35.32-.18a16.22,16.22,0,0,0,8.35-14.15,1.23,1.23,0,0,0-1.23-1.23,16.27,16.27,0,0,0-2.68.23l-1.4.24,1-1A16.12,16.12,0,0,0,131.42,81.94ZM114.85,69.29l.39-.51.39.51a13.78,13.78,0,0,1,0,16.55l-.39.51-.39-.51a13.74,13.74,0,0,1,0-16.55ZM101.63,83.84l-.09-.63.63.09A13.78,13.78,0,0,1,113.88,95l.09.63-.63-.09A13.78,13.78,0,0,1,101.63,83.84Zm11.7,24.52a13.78,13.78,0,0,1-11.7-11.7l-.09-.63.63.09a13.78,13.78,0,0,1,11.7,11.7l.09.63Zm2.34-5.77-.43.88-.43-.88a16.23,16.23,0,0,0-2.68-3.88l-1-1,1.4.24a16,16,0,0,0,5.36,0l1.41-.24-1,1A16.22,16.22,0,0,0,115.67,102.59Zm12.62-6.47.63-.09-.09.63a13.78,13.78,0,0,1-11.7,11.7l-.63.09.09-.63A13.78,13.78,0,0,1,128.29,96.12Zm-11.15-.58-.63.09.09-.63a13.78,13.78,0,0,1,11.7-11.7l.63-.09-.09.63A13.78,13.78,0,0,1,117.14,95.54Z"/><path class="cls-1" d="M371.9,88.54a13.57,13.57,0,0,0-4.71-2.69l-.62-.2.44-.48a1.26,1.26,0,0,0-.93-2.12,1.29,1.29,0,0,0-.31,0L359,84.79l.06-.6a21.83,21.83,0,0,1,6.31-13.27,1.27,1.27,0,0,0,0-1.79,1.27,1.27,0,0,0-1.79,0,24.3,24.3,0,0,0-7,14.13l-.09.72L350,79.09a1.27,1.27,0,0,0-1.52,2l5.92,4.44-1.54-.18a10.87,10.87,0,0,0-1.24-.08,12.78,12.78,0,0,0-8.17,3.24A18,18,0,0,0,339,94.38a16.24,16.24,0,0,0,0,13.88,18,18,0,0,0,4.42,5.84A20.5,20.5,0,0,0,350,118a22.65,22.65,0,0,0,15.38,0,20.47,20.47,0,0,0,6.55-3.87,18,18,0,0,0,4.42-5.84,16.24,16.24,0,0,0,0-13.88A18,18,0,0,0,371.9,88.54ZM374,107.18a15.46,15.46,0,0,1-3.81,5,18,18,0,0,1-5.75,3.39,20.12,20.12,0,0,1-13.64,0,18,18,0,0,1-5.75-3.39,15.43,15.43,0,0,1-3.81-5,13.72,13.72,0,0,1,0-11.73,15.44,15.44,0,0,1,3.81-5,10.22,10.22,0,0,1,6.5-2.61,9.6,9.6,0,0,1,5.35,1.76,1.26,1.26,0,0,0,1.4,0,9.61,9.61,0,0,1,5.36-1.76,10.41,10.41,0,0,1,6.52,2.61,15.46,15.46,0,0,1,3.81,5,13.71,13.71,0,0,1,0,11.73Z"/><path class="cls-1" d="M258.08,86.94a23.84,23.84,0,0,0-5.88-1.14c0-.2,0-.4,0-.6a17.9,17.9,0,0,0-.9-5.62,1.62,1.62,0,0,0-1-1,17.89,17.89,0,0,0-13.85,1.11,17.85,17.85,0,0,0-13.83-1.11,1.62,1.62,0,0,0-1,1,17.9,17.9,0,0,0-.9,5.62c0,.2,0,.4,0,.6a23.84,23.84,0,0,0-5.88,1.14,1.62,1.62,0,0,0-1,1,23.86,23.86,0,0,0,29.3,30.39h0l.6-.18.18-.06h0A23.86,23.86,0,0,0,259.11,88,1.62,1.62,0,0,0,258.08,86.94Zm-9.6-5.55a14.66,14.66,0,0,1,.5,3.81q0,.29,0,.6h-.14l-.9.09-.36,0-1.07.16-.73.14-.36.08-.79.19-.26.07-.54.14-.12-.2-.2-.33-.22-.35-.13-.2a17.83,17.83,0,0,0-3.49-3.86A14.79,14.79,0,0,1,248.48,81.39Zm-24.07,0a14.62,14.62,0,0,1,11.54,1.71l.39.25.46.32.35.27.46.36.28.25a14.75,14.75,0,0,1,1.52,1.54l.26.31.33.44.29.4.27.41.14.22c-.59.27-1.17.57-1.73.88l-.23.13-.61.36-.4.25-.5.33-.51.36-.29.2a23.77,23.77,0,0,0-3.71-2.24l-.36-.17-.5-.22-.53-.23-.19-.08a23.64,23.64,0,0,0-4.66-1.33h-.08q-1.1-.19-2.22-.28l-.26,0q0-.3,0-.6A14.67,14.67,0,0,1,224.41,81.39Zm18.06,32.49,0,.17A14.48,14.48,0,0,1,228,99.59a1.62,1.62,0,0,0-3.24,0,17.73,17.73,0,0,0,11.25,16.48,20.62,20.62,0,0,1-19.44-26.29,20.59,20.59,0,0,1,5.67-.8h.14a20.54,20.54,0,0,1,2.6.18h.06l.84.13h0a20.74,20.74,0,0,1,4.19,1.23h0l.56.25.35.16.38.19.55.28.21.12L233,92h0a20.74,20.74,0,0,1,8.62,10.4l.08.23c.08.23.16.45.23.68l.11.37q.09.3.17.61l.12.47c0,.18.09.36.13.55s.07.37.11.56.06.33.09.49.06.42.09.64,0,.29.06.44,0,.49.06.74,0,.24,0,.36c0,.37,0,.74,0,1.11A20.58,20.58,0,0,1,242.47,113.89Zm3.3,0c0-.07,0-.14,0-.21s.06-.39.09-.59,0-.28.06-.41,0-.41.07-.62,0-.26,0-.39,0-.45,0-.68,0-.22,0-.33c0-.34,0-.68,0-1s0-.81,0-1.22c0-.15,0-.3,0-.44s0-.51-.06-.76,0-.27-.05-.41-.06-.52-.1-.79c0-.08,0-.17,0-.25A23.77,23.77,0,0,0,239,92.56a20.68,20.68,0,0,1,8.37-3.32l.25,0,.45-.06.46-.05.3,0,.66,0h.13l.85,0h.14a20.59,20.59,0,0,1,5.67.8,20.63,20.63,0,0,1-10.5,24.07Z"/><path class="cls-1" d="M35.5,41.07a.85.85,0,0,1-.13.77,1.31,1.31,0,0,1-.72.48c-6,1.72-8.93,2.61-14.86,4.46l.09.29a25.38,25.38,0,0,1,.81,3.51q.31,1.9.42,3.85t.1,3.84q0,1.89-.15,3.53a28,28,0,0,1-.36,2.88,9.55,9.55,0,0,1-.52,1.92,16,16,0,0,0,1.6,2A9.86,9.86,0,0,0,23.5,70a5.78,5.78,0,0,0,1.76.79,3.14,3.14,0,0,0,1.72,0,3.31,3.31,0,0,0,1.72-1.39A11.76,11.76,0,0,0,30,67a20.7,20.7,0,0,0,.82-2.62,19.47,19.47,0,0,0,.39-2,1.06,1.06,0,0,1,.81-.94,1.08,1.08,0,0,1,.88.08,1,1,0,0,1,.51.6.91.91,0,0,1,0,.4c0,.14-.07.47-.16,1s-.22,1.11-.39,1.79-.4,1.42-.67,2.21a12.21,12.21,0,0,1-1,2.23,9.56,9.56,0,0,1-1.44,1.89,4.6,4.6,0,0,1-1.92,1.17,5.92,5.92,0,0,1-3.87-.09,10.12,10.12,0,0,1-3.7-2.47,20.3,20.3,0,0,1-3.29-4.52,35.27,35.27,0,0,1-2.65-6.2q-.28-.87-.63-2c-.23-.78-.46-1.62-.69-2.51s-.43-1.81-.61-2.77-.32-1.91-.41-2.85c-4.19,1.36-6.28,2.05-10.45,3.47a1.32,1.32,0,0,1-.87,0,.85.85,0,0,1-.55-.56.85.85,0,0,1,.09-.78,1.32,1.32,0,0,1,.7-.52c4.38-1.49,6.58-2.22,11-3.64a11.7,11.7,0,0,1,.13-2,6.61,6.61,0,0,1,.47-1.66,4.18,4.18,0,0,1,.86-1.28,3.12,3.12,0,0,1,1.29-.77A2.54,2.54,0,0,1,16,41.53a3.06,3.06,0,0,1,1.21.62,5.07,5.07,0,0,1,1,1.18A12.5,12.5,0,0,1,19.09,45c6-1.87,9-2.77,15-4.51a1.31,1.31,0,0,1,.87,0A.85.85,0,0,1,35.5,41.07ZM18.68,64.19A35.77,35.77,0,0,0,19,59.93q.06-2.24-.08-4.46a42.55,42.55,0,0,0-.49-4.28,27.81,27.81,0,0,0-.87-3.73l-3.45,1.1a30.61,30.61,0,0,0,.64,4.25q.53,2.49,1.64,5.93.62,1.92,1.15,3.19A19.79,19.79,0,0,0,18.68,64.19ZM15.08,43.62c-.18.06-.38.31-.6.76a5.77,5.77,0,0,0-.41,2.18l2.81-.89a6.93,6.93,0,0,0-1-1.61Q15.44,43.51,15.08,43.62Z"/><path class="cls-1" d="M35.3,67.52q.18-1,.47-2.26t.65-2.53q.36-1.3.82-2.62a25.11,25.11,0,0,1,1-2.51,5.72,5.72,0,0,1,1.3-1.83A3.82,3.82,0,0,1,41,54.9a3,3,0,0,1,1.39-.09,2.66,2.66,0,0,1,1.14.5,3.6,3.6,0,0,1,.86,1A5.12,5.12,0,0,1,45,57.61a14.35,14.35,0,0,1,.33,1.67,17.8,17.8,0,0,0,.47,2.18,11.65,11.65,0,0,0,.43,1.24,4.86,4.86,0,0,0,.57,1,1.94,1.94,0,0,0,.78.64,1.52,1.52,0,0,0,1.05,0,3,3,0,0,0,1.27-.74A6.72,6.72,0,0,0,51,62.37a13.38,13.38,0,0,0,.89-1.68q.4-.9.69-1.76c.19-.58.35-1.13.48-1.65s.23-1,.3-1.3a1.07,1.07,0,0,1,.84-.88,1,1,0,0,1,.86.11,1.06,1.06,0,0,1,.47.62.93.93,0,0,1,0,.42c0,.16-.11.5-.21,1A18.08,18.08,0,0,1,54.84,59q-.33,1-.81,2.19a14.44,14.44,0,0,1-1.16,2.22,9,9,0,0,1-1.57,1.86,5,5,0,0,1-2,1.12A4,4,0,0,1,47,66.5a3.84,3.84,0,0,1-1.61-1,5.63,5.63,0,0,1-1.1-1.61,12.66,12.66,0,0,1-.7-1.87q-.14-.48-.25-1c-.07-.37-.14-.74-.21-1.11s-.12-.71-.18-1-.12-.58-.18-.8a1.9,1.9,0,0,0-.56-1,.75.75,0,0,0-.64-.13,1.8,1.8,0,0,0-.91.79,9.54,9.54,0,0,0-.86,1.64,21.13,21.13,0,0,0-.77,2.17q-.35,1.18-.67,2.34T37.85,66q-.22,1-.36,1.71a4.1,4.1,0,0,1-.76,1.85,2.19,2.19,0,0,1-1,.71A1.62,1.62,0,0,1,34.22,70a2.75,2.75,0,0,1-.94-1.43l-.5-1.67q-1.51-5-2.87-9.55t-2.4-8.49q-1-3.94-1.69-7.2A33.25,33.25,0,0,1,25.13,36a10.13,10.13,0,0,1,.56-3.93,3.1,3.1,0,0,1,2.07-1.94,3.73,3.73,0,0,1,2.3,0,4.65,4.65,0,0,1,1.88,1.25,8.79,8.79,0,0,1,1.48,2.22,18.13,18.13,0,0,1,1.08,2.87,31.28,31.28,0,0,1,1.13,6.33,44.94,44.94,0,0,1,0,6.37,54.08,54.08,0,0,1-.8,6.3q-.59,3.13-1.34,6.15l.34,1.14.4,1.33.37,1.25.28.93Zm-2.92-9.78q.48-2.8.8-5.41a49.61,49.61,0,0,0,.36-5.13,39.47,39.47,0,0,0-.24-5,30.25,30.25,0,0,0-1-5.07q-.12-.42-.44-1.34A10.84,10.84,0,0,0,31,34a5.47,5.47,0,0,0-1.17-1.47,1.52,1.52,0,0,0-1.51-.34,1.41,1.41,0,0,0-.9,1.12,8.5,8.5,0,0,0-.2,2.37,26,26,0,0,0,.33,3.29q.29,1.85.74,3.88t1,4.15q.55,2.11,1.11,4.1t1.07,3.71Z"/><path class="cls-1" d="M58.18,60.39a4.56,4.56,0,0,0,1.87.84,5.9,5.9,0,0,0,4.82-1.4,8.66,8.66,0,0,0,1.68-2.17A13.88,13.88,0,0,0,67.67,55q.44-1.45.74-2.86a1,1,0,0,1,.3-.54,1.18,1.18,0,0,1,.54-.29,1.07,1.07,0,0,1,.87.13,1,1,0,0,1,.47.63.83.83,0,0,1,0,.24,1.18,1.18,0,0,1,0,.22,20.59,20.59,0,0,1-2.82,7.21A8.23,8.23,0,0,1,63,63.13a7.37,7.37,0,0,1-3.42.16,7,7,0,0,1-2.71-1.17,7.57,7.57,0,0,1-2-2.1,9.37,9.37,0,0,1-1.16-2.61,8.63,8.63,0,0,1-.31-2.61A6.33,6.33,0,0,1,54,52.52a5,5,0,0,1,1.27-1.76,4.61,4.61,0,0,1,1.95-1,3.72,3.72,0,0,1,1.39-.09,3.93,3.93,0,0,1,1.36.42,3.69,3.69,0,0,1,1.13.92,3.63,3.63,0,0,1,.71,1.45,5.47,5.47,0,0,1,.12,2.17,7.14,7.14,0,0,1-.65,2.08,9.6,9.6,0,0,1-1.29,2A13.12,13.12,0,0,1,58.18,60.39Zm-1.31-1.51a7.43,7.43,0,0,0,1.39-1.31,6.81,6.81,0,0,0,.94-1.5,5.57,5.57,0,0,0,.46-1.56A3.9,3.9,0,0,0,59.57,53a1.66,1.66,0,0,0-.75-1.11,1.47,1.47,0,0,0-1.12-.15,2.26,2.26,0,0,0-1.23.75,3.17,3.17,0,0,0-.62,1.28,5.31,5.31,0,0,0-.13,1.56A8.17,8.17,0,0,0,56,56.94a5.7,5.7,0,0,0,.37,1A10.26,10.26,0,0,0,56.86,58.88Z"/><path class="cls-1" d="M70.79,48.65a13.22,13.22,0,0,1,0,1.43c0,.45,0,.84-.07,1.18s-.06.62-.09.83a1.78,1.78,0,0,1-.07.36,1.05,1.05,0,0,1-.86.86,1.2,1.2,0,0,1-.82-.1.91.91,0,0,1-.52-.63.42.42,0,0,1,0-.25A2.63,2.63,0,0,0,68.5,52a6.89,6.89,0,0,0,.09-.88q0-.61,0-1.85l-1,.22a3.5,3.5,0,0,1-1,.05,1.73,1.73,0,0,1-.87-.33,1.51,1.51,0,0,1-.53-.89,4.06,4.06,0,0,1,0-1.3,8.18,8.18,0,0,1,.37-1.71,6.57,6.57,0,0,1,.73-1.56,1.77,1.77,0,0,1,1-.84,1.47,1.47,0,0,1,1.21.19,3.28,3.28,0,0,1,.93,1,7.26,7.26,0,0,1,.67,1.3,9.51,9.51,0,0,1,.4,1.24l1-.25.91-.23a4.18,4.18,0,0,1,2.69.08,2.68,2.68,0,0,1,1.39,2,10.41,10.41,0,0,1,.21,1.31c0,.46.08.94.12,1.43s.08,1,.13,1.46a11.51,11.51,0,0,0,.23,1.39,4,4,0,0,0,.66,1.54,3,3,0,0,0,1,.84,2.57,2.57,0,0,0,1,.31,3.17,3.17,0,0,0,.92-.06,4.14,4.14,0,0,0,2.16-1.28,11.16,11.16,0,0,0,1.61-2.27,18.53,18.53,0,0,0,1.16-2.62q.48-1.35.78-2.35a1,1,0,0,1,.33-.47,1.22,1.22,0,0,1,.52-.25,1.08,1.08,0,0,1,.88.14,1,1,0,0,1,.44.63,1,1,0,0,1,0,.51q-.43,1.25-1,2.83a19,19,0,0,1-1.44,3,11.86,11.86,0,0,1-2.06,2.61,6,6,0,0,1-2.86,1.52,5.39,5.39,0,0,1-2,.08,4.7,4.7,0,0,1-1.83-.68,5.2,5.2,0,0,1-1.47-1.44,6.26,6.26,0,0,1-.94-2.18,12.93,12.93,0,0,1-.34-2.75,12.38,12.38,0,0,0-.31-2.61,1.1,1.1,0,0,0-.43-.71,1.63,1.63,0,0,0-1.15,0l-.89.21Zm-2.43-1.52q0-.19-.14-.49c-.06-.2-.13-.4-.21-.59a3,3,0,0,0-.24-.48c-.08-.13-.15-.19-.21-.18s-.11.1-.17.25-.11.34-.16.55a5,5,0,0,0-.11.67c0,.23,0,.43,0,.58Z"/><path class="cls-1" d="M91,52.61a4.55,4.55,0,0,0,1.82.93,5.87,5.87,0,0,0,4.87-1.17,8.64,8.64,0,0,0,1.77-2.09,13.88,13.88,0,0,0,1.25-2.64q.5-1.42.87-2.82a1,1,0,0,1,.32-.53,1.17,1.17,0,0,1,.55-.26,1.07,1.07,0,0,1,.86.17,1,1,0,0,1,.44.65.84.84,0,0,1,0,.24,1.22,1.22,0,0,1,0,.22,20.59,20.59,0,0,1-3.15,7.06,8.19,8.19,0,0,1-4.87,3.21,7.33,7.33,0,0,1-3.42,0,7,7,0,0,1-2.65-1.3,7.57,7.57,0,0,1-1.86-2.19,9.39,9.39,0,0,1-1-2.66,8.65,8.65,0,0,1-.19-2.62,6.33,6.33,0,0,1,.61-2.25,5,5,0,0,1,1.35-1.7,4.59,4.59,0,0,1,2-.93,3.7,3.7,0,0,1,1.39,0,3.91,3.91,0,0,1,1.34.49,3.69,3.69,0,0,1,1.08,1A3.64,3.64,0,0,1,95,44.85,5.48,5.48,0,0,1,95,47a7.14,7.14,0,0,1-.74,2A9.59,9.59,0,0,1,92.88,51,13.07,13.07,0,0,1,91,52.61ZM89.79,51a7.41,7.41,0,0,0,1.45-1.24,6.8,6.8,0,0,0,1-1.46,5.57,5.57,0,0,0,.53-1.54,3.91,3.91,0,0,0,0-1.51,1.66,1.66,0,0,0-.69-1.14A1.46,1.46,0,0,0,91,44a2.25,2.25,0,0,0-1.26.69A3.17,3.17,0,0,0,89,45.89a5.32,5.32,0,0,0-.2,1.56A8.2,8.2,0,0,0,89,49.06a5.72,5.72,0,0,0,.32,1A10.28,10.28,0,0,0,89.79,51Z"/><path class="cls-1" d="M102.35,15a8.94,8.94,0,0,1-1.69,7.66,1.35,1.35,0,0,1-.75.45A1.18,1.18,0,0,1,99,23a1,1,0,0,1-.28-1.44,7,7,0,0,0,1.33-6,1,1,0,0,1,.15-.8,1.12,1.12,0,0,1,.75-.46,1.3,1.3,0,0,1,.86.12A1,1,0,0,1,102.35,15Z"/><path class="cls-1" d="M114.1,40.82q-.1.47-.25,1.05c-.1.39-.22.82-.37,1.25a3,3,0,0,1-.41.82,1,1,0,0,1-.67.39,1.09,1.09,0,0,1-.84-.14.92.92,0,0,1-.41-.61.82.82,0,0,1,0-.24,2.07,2.07,0,0,1,.09-.34,17,17,0,0,0,.7-2.58,16.56,16.56,0,0,0,.22-2.24,10,10,0,0,1-.48-1,4.64,4.64,0,0,1-.25-.88,2.42,2.42,0,0,1,.15-1.53,1.37,1.37,0,0,1,1.05-.76,1.29,1.29,0,0,1,1.17.36,2.23,2.23,0,0,1,.63,1.27,4.46,4.46,0,0,1,.06.89c0,.3,0,.68,0,1.13q.95,1.43,1.83,2.52t1.58,2A17.4,17.4,0,0,1,119,43.84a4.91,4.91,0,0,1,.63,1.69,5.11,5.11,0,0,1-.12,2.26,4.27,4.27,0,0,1-1.32,2,1.49,1.49,0,0,0,.29,0l.29,0a6.73,6.73,0,0,0,2.92-1.22,9.94,9.94,0,0,0,2.2-2.25,15.36,15.36,0,0,0,1.59-2.83,25.93,25.93,0,0,0,1.08-3,.92.92,0,0,1,.72-.76,1,1,0,0,1,.83.21,1.09,1.09,0,0,1,.39.67,1,1,0,0,1,0,.42q-.21.79-.57,1.81a19.06,19.06,0,0,1-.92,2.13,17.59,17.59,0,0,1-1.33,2.21,12.62,12.62,0,0,1-1.79,2,10.94,10.94,0,0,1-2.3,1.61,9.65,9.65,0,0,1-2.89,1,10.18,10.18,0,0,1-3.7,0,5.93,5.93,0,0,1-3.08-1.63.89.89,0,0,1-.27-.49,1,1,0,0,1,.2-.78,1.1,1.1,0,0,1,.71-.45,1.12,1.12,0,0,1,.84.16.78.78,0,0,0,.23.14l.47.2a2.82,2.82,0,0,0,.62.16,2.2,2.2,0,0,0,.7,0,2.37,2.37,0,0,0,1.12-.48,2.47,2.47,0,0,0,.65-.8,2.74,2.74,0,0,0,.28-.92,2.89,2.89,0,0,0,0-.8,4.23,4.23,0,0,0-.47-1.32,9.35,9.35,0,0,0-.83-1.26q-.48-.62-1-1.27A15.26,15.26,0,0,1,114.1,40.82Z"/><path class="cls-1" d="M146.82,43.65q.35-1,.82-2.13t1-2.36q.56-1.2,1.2-2.39a25.34,25.34,0,0,1,1.38-2.29,5.68,5.68,0,0,1,1.56-1.6,3.76,3.76,0,0,1,1.59-.62,2.61,2.61,0,0,1,2.4.78,4.38,4.38,0,0,1,1,2.5c0,.24,0,.53.05.87s0,.71,0,1.09,0,.78,0,1.18,0,.77.08,1.12a10.56,10.56,0,0,0,.22,1.26,3.66,3.66,0,0,0,.4,1,1.7,1.7,0,0,0,.66.65,1.73,1.73,0,0,0,1,.15,3.53,3.53,0,0,0,2.07-1,11.68,11.68,0,0,0,1.74-2.13,18.09,18.09,0,0,0,1.32-2.43q.54-1.22.79-2a1.08,1.08,0,0,1,.38-.51,1.17,1.17,0,0,1,.59-.23,1,1,0,0,1,.84.26,1.08,1.08,0,0,1,.38.7.88.88,0,0,1,0,.39l-.38,1q-.29.72-.77,1.67t-1.14,2a13.26,13.26,0,0,1-1.49,2,9.6,9.6,0,0,1-1.83,1.58,4.83,4.83,0,0,1-2.16.79,4.19,4.19,0,0,1-2.17-.24A3.62,3.62,0,0,1,157,43.61a5,5,0,0,1-.83-1.66,11.48,11.48,0,0,1-.38-1.89q0-.41-.06-.94c0-.35,0-.72,0-1.11s0-.78,0-1.17,0-.76-.08-1.1a1.79,1.79,0,0,0-.43-1.16.8.8,0,0,0-.57-.25,1.79,1.79,0,0,0-1,.64,9.57,9.57,0,0,0-1.11,1.48q-.56.9-1.12,2t-1,2.2q-.47,1.09-.87,2.07t-.61,1.62a4.15,4.15,0,0,1-1,1.7,2.1,2.1,0,0,1-1.14.55,1.9,1.9,0,0,1-1.41-.3A1.8,1.8,0,0,1,144.7,45c0-.13,0-.38,0-.76s0-.83,0-1.36,0-1.1,0-1.71,0-1.22-.06-1.82,0-1.16-.07-1.68-.07-.95-.11-1.3-.14-.89-.23-1.31-.21-.66-.34-.74a3.15,3.15,0,0,0-.81,1.15,20.59,20.59,0,0,0-1.28,3.56,1.06,1.06,0,0,1-.38.53,1.26,1.26,0,0,1-.59.25,1.05,1.05,0,0,1-1.23-.89,1.11,1.11,0,0,1,0-.42,19,19,0,0,1,1.89-4.66,3.2,3.2,0,0,1,2.13-1.7,2,2,0,0,1,1.19.16,2.32,2.32,0,0,1,.86.74,4.3,4.3,0,0,1,.56,1.1,6.28,6.28,0,0,1,.3,1.27q.06.49.12,1.55t.1,2.26q0,1.21.09,2.4T146.82,43.65Z"/><path class="cls-1" d="M180.32,39.55a7.17,7.17,0,0,1-1.3,0,8.18,8.18,0,0,1-.92,1.62,6.89,6.89,0,0,1-1.31,1.35,7.11,7.11,0,0,1-1.72,1A7.43,7.43,0,0,1,173,44a6.76,6.76,0,0,1-2.54-.22,6.17,6.17,0,0,1-2.1-1.07,5.69,5.69,0,0,1-1.51-1.82,7.2,7.2,0,0,1-.36-5.61,8.45,8.45,0,0,1,1.35-2.33,6.78,6.78,0,0,1,1.65-1.47,3.5,3.5,0,0,1,1.29-.55,1,1,0,0,1,.78.18.89.89,0,0,1,.31.64.83.83,0,0,1-.25.73,4.38,4.38,0,0,1-.74.53,5.71,5.71,0,0,0-.94.71,5,5,0,0,0-.89,1.1,5.3,5.3,0,0,0-.61,1.5,5.48,5.48,0,0,0-.11,1.87,4.83,4.83,0,0,0,.46,1.66,3.8,3.8,0,0,0,1,1.27,4,4,0,0,0,1.4.75,4.39,4.39,0,0,0,1.72.16,4.92,4.92,0,0,0,2.69-1A5,5,0,0,0,177,39,7.62,7.62,0,0,1,174,36.88a6,6,0,0,1-1.44-3.42,3.91,3.91,0,0,1,.58-2.64,2.65,2.65,0,0,1,2.06-1.18,3.32,3.32,0,0,1,1.54.23,3.47,3.47,0,0,1,1.35,1,6.18,6.18,0,0,1,1,1.91,11.3,11.3,0,0,1,.56,2.87,7.85,7.85,0,0,1-.08,1.87h.35l.38,0a6.77,6.77,0,0,0,1.77-.36,4.86,4.86,0,0,0,1.39-.77,5,5,0,0,0,1.08-1.22,11.75,11.75,0,0,0,.87-1.67.87.87,0,0,1,.36-.34,1.28,1.28,0,0,1,.58-.2,1.1,1.1,0,0,1,.74.24,1,1,0,0,1,.39.73,1.2,1.2,0,0,1-.08.49q-.1.27-.2.5a11.59,11.59,0,0,1-1,1.67A7.1,7.1,0,0,1,184.72,38,8.09,8.09,0,0,1,182.78,39,8.58,8.58,0,0,1,180.32,39.55ZM174.7,33a4.5,4.5,0,0,0,.24,1.09,4.9,4.9,0,0,0,.56,1.1,5.77,5.77,0,0,0,.86,1,4.38,4.38,0,0,0,1.15.78,7.62,7.62,0,0,0,0-1.14,10.13,10.13,0,0,0-.25-1.5A8.2,8.2,0,0,0,176.8,33a3.39,3.39,0,0,0-.64-1,1,1,0,0,0-.8-.33.86.86,0,0,0-.45.29A1.42,1.42,0,0,0,174.7,33Z"/><path class="cls-1" d="M213.8,32.92a9.06,9.06,0,0,1-.82,4.37,7.52,7.52,0,0,1-2.27,2.82h.12a6.81,6.81,0,0,0,3.11-.85,10.33,10.33,0,0,0,2.5-2,15.84,15.84,0,0,0,2-2.62q.87-1.43,1.55-2.78a1.07,1.07,0,0,1,.42-.48,1.17,1.17,0,0,1,.6-.18,1,1,0,0,1,.81.31,1.06,1.06,0,0,1,.31.71,1,1,0,0,1-.08.42,28.39,28.39,0,0,1-1.75,3.26,15.76,15.76,0,0,1-2.38,3,12.36,12.36,0,0,1-3.09,2.21,9.19,9.19,0,0,1-3.85,1,10.12,10.12,0,0,1-3-.33,7.12,7.12,0,0,1-2.63-1.31,4.15,4.15,0,0,1-.73-.62,4.58,4.58,0,0,1-.5-.63.15.15,0,0,1-.06-.11.89.89,0,0,1-.2-.52,1,1,0,0,1,.23-.68.15.15,0,0,1,.05-.07l.06,0a1.12,1.12,0,0,1,.63-.31h.09a.53.53,0,0,1,.21,0h.09a.5.5,0,0,1,.21,0l.06,0a1.44,1.44,0,0,1,.46.39,3.9,3.9,0,0,0,.5.59A2.56,2.56,0,0,0,207,39a1.48,1.48,0,0,0,.74.15,3,3,0,0,0,1.45-.48,4.41,4.41,0,0,0,1.27-1.24,6.5,6.5,0,0,0,.88-1.92,7.78,7.78,0,0,0,.28-2.47,5.71,5.71,0,0,0-.29-1.69,3.68,3.68,0,0,0-.61-1.13,2.33,2.33,0,0,0-.75-.62,1.56,1.56,0,0,0-.75-.18,2.38,2.38,0,0,0-1.58.84,11.54,11.54,0,0,0-1.52,2q-.74,1.22-1.46,2.7a19.93,19.93,0,0,0-1.43,2.87c-.49,2.17.2,5.83.26,8.54s.08,5.23,0,7.56-.16,4.44-.35,6.33a25.27,25.27,0,0,1-.91,4.88,8.53,8.53,0,0,1-1.63,3.18,3.55,3.55,0,0,1-2.54,1.23,3.73,3.73,0,0,1-1.1-.13,2.62,2.62,0,0,1-1.2-.72,4.79,4.79,0,0,1-1-1.64,9.72,9.72,0,0,1-.56-2.93,29,29,0,0,1,.25-5.47A56.55,56.55,0,0,1,195.73,52q.89-3.53,2.22-7.26a76.47,76.47,0,0,1,3-7.28q-.05-1-.09-1.91t-.08-1.82a1.21,1.21,0,0,1-.89.46,1,1,0,0,1-.81-.29,1.06,1.06,0,0,1-.33-.7,1.12,1.12,0,0,1,.07-.42,19.39,19.39,0,0,0,.94-2.94q.31-1.39.45-2.43a13.12,13.12,0,0,0,.14-1.65q0-.61,0-.64a1,1,0,0,1,.29-.74,1.2,1.2,0,0,1,1.58-.09.94.94,0,0,1,.37.72l.42,8.48q.62-1.11,1.25-2.19a14.18,14.18,0,0,1,1.35-1.95,6.94,6.94,0,0,1,1.57-1.41,3.78,3.78,0,0,1,1.92-.59,3.86,3.86,0,0,1,1.86.37,4.34,4.34,0,0,1,1.47,1.16,5.52,5.52,0,0,1,1,1.81A8.1,8.1,0,0,1,213.8,32.92Zm-12.62,9.43q-1.27,3.11-2.23,6.24t-1.58,6a54,54,0,0,0-.89,5.4,26.11,26.11,0,0,0-.16,4.39,10.06,10.06,0,0,0,.12,1,4.34,4.34,0,0,0,.29,1,2.17,2.17,0,0,0,.53.76,1.09,1.09,0,0,0,.83.27,1.92,1.92,0,0,0,1.54-1.24,11.52,11.52,0,0,0,1-3.16,41.46,41.46,0,0,0,.53-4.52q.18-2.54.22-5.31t0-5.58Q201.25,44.84,201.17,42.35Z"/><path class="cls-1" d="M236.78,32.55q-.32.64-.81,1.51t-1.09,1.82a22.22,22.22,0,0,1-1.37,1.87,12.13,12.13,0,0,1-1.64,1.67A8.61,8.61,0,0,1,230,40.63a5.16,5.16,0,0,1-2.14.48,4.63,4.63,0,0,1-3-1,8.63,8.63,0,0,1-2.19-2.64,17.34,17.34,0,0,1-1.51-3.74,37.3,37.3,0,0,1-.95-4.29q-.35-2.19-.51-4.26t-.2-3.67q-.06-2.32,0-4.81t.41-4.88a42.35,42.35,0,0,1,.82-4.53A20.37,20.37,0,0,1,222,3.56,8.44,8.44,0,0,1,223.74,1,3.31,3.31,0,0,1,226,0a3.86,3.86,0,0,1,1.84.4,3.44,3.44,0,0,1,1.39,1.38,8.33,8.33,0,0,1,.89,2.51,19.86,19.86,0,0,1,.35,3.78,27.16,27.16,0,0,1-.57,5.72,46.74,46.74,0,0,1-1.64,6,61.34,61.34,0,0,1-2.45,6q-1.41,3-3,5.85a17.72,17.72,0,0,0,2.08,5.47,3.52,3.52,0,0,0,3,2,3.57,3.57,0,0,0,2.24-.9,12.06,12.06,0,0,0,2-2.08,20.82,20.82,0,0,0,1.58-2.43q.68-1.24,1.07-2a1.05,1.05,0,0,1,.41-.43,1.17,1.17,0,0,1,.59-.15,1.1,1.1,0,0,1,1.13,1.07A1.21,1.21,0,0,1,236.78,32.55Zm-15-10.92q0,1.77.17,3.4t.31,3.12q1.2-2.27,2.28-4.82t1.92-5.15A44.75,44.75,0,0,0,227.75,13a24.15,24.15,0,0,0,.46-4.89,13.33,13.33,0,0,0-.65-4.66Q227,2.06,226,2.08a1.63,1.63,0,0,0-1.23.82,8.94,8.94,0,0,0-1.08,2.21,24.87,24.87,0,0,0-.88,3.28q-.39,1.89-.63,4.05T221.8,17Q221.69,19.31,221.75,21.63Z"/><path class="cls-1" d="M257.59,32.75l-.51.91q-.39.7-1,1.59t-1.38,1.88A13.17,13.17,0,0,1,253,38.92a9.4,9.4,0,0,1-2,1.33,5.07,5.07,0,0,1-2.29.5,4.16,4.16,0,0,1-2.83-1.06,5.93,5.93,0,0,1-1.66-2.59,8.4,8.4,0,0,1-2.39,2.49,4.9,4.9,0,0,1-2.75.92,5,5,0,0,1-2-.37,4.22,4.22,0,0,1-1.49-1,4.85,4.85,0,0,1-1-1.59,5.71,5.71,0,0,1-.35-2A8.59,8.59,0,0,1,237,29a8.26,8.26,0,0,1,2.69-1.66,8,8,0,0,1,2.84-.54,5.76,5.76,0,0,1,1.69.25,8.38,8.38,0,0,1,1.32.52,5.06,5.06,0,0,1,.84.52l.32.27a1.1,1.1,0,0,1,.32.75,1,1,0,0,1-.33.73,1.07,1.07,0,0,1-.77.31,1.13,1.13,0,0,1-.8-.31l-.26-.21a3.42,3.42,0,0,0-.56-.32,4.77,4.77,0,0,0-.84-.3,4.5,4.5,0,0,0-1.11-.13,5.72,5.72,0,0,0-3.86,1.58,6.67,6.67,0,0,0-1.43,2,6.82,6.82,0,0,0-.57,2.92,5,5,0,0,0,.12,1.06,2.87,2.87,0,0,0,.41,1,2.23,2.23,0,0,0,.79.72,2.52,2.52,0,0,0,1.23.28,2.88,2.88,0,0,0,1.22-.33,4.41,4.41,0,0,0,1.32-1,7.43,7.43,0,0,0,1.15-1.74,8.38,8.38,0,0,0,.74-2.48,1,1,0,0,1,.39-.65,1.18,1.18,0,0,1,.77-.26,1,1,0,0,1,.72.31,1.06,1.06,0,0,1,.33.69c0,.35,0,.84.1,1.48a8.68,8.68,0,0,0,.38,1.9,4.58,4.58,0,0,0,.9,1.64,2.16,2.16,0,0,0,1.69.71,3,3,0,0,0,1.4-.34,6.59,6.59,0,0,0,1.36-.93,11.17,11.17,0,0,0,1.29-1.33q.62-.75,1.13-1.51t.92-1.47l.68-1.23a1.08,1.08,0,0,1,.44-.46,1.18,1.18,0,0,1,.61-.15,1,1,0,0,1,.8.37,1.08,1.08,0,0,1,.29.74A.88.88,0,0,1,257.59,32.75Z"/><path class="cls-1" d="M280.58,13.74a.85.85,0,0,1-.37.68,1.29,1.29,0,0,1-.83.22c-6.14-.34-9.2-.48-15.35-.69v.3a25.66,25.66,0,0,1-.4,3.58q-.34,1.9-.87,3.77t-1.17,3.66Q261,27,260.3,28.54a28.18,28.18,0,0,1-1.28,2.6,9.57,9.57,0,0,1-1.11,1.64,16.1,16.1,0,0,0,.85,2.39,9.87,9.87,0,0,0,1.13,1.94,5.73,5.73,0,0,0,1.38,1.33,3.08,3.08,0,0,0,1.62.52,3.25,3.25,0,0,0,2.06-.74,11.7,11.7,0,0,0,2-1.86,20.72,20.72,0,0,0,1.62-2.2,19.54,19.54,0,0,0,1-1.8,1,1,0,0,1,1.06-.62,1.06,1.06,0,0,1,.8.37,1,1,0,0,1,.28.73.91.91,0,0,1-.11.38l-.47.86q-.37.67-1,1.56t-1.35,1.86a12.18,12.18,0,0,1-1.69,1.77,9.46,9.46,0,0,1-2,1.31,4.51,4.51,0,0,1-2.18.47,5.81,5.81,0,0,1-3.58-1.36,10.09,10.09,0,0,1-2.64-3.56,20.46,20.46,0,0,1-1.59-5.35,35.69,35.69,0,0,1-.44-6.73q0-.91.08-2.14t.18-2.6q.12-1.37.34-2.81t.55-2.82c-4.35-.1-6.52-.14-10.87-.18a1.29,1.29,0,0,1-.82-.27.91.91,0,0,1,0-1.41,1.29,1.29,0,0,1,.82-.26c4.57,0,6.85.08,11.42.19A11.78,11.78,0,0,1,257.2,10a6.61,6.61,0,0,1,1-1.41,4.14,4.14,0,0,1,1.22-.92,3.06,3.06,0,0,1,1.46-.3,2.49,2.49,0,0,1,1.32.39,3,3,0,0,1,.93,1,5.1,5.1,0,0,1,.58,1.46A12.63,12.63,0,0,1,264,12c6.2.21,9.31.35,15.51.7a1.29,1.29,0,0,1,.8.31A.85.85,0,0,1,280.58,13.74ZM257.3,30A36.12,36.12,0,0,0,259,26.11q.79-2.09,1.38-4.23a43,43,0,0,0,.94-4.2,28.12,28.12,0,0,0,.41-3.8l-3.57-.1a30.94,30.94,0,0,0-.79,4.22q-.32,2.52-.41,6.14-.05,2,0,3.39A20,20,0,0,0,257.3,30Zm3.38-20.59c-.18,0-.45.17-.81.52a5.79,5.79,0,0,0-1.09,1.92l2.91.09a7,7,0,0,0-.38-1.84Q261,9.42,260.68,9.41Z"/><path class="cls-1" d="M273,38a4.53,4.53,0,0,0,1.52,1.36,5.81,5.81,0,0,0,5,.1,8.61,8.61,0,0,0,2.24-1.57,13.88,13.88,0,0,0,1.88-2.24q.85-1.25,1.55-2.5a1,1,0,0,1,.44-.43,1.17,1.17,0,0,1,.6-.11A1.06,1.06,0,0,1,287,33a1,1,0,0,1,.26.74.85.85,0,0,1,0,.23,1.23,1.23,0,0,1-.1.2,20.6,20.6,0,0,1-4.82,6,8.14,8.14,0,0,1-5.51,1.87,7.27,7.27,0,0,1-3.29-.88,7,7,0,0,1-2.22-1.93A7.59,7.59,0,0,1,270,36.68a9.44,9.44,0,0,1-.32-2.84,8.7,8.7,0,0,1,.48-2.58,6.34,6.34,0,0,1,1.16-2,5,5,0,0,1,1.73-1.3,4.55,4.55,0,0,1,2.15-.39,3.67,3.67,0,0,1,1.34.33,3.89,3.89,0,0,1,1.16.81,3.6,3.6,0,0,1,1,2.81,5.5,5.5,0,0,1-.53,2.1A7.15,7.15,0,0,1,277,35.39a9.56,9.56,0,0,1-1.8,1.48A13,13,0,0,1,273,38Zm-.79-1.84a7.36,7.36,0,0,0,1.7-.83,6.78,6.78,0,0,0,1.34-1.15,5.58,5.58,0,0,0,.9-1.35,3.92,3.92,0,0,0,.37-1.46,1.67,1.67,0,0,0-.38-1.28,1.45,1.45,0,0,0-1-.48,2.23,2.23,0,0,0-1.38.35,3.17,3.17,0,0,0-1,1,5.33,5.33,0,0,0-.59,1.45,8.24,8.24,0,0,0-.24,1.61,5.75,5.75,0,0,0,.05,1.05A10.33,10.33,0,0,0,272.17,36.17Z"/><path class="cls-1" d="M315,36.66q-.39.6-1,1.41t-1.29,1.69a22.22,22.22,0,0,1-1.57,1.71A12.14,12.14,0,0,1,309.41,43a8.62,8.62,0,0,1-2,1,5.17,5.17,0,0,1-2.18.25,4.64,4.64,0,0,1-2.9-1.3A8.63,8.63,0,0,1,300.42,40a17.33,17.33,0,0,1-1.1-3.88,37.29,37.29,0,0,1-.48-4.37q-.11-2.22,0-4.29t.2-3.67q.19-2.32.57-4.78t.94-4.81a42.31,42.31,0,0,1,1.31-4.41,20.36,20.36,0,0,1,1.67-3.6,8.44,8.44,0,0,1,2-2.37,3.31,3.31,0,0,1,2.39-.72,3.87,3.87,0,0,1,1.79.6,3.45,3.45,0,0,1,1.23,1.52,8.33,8.33,0,0,1,.61,2.59,19.84,19.84,0,0,1-.07,3.8,27.13,27.13,0,0,1-1.2,5.62A46.71,46.71,0,0,1,308,23a61.32,61.32,0,0,1-3.09,5.69q-1.73,2.83-3.63,5.49a17.71,17.71,0,0,0,1.48,5.67,3.53,3.53,0,0,0,2.76,2.27,3.58,3.58,0,0,0,2.33-.65A12.06,12.06,0,0,0,310,39.61a20.83,20.83,0,0,0,1.84-2.24q.82-1.15,1.28-1.85a1.05,1.05,0,0,1,.46-.38,1.17,1.17,0,0,1,.6-.09,1.1,1.1,0,0,1,1,1.19A1.21,1.21,0,0,1,315,36.66Zm-13.77-12.5q-.15,1.76-.2,3.4t0,3.13q1.44-2.12,2.8-4.54t2.47-4.91a44.72,44.72,0,0,0,1.88-5,24.12,24.12,0,0,0,1-4.81A13.31,13.31,0,0,0,309,6.73q-.45-1.46-1.43-1.55a1.63,1.63,0,0,0-1.32.68A8.93,8.93,0,0,0,305,7.94a24.85,24.85,0,0,0-1.24,3.17q-.59,1.84-1.07,4t-.84,4.45Q301.47,21.84,301.27,24.15Z"/><path class="cls-1" d="M319.39,23a2.34,2.34,0,0,1-1,1.69,2.94,2.94,0,0,1-3.86-.42,2.34,2.34,0,0,1-.61-1.86,2.31,2.31,0,0,1,.31-1,2.5,2.5,0,0,1,.67-.74,2.76,2.76,0,0,1,.93-.44,3.06,3.06,0,0,1,2.13.23,2.76,2.76,0,0,1,.81.63,2.51,2.51,0,0,1,.5.86A2.3,2.3,0,0,1,319.39,23Zm-6.54,15.59a58.63,58.63,0,0,1,1.36-7.84,1.14,1.14,0,0,1,.44-.63,1.15,1.15,0,0,1,.85-.2,1,1,0,0,1,.71.4,1,1,0,0,1,.22.76c0,.11-.07.44-.18,1L315.85,34q-.23,1.13-.44,2.4t-.33,2.34a7.48,7.48,0,0,0,.05,2.38,3.71,3.71,0,0,0,.64,1.47,2.44,2.44,0,0,0,.95.77,3.57,3.57,0,0,0,1,.28,3.21,3.21,0,0,0,1.75-.36,9.32,9.32,0,0,0,2-1.33,20.11,20.11,0,0,0,2.14-2.15q1.1-1.27,2.22-2.86a1.05,1.05,0,0,1,.46-.37,1.17,1.17,0,0,1,.61-.08,1.1,1.1,0,0,1,1,1.18.89.89,0,0,1-.18.45l-1.07,1.43q-.64.84-1.43,1.72T323.46,43a14.46,14.46,0,0,1-1.91,1.5,8.91,8.91,0,0,1-2,1,4.7,4.7,0,0,1-2.06.24,4.9,4.9,0,0,1-2.23-.78,5.19,5.19,0,0,1-1.52-1.58,6,6,0,0,1-.8-2.18A9.55,9.55,0,0,1,312.85,38.59Zm4.86-15.78a.89.89,0,0,0-.24-.71,1.06,1.06,0,0,0-.7-.37A1,1,0,0,0,316,22a.91.91,0,0,0-.37.64.87.87,0,0,0,.23.69,1,1,0,0,0,.69.35,1.08,1.08,0,0,0,.76-.2A.85.85,0,0,0,317.71,22.82Z"/><path class="cls-1" d="M332.5,43a3.72,3.72,0,0,0,1.41,1.88,5.35,5.35,0,0,0,2.47,1,13.39,13.39,0,0,0,1.44.08,6.83,6.83,0,0,0,2.4-.49,12,12,0,0,0,3.07-1.8,17.72,17.72,0,0,0,3.47-3.81,1,1,0,0,1,.48-.39,1.17,1.17,0,0,1,.61-.06,1.06,1.06,0,0,1,.76.45,1,1,0,0,1,.2.76,1.21,1.21,0,0,1-.18.42,22,22,0,0,1-2.83,3.22,15.89,15.89,0,0,1-3.11,2.27,12.08,12.08,0,0,1-3.28,1.25,9.38,9.38,0,0,1-3.31.13,7.81,7.81,0,0,1-2.39-.72,6.7,6.7,0,0,1-1.83-1.29,5.3,5.3,0,0,1-1.12-1.63,3.25,3.25,0,0,1-.26-1.72,2.12,2.12,0,0,1,.07-.3,1.29,1.29,0,0,1,.22-.4,1.61,1.61,0,0,1,.44-.39,2,2,0,0,1,.73-.25,13.82,13.82,0,0,0,2.31-.51,8.56,8.56,0,0,0,1.89-.84,4.87,4.87,0,0,0,1.33-1.17,3.18,3.18,0,0,0,.63-1.52,1.54,1.54,0,0,0-.36-1.28,1.91,1.91,0,0,0-1.23-.64,2.82,2.82,0,0,0-1.63.29,7.33,7.33,0,0,0-1.67,1.14,13.55,13.55,0,0,0-1.62,1.74,23.45,23.45,0,0,0-1.48,2.11q-.69,1.11-1.25,2.22t-.94,2.07l-.27.63a2.56,2.56,0,0,1-.39.63,1.88,1.88,0,0,1-.56.46,1.28,1.28,0,0,1-.78.11,1.31,1.31,0,0,1-.8-.45,1.47,1.47,0,0,1-.26-1.22q0-.16.17-1.26t.4-2.86q.25-1.77.57-4.05t.67-4.85q.34-2.56.74-5.27t.74-5.28q.35-2.57.68-4.89t.58-4.11q.25-1.79.41-2.93T330,8.13a.89.89,0,0,1,.46-.68,1.27,1.27,0,0,1,.83-.19,1.24,1.24,0,0,1,.79.39,1,1,0,0,1,.24.8l-.15,1.08q-.15,1-.39,2.75l-.59,4q-.34,2.3-.71,4.89l-.76,5.32-.76,5.34q-.37,2.6-.7,5T327.66,41a26.69,26.69,0,0,1,1.57-2.8,16,16,0,0,1,2.1-2.64,9.6,9.6,0,0,1,2.54-1.87,4.88,4.88,0,0,1,2.91-.47,4.38,4.38,0,0,1,1.56.51,4,4,0,0,1,1.17,1A3.7,3.7,0,0,1,340.2,36a3.59,3.59,0,0,1,.1,1.52,4.52,4.52,0,0,1-.91,2.17,6.84,6.84,0,0,1-1.81,1.62,10.92,10.92,0,0,1-2.4,1.1A16.8,16.8,0,0,1,332.5,43Z"/><path class="cls-1" d="M349.4,45.87a4.54,4.54,0,0,0,1.36,1.52,5.85,5.85,0,0,0,5,.64,8.63,8.63,0,0,0,2.4-1.32,13.88,13.88,0,0,0,2.11-2q1-1.15,1.82-2.32a1,1,0,0,1,.49-.38,1.17,1.17,0,0,1,.61,0,1.07,1.07,0,0,1,.75.47,1,1,0,0,1,.18.76.84.84,0,0,1-.07.23,1.22,1.22,0,0,1-.12.19,20.6,20.6,0,0,1-5.46,5.47,8.18,8.18,0,0,1-5.69,1.26,7.3,7.3,0,0,1-3.18-1.23,7,7,0,0,1-2-2.16,7.58,7.58,0,0,1-1-2.71,9.41,9.41,0,0,1,0-2.85,8.68,8.68,0,0,1,.76-2.51A6.34,6.34,0,0,1,348.72,37a5,5,0,0,1,1.86-1.11,4.57,4.57,0,0,1,2.19-.16,3.69,3.69,0,0,1,1.3.48,3.91,3.91,0,0,1,1.07.93,3.69,3.69,0,0,1,.66,1.3,3.65,3.65,0,0,1,.06,1.61,5.49,5.49,0,0,1-.76,2,7.14,7.14,0,0,1-1.42,1.64,9.58,9.58,0,0,1-2,1.28A13,13,0,0,1,349.4,45.87ZM348.81,44a7.39,7.39,0,0,0,1.79-.64,6.79,6.79,0,0,0,1.46-1,5.57,5.57,0,0,0,1-1.25,3.91,3.91,0,0,0,.53-1.41,1.66,1.66,0,0,0-.24-1.31,1.46,1.46,0,0,0-1-.59A2.24,2.24,0,0,0,351,38a3.17,3.17,0,0,0-1.08.92,5.32,5.32,0,0,0-.74,1.38,8.21,8.21,0,0,0-.41,1.57,5.73,5.73,0,0,0-.06,1.05A10.31,10.31,0,0,0,348.81,44Z"/><path class="cls-1" d="M376.27,51.35q.64-.83,1.46-1.78t1.74-1.93q.92-1,1.93-1.94a25.06,25.06,0,0,1,2.06-1.75,5.69,5.69,0,0,1,2-1,3.79,3.79,0,0,1,1.71-.08,3,3,0,0,1,1.27.57,2.65,2.65,0,0,1,.77,1,3.6,3.6,0,0,1,.31,1.25,5.12,5.12,0,0,1-.11,1.45,14.4,14.4,0,0,1-.49,1.63,17.86,17.86,0,0,0-.6,2.15,11.68,11.68,0,0,0-.2,1.3,4.88,4.88,0,0,0,0,1.19,1.94,1.94,0,0,0,.39.93,1.52,1.52,0,0,0,.91.52,3,3,0,0,0,1.46-.06,6.7,6.7,0,0,0,1.57-.67A13.37,13.37,0,0,0,394,53q.77-.61,1.43-1.24t1.19-1.23c.35-.4.65-.74.87-1a1.07,1.07,0,0,1,1.16-.39,1,1,0,0,1,.71.5,1.06,1.06,0,0,1,.13.77.93.93,0,0,1-.18.38l-.65.79a18.1,18.1,0,0,1-1.25,1.36q-.77.76-1.73,1.56a14.44,14.44,0,0,1-2.06,1.42,9,9,0,0,1-2.25.91,5,5,0,0,1-2.31,0,3.92,3.92,0,0,1-2-1,3.84,3.84,0,0,1-1-1.61,5.64,5.64,0,0,1-.22-1.94,12.71,12.71,0,0,1,.25-2q.1-.49.26-1c.11-.36.22-.72.33-1.07l.32-1c.1-.31.17-.57.21-.79a1.91,1.91,0,0,0,0-1.19.74.74,0,0,0-.51-.42,1.79,1.79,0,0,0-1.17.28,9.52,9.52,0,0,0-1.52,1.05,21.11,21.11,0,0,0-1.69,1.56q-.86.88-1.67,1.76t-1.49,1.69l-1.11,1.34a4.1,4.1,0,0,1-1.53,1.29,2.17,2.17,0,0,1-1.19.17,1.61,1.61,0,0,1-1.24-.93,2.76,2.76,0,0,1-.16-1.71l.33-1.71q1-5.13,1.92-9.78t1.83-8.63q.91-4,1.86-7.16a33.43,33.43,0,0,1,2-5.35,10.15,10.15,0,0,1,2.32-3.22,3.08,3.08,0,0,1,2.72-.75,3.7,3.7,0,0,1,2,1.06,4.64,4.64,0,0,1,1.07,2,8.82,8.82,0,0,1,.27,2.65,18.21,18.21,0,0,1-.38,3A31.41,31.41,0,0,1,388,29.66a45.12,45.12,0,0,1-2.95,5.65,54.29,54.29,0,0,1-3.63,5.2q-2,2.49-4,4.82l-.23,1.17-.27,1.36-.25,1.28-.19.95Zm2-10q1.72-2.25,3.22-4.42a50,50,0,0,0,2.7-4.38A39.83,39.83,0,0,0,386.29,28a30.44,30.44,0,0,0,1.46-5q.09-.43.24-1.39a10.89,10.89,0,0,0,.12-2,5.49,5.49,0,0,0-.35-1.85,1.51,1.51,0,0,0-1.17-1,1.4,1.4,0,0,0-1.31.57,8.5,8.5,0,0,0-1.28,2,26.06,26.06,0,0,0-1.24,3.07q-.6,1.77-1.15,3.77t-1.05,4.13q-.5,2.13-.93,4.14t-.78,3.78Z"/><path class="cls-1" d="M409.53,58a7.26,7.26,0,0,1-1.24-.42,8.18,8.18,0,0,1-1.4,1.24,6.92,6.92,0,0,1-1.68.86,7.18,7.18,0,0,1-2,.38,7.51,7.51,0,0,1-2.18-.21,6.83,6.83,0,0,1-2.35-1,6.2,6.2,0,0,1-1.66-1.69,5.69,5.69,0,0,1-.85-2.21,7.17,7.17,0,0,1,1.45-5.43,8.45,8.45,0,0,1,2-1.78,6.81,6.81,0,0,1,2-.86,3.53,3.53,0,0,1,1.41-.11,1,1,0,0,1,.69.42.89.89,0,0,1,.1.7.83.83,0,0,1-.47.61,4.41,4.41,0,0,1-.87.26,5.75,5.75,0,0,0-1.13.38,5,5,0,0,0-1.2.76,5.29,5.29,0,0,0-1.06,1.23,5.46,5.46,0,0,0-.7,1.74,4.81,4.81,0,0,0-.09,1.72,3.79,3.79,0,0,0,.53,1.51A4,4,0,0,0,400,57.3a4.44,4.44,0,0,0,1.59.7,4.78,4.78,0,0,0,5-1.48,7.65,7.65,0,0,1-2.22-3,6,6,0,0,1-.28-3.7,3.9,3.9,0,0,1,1.39-2.31A2.67,2.67,0,0,1,407.8,47a3.36,3.36,0,0,1,1.4.71,3.49,3.49,0,0,1,1,1.4,6.16,6.16,0,0,1,.38,2.14,11.23,11.23,0,0,1-.38,2.9,7.8,7.8,0,0,1-.68,1.74l.34.11.37.09a6.86,6.86,0,0,0,1.81.22,4.91,4.91,0,0,0,1.57-.29,5,5,0,0,0,1.42-.81,11.74,11.74,0,0,0,1.36-1.31.88.88,0,0,1,.45-.21,1.3,1.3,0,0,1,.62,0,1.11,1.11,0,0,1,.63.46,1,1,0,0,1,.14.82,1.19,1.19,0,0,1-.24.44l-.35.41a11.6,11.6,0,0,1-1.53,1.25,7.14,7.14,0,0,1-1.85.9,8.17,8.17,0,0,1-2.18.37A8.69,8.69,0,0,1,409.53,58Zm-3.28-8a4.47,4.47,0,0,0-.11,1.11,4.88,4.88,0,0,0,.18,1.22,5.77,5.77,0,0,0,.5,1.23,4.4,4.4,0,0,0,.85,1.1,7.57,7.57,0,0,0,.36-1.08,10.07,10.07,0,0,0,.24-1.51,8.16,8.16,0,0,0,0-1.46,3.39,3.39,0,0,0-.29-1.15,1,1,0,0,0-.66-.57.87.87,0,0,0-.52.13Q406.45,49.26,406.26,50.07Z"/><path class="cls-1" d="M421.32,61.67Q422,61,422.95,60t2-2q1.06-1,2.05-1.88a16.21,16.21,0,0,1,1.64-1.3,5.41,5.41,0,0,1,2.1-.85,4.19,4.19,0,0,1,1.76.06,2.74,2.74,0,0,1,1.2.65,2.66,2.66,0,0,1,.66,1A3.68,3.68,0,0,1,434.6,57a5.66,5.66,0,0,1-.22,1.45q-.12.43-.36,1.11L433.51,61,433,62.6q-.28.84-.52,1.58l1.47-1.49q.82-.81,1.65-1.61t1.59-1.48a13.71,13.71,0,0,1,1.34-1.1,7.57,7.57,0,0,1,2.93-1.42,4.59,4.59,0,0,1,2.07,0,3.6,3.6,0,0,1,1.51.81,2.82,2.82,0,0,1,.74,1.14,3.4,3.4,0,0,1,.15,1.3,5.77,5.77,0,0,1-.22,1.26,13.72,13.72,0,0,1-.71,1.84,17,17,0,0,0-.84,2.29,11.35,11.35,0,0,0-.28,1.13,3.43,3.43,0,0,0-.05,1.05,1.63,1.63,0,0,0,.37.86,2,2,0,0,0,1,.59,3.33,3.33,0,0,0,1.55.08,6.67,6.67,0,0,0,1.65-.52A10.84,10.84,0,0,0,450,68q.81-.56,1.52-1.15t1.3-1.14q.58-.56,1-1a1.11,1.11,0,0,1,1.16-.3,1.06,1.06,0,0,1,.68.58,1.08,1.08,0,0,1,.08.79.86.86,0,0,1-.2.34l-.74.74a16.55,16.55,0,0,1-1.39,1.24q-.84.68-1.89,1.39a14.71,14.71,0,0,1-2.2,1.24,9.23,9.23,0,0,1-2.36.72,5.17,5.17,0,0,1-2.36-.16,4.53,4.53,0,0,1-1.89-1,3.52,3.52,0,0,1-.91-1.47,4.38,4.38,0,0,1-.16-1.78,10.6,10.6,0,0,1,.39-1.93,19.36,19.36,0,0,1,.86-2.36,14.91,14.91,0,0,0,.65-1.67,3.15,3.15,0,0,0,.17-1,1.14,1.14,0,0,0-.17-.58.72.72,0,0,0-.31-.27l-.25-.09a2.3,2.3,0,0,0-1.66.28,11.47,11.47,0,0,0-2.11,1.41q-1.14.93-2.41,2.18t-2.57,2.54L433,66.71a5.18,5.18,0,0,1-.87.7,2.06,2.06,0,0,1-.71.29,1.5,1.5,0,0,1-.66,0,1.4,1.4,0,0,1-1-.79,2,2,0,0,1,0-1.36q.11-.4.33-1.06l.47-1.45q.25-.79.55-1.63t.54-1.61l.45-1.38q.2-.6.29-.92a1.6,1.6,0,0,0,0-1.07.8.8,0,0,0-.52-.48,1.55,1.55,0,0,0-.77,0,3.66,3.66,0,0,0-1.14.57,17.32,17.32,0,0,0-1.41,1.12q-.87.75-1.86,1.68t-2,1.92c-.66.66-1.23,1.27-1.72,1.8a4.44,4.44,0,0,1-1.61,1.21,2.13,2.13,0,0,1-1.28.1,1.57,1.57,0,0,1-1.1-.79,1.92,1.92,0,0,1-.07-1.35l.3-1,.67-2.13.84-2.68.84-2.67a6.47,6.47,0,0,0,.27-1.24,1.2,1.2,0,0,0-.05-.73c-.16,0-.56.25-1.17.75A20.22,20.22,0,0,0,418,55.37a1.06,1.06,0,0,1-.55.34,1.27,1.27,0,0,1-.65,0,1.05,1.05,0,0,1-.8-1.29,1.11,1.11,0,0,1,.19-.38,17.82,17.82,0,0,1,3.57-3.58,3.35,3.35,0,0,1,2.68-.74,2.14,2.14,0,0,1,1,.58,2.18,2.18,0,0,1,.52.91,3.32,3.32,0,0,1,.11,1.1,5.63,5.63,0,0,1-.18,1.13q-.63,2.38-1.29,4.32T421.32,61.67Z"/><path class="cls-1" d="M455.51,71.09a4.57,4.57,0,0,0,1.13,1.71,5.95,5.95,0,0,0,4.84,1.41,8.71,8.71,0,0,0,2.59-.93,13.9,13.9,0,0,0,2.41-1.67q1.15-1,2.16-2a1,1,0,0,1,.54-.3,1.19,1.19,0,0,1,.62,0,1.08,1.08,0,0,1,.67.58,1,1,0,0,1,.06.78.84.84,0,0,1-.1.21,1.22,1.22,0,0,1-.15.17A20.61,20.61,0,0,1,464,75.65a8.3,8.3,0,0,1-5.87.36,7.43,7.43,0,0,1-3-1.71,7,7,0,0,1-1.67-2.45A7.56,7.56,0,0,1,453,69a9.34,9.34,0,0,1,.42-2.82,8.61,8.61,0,0,1,1.14-2.37,6.32,6.32,0,0,1,1.66-1.65,5,5,0,0,1,2-.81,4.64,4.64,0,0,1,2.2.18,3.75,3.75,0,0,1,1.22.67,4,4,0,0,1,.93,1.09,3.69,3.69,0,0,1,.46,1.39,3.62,3.62,0,0,1-.18,1.6,5.44,5.44,0,0,1-1.06,1.89,7.13,7.13,0,0,1-1.67,1.4,9.64,9.64,0,0,1-2.14,1A13.2,13.2,0,0,1,455.51,71.09Zm-.3-2a7.47,7.47,0,0,0,1.88-.36,6.83,6.83,0,0,0,1.61-.76,5.56,5.56,0,0,0,1.23-1.07,3.88,3.88,0,0,0,.74-1.31,1.66,1.66,0,0,0,0-1.34,1.48,1.48,0,0,0-.87-.73,2.28,2.28,0,0,0-1.44,0,3.18,3.18,0,0,0-1.21.74,5.29,5.29,0,0,0-.95,1.25A8.15,8.15,0,0,0,455.5,67a5.68,5.68,0,0,0-.22,1A10.24,10.24,0,0,0,455.21,69.1Z"/><path class="cls-1" d="M31.85,155.25H23.24v11c0,1-1.26,1.57-2.49,1.57s-2.49-.54-2.49-1.57V141.36c0-1.07,1.22-1.53,2.49-1.53s2.49.46,2.49,1.53v10h8.61v-10c0-1.07,1.22-1.53,2.49-1.53s2.49.46,2.49,1.53v24.88c0,1-1.26,1.57-2.49,1.57s-2.49-.54-2.49-1.57Z"/><path class="cls-1" d="M48.3,151.85h5.82c1,0,1.57,1,1.57,2a1.73,1.73,0,0,1-1.57,1.91H48.3v7.69H59.13c1,0,1.57,1,1.57,2.22,0,1-.5,2.14-1.57,2.14H45.51c-1.11,0-2.18-.54-2.18-1.57V141.4c0-1,1.07-1.57,2.18-1.57H59.13c1.07,0,1.57,1.11,1.57,2.14,0,1.19-.57,2.22-1.57,2.22H48.3Z"/><path class="cls-1" d="M63.57,165.74a2.23,2.23,0,0,1,.08-.38L71,141.28c.34-1.15,1.76-1.68,3.18-1.68s2.87.54,3.21,1.68l7.39,24.07a1.7,1.7,0,0,1,.08.38c0,1.19-1.8,2.07-3.14,2.07-.84,0-1.49-.27-1.68-1l-1.45-5.09H69.85l-1.45,5.09c-.19.73-.84,1-1.68,1C65.37,167.81,63.57,167,63.57,165.74Zm14-7.92-3.33-11.75-3.33,11.75Z"/><path class="cls-1" d="M91.62,167.81c-1.11,0-2.18-.54-2.18-1.57V141.36c0-1.07,1.22-1.53,2.49-1.53s2.49.46,2.49,1.53v22.08h9.34c1,0,1.49,1.07,1.49,2.18s-.5,2.18-1.49,2.18Z"/><path class="cls-1" d="M122.09,139.83c1.07,0,1.57,1.15,1.57,2.22s-.57,2.26-1.57,2.26H116.5v21.93c0,1-1.26,1.57-2.49,1.57s-2.49-.54-2.49-1.57V144.31H105.9c-1,0-1.57-1-1.57-2.26,0-1.07.5-2.22,1.57-2.22Z"/><path class="cls-1" d="M141.87,155.25h-8.61v11c0,1-1.26,1.57-2.49,1.57s-2.49-.54-2.49-1.57V141.36c0-1.07,1.22-1.53,2.49-1.53s2.49.46,2.49,1.53v10h8.61v-10c0-1.07,1.22-1.53,2.49-1.53s2.49.46,2.49,1.53v24.88c0,1-1.26,1.57-2.49,1.57s-2.49-.54-2.49-1.57Z"/><path class="cls-1" d="M159.55,156.59a1,1,0,0,0-.11-.5l-7.92-13.7a1.5,1.5,0,0,1-.12-.5c0-1.22,2-2.07,3.29-2.07a1.5,1.5,0,0,1,1.53,1L162,151.89l5.85-11.06a1.5,1.5,0,0,1,1.49-1c1.34,0,3.29.84,3.29,2.07a.92.92,0,0,1-.11.5l-7.88,13.7a1,1,0,0,0-.15.5v9.64c0,1-1.22,1.57-2.49,1.57s-2.49-.54-2.49-1.57Z"/><path class="cls-1" d="M199.51,157.74a1.82,1.82,0,0,1-1.68,1,1.77,1.77,0,0,1-1.65-1l-4.4-8.27v16.76c0,1-1.26,1.57-2.49,1.57s-2.49-.54-2.49-1.57V142.32a2.28,2.28,0,0,1,2.49-2.49c1.8,0,2.6.38,3.87,2.64l4.71,8.57,4.71-8.57c1.26-2.26,2.1-2.64,3.9-2.64a2.28,2.28,0,0,1,2.49,2.49v23.92c0,1-1.26,1.57-2.49,1.57s-2.49-.54-2.49-1.57V149.78Z"/><path class="cls-1" d="M220.44,151.85h5.82c1,0,1.57,1,1.57,2a1.73,1.73,0,0,1-1.57,1.91h-5.82v7.69h10.83c1,0,1.57,1,1.57,2.22,0,1-.5,2.14-1.57,2.14H217.65c-1.11,0-2.18-.54-2.18-1.57V141.4c0-1,1.07-1.57,2.18-1.57h13.62c1.07,0,1.57,1.11,1.57,2.14,0,1.19-.57,2.22-1.57,2.22H220.44Z"/><path class="cls-1" d="M235.71,165.74a2.23,2.23,0,0,1,.08-.38l7.39-24.07c.34-1.15,1.76-1.68,3.18-1.68s2.87.54,3.21,1.68l7.39,24.07a1.7,1.7,0,0,1,.08.38c0,1.19-1.8,2.07-3.14,2.07-.84,0-1.49-.27-1.68-1l-1.45-5.09H242l-1.45,5.09c-.19.73-.84,1-1.68,1C237.51,167.81,235.71,167,235.71,165.74Zm14-7.92-3.33-11.75L243,157.82Z"/><path class="cls-1" d="M263.76,167.81c-1.11,0-2.18-.54-2.18-1.57V141.36c0-1.07,1.22-1.53,2.49-1.53s2.49.46,2.49,1.53v22.08h9.34c1,0,1.49,1.07,1.49,2.18s-.5,2.18-1.49,2.18Z"/><path class="cls-1" d="M300.54,139.83c5.05,0,9,2.37,9,8.76V159c0,6.39-3.94,8.76-9,8.76h-6.77c-1.3,0-2.18-.73-2.18-1.53V141.36c0-.8.88-1.53,2.18-1.53Zm-4,4.36v19.25h4c2.53,0,4-1.42,4-4.4V148.59c0-3-1.49-4.4-4-4.4Z"/><path class="cls-1" d="M320.67,151.85h5.82c1,0,1.57,1,1.57,2a1.73,1.73,0,0,1-1.57,1.91h-5.82v7.69H331.5c1,0,1.57,1,1.57,2.22,0,1-.5,2.14-1.57,2.14H317.87c-1.11,0-2.18-.54-2.18-1.57V141.4c0-1,1.07-1.57,2.18-1.57H331.5c1.07,0,1.57,1.11,1.57,2.14,0,1.19-.57,2.22-1.57,2.22H320.67Z"/><path class="cls-1" d="M340.07,167.81c-1.11,0-2.18-.54-2.18-1.57V141.36c0-1.07,1.22-1.53,2.49-1.53s2.49.46,2.49,1.53v22.08h9.34c1,0,1.49,1.07,1.49,2.18s-.5,2.18-1.49,2.18Z"/><path class="cls-1" d="M358.33,141.36c0-1.07,1.22-1.53,2.49-1.53s2.49.46,2.49,1.53v24.88c0,1-1.26,1.57-2.49,1.57s-2.49-.54-2.49-1.57Z"/><path class="cls-1" d="M367.93,142.28a2.22,2.22,0,0,1-.08-.38c0-1.22,1.8-2.07,3.14-2.07.84,0,1.49.27,1.68,1l5.86,20.74,5.82-20.74c.19-.73.84-1,1.68-1,1.34,0,3.14.88,3.14,2.07a1.7,1.7,0,0,1-.08.38l-7.35,24.07c-.34,1.15-1.76,1.68-3.21,1.68s-2.83-.54-3.21-1.68Z"/><path class="cls-1" d="M398.7,151.85h5.82c1,0,1.57,1,1.57,2a1.73,1.73,0,0,1-1.57,1.91H398.7v7.69h10.83c1,0,1.57,1,1.57,2.22,0,1-.5,2.14-1.57,2.14H395.91c-1.11,0-2.18-.54-2.18-1.57V141.4c0-1,1.07-1.57,2.18-1.57h13.62c1.07,0,1.57,1.11,1.57,2.14,0,1.19-.57,2.22-1.57,2.22H398.7Z"/><path class="cls-1" d="M415.92,141.36a1.55,1.55,0,0,1,1.61-1.53h7.58c5,0,9.07,1.91,9.07,8,0,4.4-2.14,6.77-5,7.65l5,9.3a1,1,0,0,1,.19.61c0,1.26-1.65,2.6-3.1,2.6a2,2,0,0,1-1.72-1.19l-5.43-10.56H420.9v10c0,1-1.22,1.57-2.49,1.57s-2.49-.54-2.49-1.57Zm5,2.83v8.15h4.21c2.49,0,4.09-1,4.09-4.06s-1.61-4.09-4.09-4.09Z"/><path class="cls-1" d="M445.58,156.59a1,1,0,0,0-.12-.5l-7.92-13.7a1.51,1.51,0,0,1-.11-.5c0-1.22,2-2.07,3.29-2.07a1.5,1.5,0,0,1,1.53,1l5.82,11.06,5.86-11.06a1.5,1.5,0,0,1,1.49-1c1.34,0,3.29.84,3.29,2.07a.91.91,0,0,1-.12.5l-7.88,13.7a1,1,0,0,0-.15.5v9.64c0,1-1.22,1.57-2.49,1.57s-2.49-.54-2.49-1.57Z"/><path class="cls-2" d="M19.51,181.85a.63.63,0,0,1,.7-.57h2.88a2.92,2.92,0,0,1,3.26,3.23v.09c0,2.35-1.48,3.26-3.37,3.26H21.37v3.33c0,.39-.47.59-.93.59s-.93-.2-.93-.59Zm1.86,1.06v3.47H23c.93,0,1.51-.53,1.51-1.65v-.17c0-1.12-.57-1.65-1.51-1.65Z"/><path class="cls-2" d="M26.92,191a.84.84,0,0,1,0-.14l2.77-9a1.17,1.17,0,0,1,1.19-.63c.54,0,1.08.2,1.2.63l2.77,9a.64.64,0,0,1,0,.14c0,.44-.67.77-1.18.77-.32,0-.56-.1-.63-.37l-.54-1.91H29.28l-.54,1.91c-.07.27-.32.37-.63.37C27.6,191.76,26.92,191.44,26.92,191Zm5.24-3-1.25-4.4L29.66,188Z"/><path class="cls-2" d="M37.43,191.76c-.42,0-.82-.2-.82-.59v-9.32c0-.4.46-.57.93-.57s.93.17.93.57v8.28H42c.37,0,.56.4.56.82s-.19.82-.56.82Z"/><path class="cls-2" d="M46.14,185.78h2.18c.37,0,.59.36.59.75a.65.65,0,0,1-.59.72H46.14v2.88H50.2c.37,0,.59.39.59.83s-.19.8-.59.8H45.09c-.42,0-.82-.2-.82-.59v-9.31c0-.39.4-.59.82-.59H50.2c.4,0,.59.42.59.8s-.22.83-.59.83H46.14Z"/><path class="cls-2" d="M52.36,188.56v-4c0-2.4,1.46-3.28,3.36-3.28s3.37.89,3.37,3.28v4c0,2.4-1.48,3.28-3.37,3.28S52.36,191,52.36,188.56Zm4.86-4c0-1.13-.57-1.65-1.51-1.65s-1.49.52-1.49,1.65v4c0,1.13.54,1.65,1.49,1.65s1.51-.52,1.51-1.65Z"/><path class="cls-2" d="M65,181.86c0-.39.4-.59.82-.59h5c.4,0,.57.42.57.8s-.2.83-.57.83h-4v2.87H69c.37,0,.57.36.57.75s-.17.72-.57.72H66.85v3.93c0,.39-.47.59-.93.59s-.93-.2-.93-.59Z"/><path class="cls-2" d="M73,181.85a.58.58,0,0,1,.6-.57h2.84c1.88,0,3.4.72,3.4,3a2.7,2.7,0,0,1-1.88,2.87l1.88,3.49a.39.39,0,0,1,.07.23,1.21,1.21,0,0,1-1.16,1,.73.73,0,0,1-.65-.44l-2-4H74.85v3.74c0,.39-.46.59-.93.59s-.93-.2-.93-.59Zm1.86,1.06V186h1.58a1.53,1.53,0,1,0,0-3.06Z"/><path class="cls-2" d="M81.88,181.85c0-.4.46-.57.93-.57s.93.17.93.57v9.32c0,.39-.47.59-.93.59s-.93-.2-.93-.59Z"/><path class="cls-2" d="M88,185.78h2.18c.37,0,.59.36.59.75a.65.65,0,0,1-.59.72H88v2.88H92.1c.37,0,.59.39.59.83s-.19.8-.59.8H87c-.42,0-.82-.2-.82-.59v-9.31c0-.39.4-.59.82-.59H92.1c.4,0,.59.42.59.8s-.22.83-.59.83H88Z"/><path class="cls-2" d="M99.45,191.17l-3.08-5.77v5.77c0,.39-.47.59-.93.59s-.93-.2-.93-.59v-9.31c0-.4.46-.59.93-.59.67,0,.95.14,1.39,1l2.77,5.35v-5.77c0-.4.46-.57.93-.57s.93.17.93.57v9.32c0,.39-.47.59-.93.59A1.12,1.12,0,0,1,99.45,191.17Z"/><path class="cls-2" d="M107.25,181.27c1.89,0,3.37.89,3.37,3.28v3.92c0,2.4-1.48,3.28-3.37,3.28h-2.54c-.49,0-.82-.27-.82-.57v-9.34c0-.3.33-.57.82-.57Zm-1.49,1.64v7.21h1.49c.95,0,1.51-.53,1.51-1.65v-3.92c0-1.12-.56-1.65-1.51-1.65Z"/><path class="cls-2" d="M113.74,191.76c-.42,0-.82-.2-.82-.59v-9.32c0-.4.46-.57.93-.57s.93.17.93.57v8.28h3.5c.37,0,.56.4.56.82s-.19.82-.56.82Z"/><path class="cls-2" d="M121.59,187.56a.36.36,0,0,0,0-.19l-3-5.13a.56.56,0,0,1,0-.19c0-.46.73-.77,1.23-.77a.56.56,0,0,1,.57.37l2.18,4.15,2.19-4.15a.56.56,0,0,1,.56-.37c.5,0,1.23.32,1.23.77a.34.34,0,0,1,0,.19l-3,5.13a.36.36,0,0,0-.06.19v3.61c0,.39-.46.59-.93.59s-.93-.2-.93-.59Z"/><path class="cls-2" d="M135.18,187.46a1.89,1.89,0,1,1-1.88-1.81A1.89,1.89,0,0,1,135.18,187.46Z"/><path class="cls-2" d="M144.07,182.91c-1,0-1.51.53-1.51,1.65v4c0,1.12.54,1.65,1.49,1.65s1.51-.53,1.51-1.65v-.85H144.4c-.37,0-.57-.36-.57-.73s.2-.73.57-.73h2.44a.58.58,0,0,1,.59.6v1.71c0,2.4-1.48,3.28-3.37,3.28s-3.36-.89-3.36-3.28v-4a3,3,0,0,1,3.3-3.28c2,0,3.43,1,3.43,2.75,0,.72-.32.89-.93.89s-.92-.14-.93-.59A1.32,1.32,0,0,0,144.07,182.91Z"/><path class="cls-2" d="M150.44,191.76c-.42,0-.82-.2-.82-.59v-9.32c0-.4.46-.57.93-.57s.93.17.93.57v8.28H155c.37,0,.56.4.56.82s-.19.82-.56.82Z"/><path class="cls-2" d="M162.06,181.85c0-.4.46-.57.93-.57s.93.17.93.57v6.71c0,2.4-1.52,3.28-3.44,3.28S157,191,157,188.56v-6.71c0-.4.46-.57.93-.57s.93.17.93.57v6.71a1.58,1.58,0,1,0,3.16,0Z"/><path class="cls-2" d="M172.28,181.27c.4,0,.59.43.59.83s-.22.85-.59.85h-2.09v8.22c0,.39-.47.59-.93.59s-.93-.2-.93-.59V183h-2.11c-.37,0-.59-.39-.59-.85s.19-.83.59-.83Z"/><path class="cls-2" d="M176.47,185.78h2.18c.37,0,.59.36.59.75a.65.65,0,0,1-.59.72h-2.18v2.88h4.06c.37,0,.59.39.59.83s-.19.8-.59.8h-5.11c-.42,0-.82-.2-.82-.59v-9.31c0-.39.4-.59.82-.59h5.11c.4,0,.59.42.59.8s-.22.83-.59.83h-4.06Z"/><path class="cls-2" d="M187.87,191.17l-3.08-5.77v5.77c0,.39-.47.59-.93.59s-.93-.2-.93-.59v-9.31c0-.4.46-.59.93-.59.67,0,.95.14,1.39,1l2.77,5.35v-5.77c0-.4.46-.57.93-.57s.93.17.93.57v9.32c0,.39-.47.59-.93.59A1.12,1.12,0,0,1,187.87,191.17Z"/><path class="cls-2" d="M195.9,181.86c0-.39.4-.59.82-.59h5c.4,0,.57.42.57.8s-.2.83-.57.83h-4v2.87H200c.37,0,.57.36.57.75s-.17.72-.57.72h-2.19v3.93c0,.39-.47.59-.93.59s-.93-.2-.93-.59Z"/><path class="cls-2" d="M203.9,181.85a.58.58,0,0,1,.6-.57h2.84c1.88,0,3.4.72,3.4,3a2.7,2.7,0,0,1-1.88,2.87l1.88,3.49a.39.39,0,0,1,.07.23,1.21,1.21,0,0,1-1.16,1,.73.73,0,0,1-.65-.44l-2-4h-1.21v3.74c0,.39-.46.59-.93.59s-.93-.2-.93-.59Zm1.86,1.06V186h1.58a1.53,1.53,0,1,0,0-3.06Z"/><path class="cls-2" d="M214.66,185.78h2.18c.37,0,.59.36.59.75a.65.65,0,0,1-.59.72h-2.18v2.88h4.06c.37,0,.59.39.59.83s-.19.8-.59.8h-5.11c-.42,0-.82-.2-.82-.59v-9.31c0-.39.4-.59.82-.59h5.11c.4,0,.59.42.59.8s-.22.83-.59.83h-4.06Z"/><path class="cls-2" d="M223,185.78h2.18c.37,0,.59.36.59.75a.65.65,0,0,1-.59.72H223v2.88H227c.37,0,.59.39.59.83s-.19.8-.59.8h-5.11c-.42,0-.82-.2-.82-.59v-9.31c0-.39.4-.59.82-.59H227c.4,0,.59.42.59.8s-.22.83-.59.83H223Z"/><path class="cls-2" d="M236.4,187.46a1.89,1.89,0,1,1-1.88-1.81A1.89,1.89,0,0,1,236.4,187.46Z"/><path class="cls-2" d="M242.85,191.76c-.42,0-.82-.2-.82-.59v-9.32c0-.4.46-.57.93-.57s.93.17.93.57v8.28h3.5c.37,0,.56.4.56.82s-.19.82-.56.82Z"/><path class="cls-2" d="M249.41,188.56v-4c0-2.4,1.46-3.28,3.36-3.28s3.37.89,3.37,3.28v4c0,2.4-1.48,3.28-3.37,3.28S249.41,191,249.41,188.56Zm4.86-4c0-1.13-.57-1.65-1.51-1.65s-1.49.52-1.49,1.65v4c0,1.13.54,1.65,1.49,1.65s1.51-.52,1.51-1.65Z"/><path class="cls-2" d="M267.25,191.21a1.21,1.21,0,0,1-1.22.63c-.53,0-1.09-.2-1.19-.63l-.92-3.87-.93,3.87c-.1.43-.66.63-1.19.63s-1.09-.2-1.22-.63l-2.84-9a.6.6,0,0,1,0-.17c0-.42.66-.75,1.19-.75a.57.57,0,0,1,.62.37l2.27,7.77,1.22-5c.09-.36.5-.52.92-.52s.82.16.9.52l1.22,5,2.27-7.77a.57.57,0,0,1,.62-.37c.53,0,1.19.33,1.19.75a.6.6,0,0,1,0,.17Z"/><path class="cls-2" d="M278.68,182.91c-1,0-1.51.53-1.51,1.65v4c0,1.12.54,1.65,1.53,1.65,1.31,0,1.42-.93,1.46-1.53,0-.44.43-.59.92-.59.64,0,.95.19.95.92,0,1.74-1.42,2.84-3.43,2.84a3,3,0,0,1-3.3-3.28v-4a3,3,0,0,1,3.31-3.28c2,0,3.41,1.06,3.41,2.73,0,.75-.3.92-.93.92s-.92-.16-.93-.59A1.33,1.33,0,0,0,278.68,182.91Z"/><path class="cls-2" d="M283.28,191a.8.8,0,0,1,0-.14l2.77-9a1.17,1.17,0,0,1,1.19-.63c.54,0,1.08.2,1.21.63l2.77,9a.67.67,0,0,1,0,.14c0,.44-.67.77-1.18.77-.32,0-.56-.1-.63-.37l-.55-1.91h-3.28l-.54,1.91c-.07.27-.32.37-.63.37C284,191.76,283.28,191.44,283.28,191Zm5.24-3-1.25-4.4L286,188Z"/><path class="cls-2" d="M293,181.85a.58.58,0,0,1,.6-.57h2.84c1.88,0,3.4.72,3.4,3a2.7,2.7,0,0,1-1.88,2.87l1.88,3.49a.39.39,0,0,1,.07.23,1.21,1.21,0,0,1-1.16,1,.73.73,0,0,1-.65-.44l-2-4h-1.2v3.74c0,.39-.46.59-.93.59s-.93-.2-.93-.59Zm1.87,1.06V186h1.58a1.53,1.53,0,1,0,0-3.06Z"/><path class="cls-2" d="M301.87,181.86c0-.39.4-.59.82-.59h2.77c1.49,0,2.88.49,2.88,2.52a2.26,2.26,0,0,1-1.22,2.28,2.15,2.15,0,0,1,1.48,2.34v.3c0,2.24-1.25,3-2.87,3h-3c-.5,0-.82-.27-.82-.57Zm1.85,3.49h1.61a1.22,1.22,0,0,0,0-2.44h-1.59Zm1.62,4.78c.88,0,1.39-.47,1.39-1.56v-.23c0-1.12-.52-1.52-1.39-1.52h-1.62v3.31Z"/><path class="cls-2" d="M317.61,187.46a1.89,1.89,0,1,1-1.88-1.81A1.89,1.89,0,0,1,317.61,187.46Z"/><path class="cls-2" d="M324.07,191.76c-.42,0-.82-.2-.82-.59v-9.32c0-.4.46-.57.93-.57s.93.17.93.57v8.28h3.5c.37,0,.56.4.56.82s-.19.82-.56.82Z"/><path class="cls-2" d="M330.62,188.56v-4c0-2.4,1.46-3.28,3.36-3.28s3.37.89,3.37,3.28v4c0,2.4-1.48,3.28-3.37,3.28S330.62,191,330.62,188.56Zm4.86-4c0-1.13-.57-1.65-1.51-1.65s-1.49.52-1.49,1.65v4c0,1.13.54,1.65,1.49,1.65s1.51-.52,1.51-1.65Z"/><path class="cls-2" d="M348.46,191.21a1.21,1.21,0,0,1-1.22.63c-.53,0-1.09-.2-1.19-.63l-.92-3.87-.93,3.87c-.1.43-.66.63-1.19.63s-1.09-.2-1.22-.63l-2.84-9a.6.6,0,0,1,0-.17c0-.42.66-.75,1.19-.75a.57.57,0,0,1,.62.37l2.27,7.77,1.22-5c.09-.36.5-.52.92-.52s.82.16.9.52l1.22,5,2.27-7.77a.57.57,0,0,1,.62-.37c.53,0,1.19.33,1.19.75a.6.6,0,0,1,0,.17Z"/><path class="cls-2" d="M356.62,181.86c0-.39.4-.59.82-.59h5c.4,0,.57.42.57.8s-.2.83-.57.83h-4v2.87h2.19c.37,0,.57.36.57.75s-.17.72-.57.72h-2.19v3.93c0,.39-.47.59-.93.59s-.93-.2-.93-.59Z"/><path class="cls-2" d="M362.69,191a.8.8,0,0,1,0-.14l2.77-9a1.17,1.17,0,0,1,1.19-.63c.54,0,1.08.2,1.21.63l2.77,9a.67.67,0,0,1,0,.14c0,.44-.67.77-1.18.77-.32,0-.56-.1-.63-.37l-.54-1.91H365l-.54,1.91c-.07.27-.32.37-.63.37C363.36,191.76,362.69,191.44,362.69,191Zm5.24-3-1.25-4.4-1.25,4.4Z"/><path class="cls-2" d="M377.5,181.27c.4,0,.59.43.59.83s-.21.85-.59.85h-2.09v8.22c0,.39-.47.59-.93.59s-.93-.2-.93-.59V183h-2.11c-.37,0-.59-.39-.59-.85s.19-.83.59-.83Z"/><path class="cls-2" d="M386.8,187.46a1.89,1.89,0,1,1-1.88-1.81A1.89,1.89,0,0,1,386.8,187.46Z"/><path class="cls-2" d="M395.79,181.27c1.89,0,3.37.89,3.37,3.28v3.92c0,2.4-1.48,3.28-3.37,3.28h-2.54c-.49,0-.82-.27-.82-.57v-9.34c0-.3.33-.57.82-.57Zm-1.49,1.64v7.21h1.49c.95,0,1.51-.53,1.51-1.65v-3.92c0-1.12-.56-1.65-1.51-1.65Z"/><path class="cls-2" d="M403.33,185.78h2.18c.37,0,.59.36.59.75a.65.65,0,0,1-.59.72h-2.18v2.88h4.06c.37,0,.59.39.59.83s-.19.8-.59.8h-5.11c-.42,0-.82-.2-.82-.59v-9.31c0-.39.4-.59.82-.59h5.11c.4,0,.59.42.59.8s-.21.83-.59.83h-4.06Z"/><path class="cls-2" d="M410.6,191.76c-.42,0-.82-.2-.82-.59v-9.32c0-.4.46-.57.93-.57s.93.17.93.57v8.28h3.5c.37,0,.56.4.56.82s-.19.82-.56.82Z"/><path class="cls-2" d="M417.44,181.85c0-.4.46-.57.93-.57s.93.17.93.57v9.32c0,.39-.47.59-.93.59s-.93-.2-.93-.59Z"/><path class="cls-2" d="M425,182.91c-1,0-1.51.53-1.51,1.65v4c0,1.12.54,1.65,1.53,1.65,1.31,0,1.42-.93,1.46-1.53,0-.44.43-.59.92-.59.65,0,.95.19.95.92,0,1.74-1.42,2.84-3.43,2.84a3,3,0,0,1-3.3-3.28v-4a3,3,0,0,1,3.31-3.28c2,0,3.41,1.06,3.41,2.73,0,.75-.3.92-.93.92s-.92-.16-.93-.59A1.33,1.33,0,0,0,425,182.91Z"/><path class="cls-2" d="M430.35,181.85c0-.4.46-.57.93-.57s.93.17.93.57v9.32c0,.39-.47.59-.93.59s-.93-.2-.93-.59Z"/><path class="cls-2" d="M434.54,188.56v-4c0-2.4,1.46-3.28,3.36-3.28s3.37.89,3.37,3.28v4c0,2.4-1.48,3.28-3.37,3.28S434.54,191,434.54,188.56Zm4.86-4c0-1.13-.57-1.65-1.51-1.65s-1.49.52-1.49,1.65v4c0,1.13.54,1.65,1.49,1.65s1.51-.52,1.51-1.65Z"/><path class="cls-2" d="M448.55,181.85c0-.4.46-.57.93-.57s.93.17.93.57v6.71c0,2.4-1.52,3.28-3.44,3.28s-3.44-.89-3.44-3.28v-6.71c0-.4.46-.57.93-.57s.93.17.93.57v6.71a1.58,1.58,0,1,0,3.16,0Z"/><path class="cls-2" d="M457.15,189c0-2.15-4.6-1.49-4.6-4.89,0-2.14,1.84-2.87,3.49-2.87.85,0,2.73.2,2.73,1.15,0,.33-.23,1-.75,1s-.77-.54-2-.54c-1,0-1.62.42-1.62,1.1,0,1.78,4.6,1.16,4.6,4.88,0,2.05-1.43,3.11-3.41,3.11s-3.31-.95-3.31-1.78c0-.4.37-1,.82-1s1,1.1,2.44,1.1C456.41,190.21,457.15,189.82,457.15,189Z"/></g></g></svg>