
<svg width="32px" height="26px" viewBox="0 0 32 26" version="1.1" xmlns="http://www.w3.org/2000/svg" xmlns:xlink="http://www.w3.org/1999/xlink">
    <!-- Generator: Sketch 46.1 (44463) - http://www.bohemiancoding.com/sketch -->
    <desc>Created with Sketch.</desc>
    <defs></defs>
    <g id="Page-1" stroke="none" stroke-width="1" fill="none" fill-rule="evenodd">
        <g id="Homepage" transform="translate(-500.000000, -7192.000000)" fill-rule="nonzero" fill="#FFF6DF">
            <path d="M532,7195.077 C530.822706,7195.6 529.55839,7195.953 528.229057,7196.11 C529.584396,7195.298 530.625656,7194.012 531.116779,7192.48 C529.847462,7193.231 528.443111,7193.779 526.947737,7194.072 C525.749437,7192.797 524.043011,7192 522.153538,7192 C518.527632,7192 515.589897,7194.938 515.589897,7198.563 C515.589897,7199.077 515.646912,7199.579 515.75894,7200.059 C510.302576,7199.785 505.465366,7197.172 502.226557,7193.201 C501.662416,7194.171 501.338335,7195.298 501.338335,7196.501 C501.338335,7198.779 502.497624,7200.787 504.258065,7201.965 C503.182796,7201.93 502.170543,7201.636 501.285321,7201.144 C501.284321,7201.171 501.284321,7201.2 501.284321,7201.226 C501.284321,7204.407 503.546887,7207.06 506.550638,7207.663 C506.0005,7207.812 505.420355,7207.893 504.821205,7207.893 C504.397099,7207.893 503.986997,7207.852 503.586897,7207.776 C504.421105,7210.382 506.846712,7212.28 509.71843,7212.334 C507.472868,7214.094 504.642161,7215.145 501.566392,7215.145 C501.036259,7215.145 500.513128,7215.114 500,7215.053 C502.904726,7216.913 506.355589,7218 510.063516,7218 C522.138535,7218 528.743186,7207.999 528.743186,7199.325 C528.743186,7199.041 528.735184,7198.757 528.723181,7198.475 C530.006502,7197.55 531.11878,7196.395 532,7195.077 Z" id="Shape"></path>
        </g>
    </g>
</svg>